SplineFontDB: 3.2
FontName: SovngardeLight
FullName: Sovngarde Light
FamilyName: Sovngarde
Weight: Light
Copyright: (c) All Rights Reserved. Designed and developed by K.
Version: 8.9
ItalicAngle: 0
UnderlinePosition: -100
UnderlineWidth: 50
Ascent: 800
Descent: 200
InvalidEm: 0
LayerCount: 2
Layer: 0 0 "Back" 1
Layer: 1 0 "Fore" 0
XUID: [1021 726 -1732314294 23016]
FSType: 0
OS2Version: 0
OS2_WeightWidthSlopeOnly: 0
OS2_UseTypoMetrics: 1
CreationTime: 1464055314
ModificationTime: 1599533671
PfmFamily: 17
TTFWeight: 300
TTFWidth: 5
LineGap: 90
VLineGap: 0
OS2TypoAscent: 0
OS2TypoAOffset: 1
OS2TypoDescent: 0
OS2TypoDOffset: 1
OS2TypoLinegap: 90
OS2WinAscent: 0
OS2WinAOffset: 1
OS2WinDescent: 0
OS2WinDOffset: 1
HheadAscent: 0
HheadAOffset: 1
HheadDescent: 0
HheadDOffset: 1
OS2Vendor: 'PfEd'
Lookup: 258 0 0 "Default" { "Default-1" [150,0,2] } ['kern' ('DFLT' <'dflt' > 'latn' <'dflt' > ) ]
MarkAttachClasses: 1
DEI: 91125
KernClass2: 9 23 "Default-1"
 1 T
 1 Y
 1 f
 1 A
 9 parenleft
 11 bracketleft
 1 V
 7 uni1E6A
 1 A
 1 G
 1 J
 1 o
 1 a
 1 b
 1 c
 1 d
 1 e
 1 f
 1 g
 1 h
 1 i
 1 j
 1 k
 1 l
 1 V
 1 T
 1 Y
 10 parenright
 12 bracketright
 0 

StartChar: A
Encoding: 65 65 0
Width: 577
VWidth: 0
Flags: W
HStem: 0.643555 21G<31.4668 146.791 431.21 545.533> 128.119 86.8945<281.039 322.05> 534.052 20G<274.234 293.553>
LayerCount: 2
Fore
SplineSet
518.640625 79.716796875 m 2
 527.319335938 62.0419921875 538.900390625 39.21875 545.533203125 33.60546875 c 1
 545.533203125 0.6435546875 l 1
 453.645507812 0.6435546875 l 1
 431.209960938 0.6435546875 l 1
 431.209960938 32.8427734375 l 1
 431.209960938 32.8427734375 445.739257812 60.4443359375 415.12109375 97.322265625 c 2
 387.799804688 134.842773438 l 5
 357.95703125 126.456054688 322.049804688 128.119140625 322.049804688 128.119140625 c 1
 177.415039062 124.376953125 l 1
 144.461914062 56.2001953125 l 1
 138.747070312 34.783203125 146.791015625 32.8427734375 146.791015625 32.8427734375 c 1
 146.791015625 0.6435546875 l 1
 128.447265625 0.6435546875 l 1
 31.466796875 0.6435546875 l 1
 31.466796875 33.60546875 l 1
 36.1240234375 37.5556640625 42.826171875 48.5771484375 49.3876953125 60.9130859375 c 2
 283.73828125 554.051757812 l 1
 502.390625 108.491210938 l 1
 518.640625 79.716796875 l 2
375.216796875 211.41015625 m 1
 381.424804688 215.4296875 l 1
 371.971679688 219.727539062 378.938476562 223.469726562 378.938476562 223.469726562 c 1
 362.940429688 198.479492188 l 1
 366.0546875 220.974609375 l 1
 366.0546875 226.51953125 l 1
 354.625976562 227.767578125 l 1
 286.373046875 382.354492188 l 1
 260.640625 319.55859375 l 2
 259.653320312 320.807617188 258.030273438 322.748046875 256.1953125 324.133789062 c 0
 253.303710938 326.3515625 250.05859375 339.243164062 246.459960938 325.174804688 c 1
 248.928710938 322.470703125 l 1
 248.15234375 319.55859375 l 1
 252.173828125 316.716796875 l 1
 254.99609375 307.22265625 l 1
 204.796875 184.03125 l 1
 254.677734375 190.893554688 279.06640625 217.85546875 279.06640625 217.85546875 c 1
 322.102539062 215.637695312 302.921875 214.875 326.5546875 215.013671875 c 1
 342.905273438 201.844726562 l 1
 348.905273438 211.41015625 l 1
 375.216796875 211.41015625 l 1
EndSplineSet
Validated: 37
EndChar

StartChar: B
Encoding: 66 66 1
Width: 432
VWidth: 0
Flags: W
HStem: 1.55371 37.3633<17.6016 33.3489> 243.658 76.4434<132.018 224.408> 482.373 71.4766<131.529 207.859>
VStem: 42.8213 89.1963<110.188 243.52 320.102 320.938 331.318 381.699 425.388 469.91 472.906 482.373>
LayerCount: 2
Fore
SplineSet
192.043945312 320.1015625 m 2
 296 320.1015625 290.89453125 397.272460938 290.89453125 397.272460938 c 1
 290 477 207.859375 482.373046875 207.859375 482.373046875 c 1
 131.529296875 482.373046875 l 1
 131.529296875 430.333984375 l 1
 131.041992188 425.387695312 l 1
 128.534179688 429.846679688 l 1
 126.026367188 423.4375 l 1
 125.05078125 413.651367188 l 1
 129.021484375 405.221679688 l 1
 131.529296875 399.788085938 l 1
 131.529296875 331.318359375 l 1
 127.55859375 330.830078125 l 1
 125.607421875 326.859375 l 1
 132.017578125 320.9375 l 1
 132.017578125 320.1015625 l 1
 192.043945312 320.1015625 l 2
304.108398438 287.828125 m 1
 364.927734375 268.390625 403.119140625 202.717773438 390.508789062 113.750976562 c 0
 372.326171875 -14.3681640625 248.165039062 1.3447265625 248.165039062 1.3447265625 c 1
 122.579101562 1.5537109375 l 1
 17.6015625 1.5537109375 l 1
 17.6015625 38.9169921875 l 1
 41.21875 45.2568359375 42.8212890625 110.1875 42.8212890625 110.1875 c 1
 42.8212890625 378.854492188 l 1
 44.771484375 388.259765625 l 1
 47.9765625 396.201171875 l 1
 74.4501953125 396.201171875 l 1
 78.4208984375 401.635742188 l 1
 61.630859375 404.143554688 l 1
 45.81640625 408.114257812 l 1
 45.81640625 418.982421875 l 1
 40.3828125 418.982421875 l 1
 40.3828125 469.91015625 l 1
 36.4111328125 472.90625 l 1
 36.4111328125 487.745117188 l 1
 17.6015625 507.04296875 l 1
 17.6015625 549.390625 l 1
 17.6015625 553.849609375 l 1
 217.162109375 553.849609375 l 1
 217.162109375 553.849609375 376 570 366.743164062 390.6171875 c 0
 363.98777403 337.22209473 336.991210938 305.036132812 304.108398438 287.828125 c 1
133.036132812 71.9443359375 m 1
 302 31 297 162 297 162 c 1
 296 245 224.408203125 243.658203125 224.408203125 243.658203125 c 1
 138.078125 243.658203125 l 1
 132.017578125 243.51953125 l 1
 132.017578125 83.3154296875 l 2
 132.017578125 76.443359375 132.388671875 77.984375 133.036132812 71.9443359375 c 1
EndSplineSet
Validated: 33
EndChar

StartChar: C
Encoding: 67 67 2
Width: 540
VWidth: 0
Flags: W
HStem: 0.387695 21G<281.005 358.841>
VStem: 31.1846 95.7812<177.169 284.521>
LayerCount: 2
Fore
SplineSet
316 93 m 1
 316 93 426 96 481.208007812 190.043945312 c 1
 509.817382812 196.075195312 l 1
 508.817382812 136.723632812 l 1
 508.817382812 136.723632812 436.676757812 4.8173828125 281.004882812 0.3876953125 c 1
 281.004882812 0.3876953125 35.6142578125 -11.0029296875 31.1845703125 284.520507812 c 1
 31.1845703125 284.520507812 27.6689453125 562.465820312 288.809570312 552.833007812 c 1
 389.075195312 552.833007812 455.942382812 503.543945312 455.942382812 503.543945312 c 1
 492.012695312 454.254882812 508.747070312 472.747070312 508.747070312 472.747070312 c 1
 488.567382812 420.786132812 441.700195312 363.114257812 441.700195312 363.114257812 c 1
 417.239257812 370.059570312 l 1
 414 478 315 476 315 476 c 1
 315 476 126.965820312 489 126.965820312 265.731445312 c 0
 126.965820312 79 316 93 316 93 c 1
EndSplineSet
Validated: 33
EndChar

StartChar: D
Encoding: 68 68 3
Width: 494
VWidth: 0
Flags: W
HStem: 0.0195312 84.7812<136.805 240.586> 467.332 84.9922<136.805 235.875>
VStem: 54.2578 82.5469<112.426 372.738 393.129 457.113> 371.719 85.375<164.5 387.27>
LayerCount: 2
Fore
SplineSet
235.875 552.32421875 m 1
 235.875 552.32421875 457.0234375 548.80859375 457.09375 276.20703125 c 0
 457.09375 3.60546875 240.5859375 0.01953125 240.5859375 0.01953125 c 1
 151.5703125 0.01953125 l 1
 110.859375 0.01953125 l 1
 27.046875 0.01953125 l 1
 27.046875 38.73828125 l 1
 56.48046875 54 54.2578125 112.42578125 54.2578125 112.42578125 c 1
 54.2578125 363.03515625 l 1
 56.3671875 372.73828125 l 1
 59.8125 380.89453125 l 1
 88.359375 380.89453125 l 1
 92.6484375 386.51953125 l 1
 74.5078125 389.05078125 l 1
 57.421875 393.12890625 l 1
 57.421875 404.37890625 l 1
 51.515625 404.37890625 l 1
 51.515625 457.11328125 l 1
 47.2265625 460.20703125 l 1
 47.2265625 475.53515625 l 1
 26.90625 505.50390625 l 1
 26.90625 547.68359375 l 1
 26.90625 552.32421875 l 1
 235.875 552.32421875 l 1
252.0078125 84.80078125 m 1
 252.0078125 84.80078125 371.71875 89 371.71875 274.87109375 c 0
 371.71875 463 252.0078125 467.33203125 252.0078125 467.33203125 c 1
 158.3046875 467.33203125 l 1
 136.8046875 467.33203125 l 1
 136.8046875 84.80078125 l 1
 158.3046875 84.80078125 l 1
 252.0078125 84.80078125 l 1
EndSplineSet
Validated: 33
EndChar

StartChar: E
Encoding: 69 69 4
Width: 399
VWidth: 0
Flags: W
HStem: 0.511719 74.7344<162.047 281.73 281.775 342.712> 251.168 65.1875<189.293 211.887> 251.285 49.3281<140.285 189.286> 450.309 102.016<312.244 373.629> 480.652 71.6719<201.246 244.191>
VStem: 51.1055 89.3906<96.8464 251.285 300.613 373.699 394.793 474.441>
LayerCount: 2
Fore
SplineSet
373.62890625 450.73046875 m 1x94
 348.56640625 450.30859375 l 1x94
 331 481 244.19140625 480.65234375 244.19140625 480.65234375 c 1
 201.24609375 480.65234375 l 1
 201.24609375 480.65234375 147.87890625 484.23828125 141.12890625 451.61328125 c 1
 141.12890625 394.79296875 l 1
 134.23828125 390.29296875 l 1
 133.53515625 386.14453125 l 1
 125.87109375 386.14453125 l 1
 124.04296875 383.12109375 l 1
 123.69140625 379.74609375 l 1
 120.80859375 381.64453125 l 1
 121.16015625 376.01953125 l 1
 126.22265625 376.01953125 l 1
 129.80859375 373.69921875 l 1
 131.56640625 374.96484375 l 1
 134.66015625 378.62109375 l 1
 140.14453125 381.22265625 l 1
 140.21484375 300.61328125 l 1xac
 180.5 300.61328125 189.29296875 316.35546875 189.29296875 316.35546875 c 1
 301.5 310 329.10546875 321.34765625 329.10546875 321.34765625 c 1
 321.5 297 l 1
 313.00390625 276.91015625 l 2
 301.119140625 251.606445312 211.88671875 251.16796875 211.88671875 251.16796875 c 1xc4
 140.28515625 251.28515625 l 1
 140.49609375 151.39453125 l 6
 142.25390625 131.35546875 152.764648438 75.24609375 215.80078125 75.24609375 c 4
 317.5 75.24609375 342.73046875 96.88671875 342.73046875 96.88671875 c 5
 373.62890625 96.88671875 l 5
 373.62890625 0.37109375 l 1
 342.41015625 0.44140625 281.73046875 0.30078125 281.73046875 0.30078125 c 1
 145.38671875 0.51171875 l 1
 145.24609375 0.37109375 l 1
 25.37109375 0.37109375 l 1
 25.37109375 58.82421875 l 5
 25.37109375 58.82421875 48.99609375 58.33203125 51.10546875 125.62109375 c 6
 51.24609375 414.17578125 l 1
 51.24609375 439.69921875 l 2
 50.33203125 451.86328125 48.01171875 466.27734375 42.38671875 477.73828125 c 0
 38.58984375 484.48828125 33.17578125 490.81640625 25.37109375 495.17578125 c 1
 25.37109375 495.59765625 l 1
 25.37109375 551.90234375 l 1
 25.37109375 552.32421875 l 1
 63.48046875 552.32421875 l 1
 166.39453125 552.32421875 l 1xac
 373.62890625 552.32421875 l 1
 373.62890625 450.73046875 l 1x94
EndSplineSet
Validated: 33
EndChar

StartChar: F
Encoding: 70 70 5
Width: 379
VWidth: 0
Flags: W
HStem: -0.0507812 45.2578<147.421 165.52> 260.387 49.7891<140.762 185.237> 461.238 91.0859<307.128 356.387> 491.652 60.6719<211.949 260.816> 508.527 43.7969<22.6133 50.9919>
VStem: 59.1055 81.6562<112.637 260.387 310.176 345.527 365.988 457.551> 331.676 24.7109<461.59 476.397>
LayerCount: 2
Fore
SplineSet
326.44921875 308.94140625 m 2xd6
 315.530659409 263.111816911 238.05078125 263.12890625 238.05078125 263.05859375 c 2
 140.76171875 260.38671875 l 1
 140.76171875 112.63671875 l 1
 140.76171875 112.63671875 140 52 165.51953125 45.20703125 c 1
 165.51953125 -0.05078125 l 1
 35.50390625 -0.05078125 l 1
 35.50390625 45.69921875 l 1
 35.50390625 45.69921875 57.62890625 45.20703125 59.10546875 113.69140625 c 2
 59.10546875 457.55078125 l 5
 59.10546875 457.55078125 58 503 22.61328125 508.52734375 c 5
 22.61328125 552.32421875 l 1
 59.10546875 552.32421875 l 1
 157.09765625 552.32421875 l 1xce
 356.38671875 552.32421875 l 1
 356.38671875 461.58984375 l 5
 331.67578125 461.23828125 l 5xe6
 320 492 260.81640625 491.65234375 260.81640625 491.65234375 c 5
 211.94921875 491.65234375 l 5
 211.94921875 491.65234375 141.74609375 492.77734375 142.09765625 452.13671875 c 6
 142.09765625 365.98828125 l 1
 134.15234375 361.69921875 l 1
 133.30859375 357.76171875 l 1
 124.51953125 357.76171875 l 1
 122.41015625 354.87890625 l 1
 126.98828125 351.64453125 l 1
 123.68359375 353.47265625 l 1
 124.10546875 348.05859375 l 1
 124.94140625 348.05859375 l 1
 129.51171875 345.52734375 l 1
 134.50390625 350.58984375 l 1
 140.76171875 353.12109375 l 1
 140.76171875 310.17578125 l 1
 172.21484375 311 185.24609375 322.45703125 185.24609375 322.45703125 c 1
 299.21484375 306 291.62109375 327.44921875 291.62109375 327.44921875 c 1
 329.45703125 321.56640625 l 1
 326.44921875 308.94140625 l 2xd6
EndSplineSet
Validated: 33
EndChar

StartChar: G
Encoding: 71 71 6
Width: 564
VWidth: 0
Flags: W
HStem: -0.0507812 88.7891<210.66 387.63> 205.496 27.4688<379.828 431.058> 470.676 81.7891<211.959 392.748>
VStem: 28.4062 95.3906<176.567 377.89> 431.367 76.7969<133.963 155.09 398.098 435.269>
LayerCount: 2
Fore
SplineSet
579.09375 258.03515625 m 1
 593.59375 255.57421875 l 1
 574.5390625 220.61328125 l 2
 568.703125 213.93359375 546.75 210.20703125 533.8828125 208.16796875 c 1
 520.200195312 202 507.953125 152.28515625 507.953125 152.28515625 c 1
 431.5078125 182.28515625 l 1
 434.200195312 194 430.200195312 205.84765625 413.4375 205.84765625 c 1
 359.1015625 205.49609375 l 1
 379.828125 232.96484375 l 1
 427.078125 234.58203125 457.5390625 257.12109375 457.5390625 257.12109375 c 1
 572.200195312 242 579.09375 258.03515625 579.09375 258.03515625 c 1
304.3828125 88.73828125 m 0
 383 88.73828125 414.200195312 120 431.3671875 182.35546875 c 1
 508.1640625 152.35546875 l 1
 472 16 387.3515625 -0.05078125 296.296875 -0.05078125 c 0
 148.2890625 -0.05078125 28.40625 123.76953125 28.40625 276.27734375 c 0
 28.40625 428.78515625 150.359375 552.46484375 298.3671875 552.46484375 c 0
 409 552.46484375 489 493 508 397 c 1
 436.515625 398.09765625 l 1
 426 433 385 470.67578125 294.3828125 470.67578125 c 0
 213.200195312 470.67578125 123.796875 412 123.796875 279.08984375 c 0
 123.796875 160 188.0859375 88.73828125 304.3828125 88.73828125 c 0
75.0234375 390.95703125 m 1
 75.0234375 390.95703125 81.84375 415.21484375 107.0859375 419.99609375 c 1
 90.703125 419.99609375 l 1
 80.71875 410.43359375 l 1
 73.6171875 411.13671875 l 1
 69.328125 403.05078125 l 1
 57.9375 402.34765625 l 1
 75.0234375 390.95703125 l 1
EndSplineSet
Validated: 37
EndChar

StartChar: S
Encoding: 83 83 7
Width: 424
VWidth: 0
Flags: W
VStem: 313.367 45.9062<419.277 443.69>
LayerCount: 2
Fore
SplineSet
359.2734375 485.76171875 m 1
 359.2734375 419.27734375 l 1
 313.3671875 419.27734375 l 5
 287 477 151 503 131.4921875 413.01953125 c 5
 131.4921875 413.01953125 116 358 192.6796875 325.08984375 c 1
 192.6796875 325.08984375 210.296875 315.80859375 284.125 279.66796875 c 1
 284.125 279.66796875 371 241 383.234375 171.12890625 c 1
 383.234375 171.12890625 399 106 347.796875 50.92578125 c 1
 347.796875 50.92578125 306.7890625 -4.62109375 195.4140625 0.30078125 c 1
 195.4140625 0.30078125 64.0546875 3.67578125 26.578125 78.20703125 c 1
 26.578125 165.58984375 l 1
 68.3046875 165.58984375 l 1
 68.3046875 165.58984375 85.546875 93.09765625 186.65625 85.01171875 c 1
 186.65625 85.01171875 302.4296875 80 302.4296875 144.97265625 c 1
 302.4296875 144.97265625 311 209 169.609375 237.85546875 c 1
 169.609375 237.85546875 176.21875 253.74609375 202.796875 267.03515625 c 1
 185.8515625 267.03515625 l 1
 175.515625 257.47265625 l 1
 168.1328125 258.17578125 l 1
 163.703125 250.08984375 l 1
 151.890625 249.38671875 l 1
 151.890625 249.38671875 58.7421875 268.91796875 52.6953125 391.40234375 c 1
 52.6953125 391.40234375 48 492 137.125 531.70703125 c 1
 137.0546875 531.56640625 249 592 359.2734375 485.76171875 c 1
EndSplineSet
Validated: 33
EndChar

StartChar: T
Encoding: 84 84 8
Width: 506
VWidth: 0
Flags: W
HStem: -0.0507812 35.2578<299.558 313.746> 456.238 96.0859<20.7695 45.0586 438.896 485.16> 486.652 65.6719<51.5365 208.605 316.746 391.402>
VStem: 209.012 82.9844<102.637 350.527 370.988 461.371> 461.082 24.1484<456.238 472.289>
LayerCount: 2
Fore
SplineSet
485.16015625 552.32421875 m 1xd8
 485.23046875 456.23828125 l 1
 461.08203125 456.23828125 l 1xd8
 454 487 391.40234375 486.65234375 391.40234375 486.65234375 c 1
 316.74609375 486.65234375 l 1
 316.74609375 486.65234375 293.05078125 485 293.05078125 467.13671875 c 2
 293.05078125 370.98828125 l 1
 286.23046875 366.69921875 l 1
 285.52734375 362.76171875 l 1
 278.00390625 362.76171875 l 1
 276.17578125 359.87890625 l 1
 275.82421875 356.64453125 l 1
 272.94140625 358.47265625 l 1
 273.29296875 353.05859375 l 1
 278.35546875 353.05859375 l 1
 282.29296875 350.52734375 l 1
 286.58203125 355.58984375 l 1
 291.99609375 358.12109375 l 1
 291.99609375 102.63671875 l 1
 291.99609375 102.63671875 292 40 313.74609375 35.20703125 c 1
 313.74609375 -0.05078125 l 1
 188.48828125 -0.05078125 l 1
 187.48828125 34.69921875 l 1
 187.48828125 34.69921875 207.74609375 35.20703125 209.01171875 103.69140625 c 2
 209.01171875 461.37109375 l 1
 209.01171875 461.37109375 209 486.58203125 177.56640625 486.58203125 c 1
 146.20703125 486.58203125 135.55078125 486.58203125 115.44140625 486.65234375 c 0xb8
 57.99609375 486.79296875 45.05859375 456.23828125 45.05859375 456.23828125 c 1
 20.76953125 456.23828125 l 1
 20.76953125 552.32421875 l 1
 485.16015625 552.32421875 l 1xd8
EndSplineSet
Validated: 33
EndChar

StartChar: U
Encoding: 85 85 9
Width: 482
VWidth: 0
Flags: W
HStem: -0.0507812 80.3203<236.313 308.647> 523.152 29.1719<120.693 135.181 348.306 361.887>
VStem: 24.9932 89.7969<183.795 480.105> 368.696 88.0781<188.105 194.855 195.037 478.91>
LayerCount: 2
Fore
SplineSet
348.305664062 552.12890625 m 1
 477.657226562 552.32421875 l 1
 477.657226562 521.39453125 l 1
 477.657226562 521.39453125 456.633789062 512.46484375 457.266601562 478.92578125 c 0
 457.899414062 445.38671875 456.774414062 194.85546875 456.774414062 194.85546875 c 1
 456.774414062 188.10546875 l 1
 451.641601562 178.61328125 l 1
 456.774414062 176.99609375 l 1
 456.774414062 176.99609375 442.750976562 -0.05078125 230.266601562 -0.05078125 c 0
 42.1103515625 -0.05078125 24.9931640625 183.60546875 24.9931640625 183.60546875 c 1
 24.9931640625 183.60546875 24.5009765625 445.38671875 25.1337890625 478.92578125 c 0
 25.7666015625 512.46484375 4.7431640625 521.39453125 4.7431640625 521.39453125 c 1
 4.7431640625 552.32421875 l 1
 135.180664062 552.32421875 l 1
 135.180664062 523.15234375 l 1
 114.157226562 514.99609375 114.790039062 480.10546875 114.790039062 480.10546875 c 1
 114.790039062 228.86328125 l 1
 114.790039062 74 236.313476562 80.26953125 236.313476562 80.26953125 c 5
 336 80.26953125 362.579101562 162.34765625 367.571289062 202.14453125 c 0
 367.852539062 210.37109375 368.204101562 218.87890625 368.696289062 227.73828125 c 2
 368.344726562 240.04296875 l 1
 368.696289062 478.91015625 l 1
 368.696289062 478.91015625 369.329101562 513.73046875 348.305664062 521.95703125 c 1
 348.305664062 552.12890625 l 1
EndSplineSet
Validated: 33
EndChar

StartChar: V
Encoding: 86 86 10
Width: 518
VWidth: 0
Flags: W
HStem: -0.0673828 21G<212.109 320.463> 518.894 33.0078<343.445 360.799>
LayerCount: 2
Fore
SplineSet
343.4453125 551.901367188 m 1
 492.8046875 551.901367188 l 1
 492.8046875 517.909179688 l 1
 492.8046875 517.909179688 465.8046875 505.838867188 437.1171875 424.979492188 c 2
 314.703125 -0.0673828125 l 1
 218.8359375 -0.0673828125 l 1
 76.9453125 421.815429688 l 1
 76.9453125 421.815429688 42.9140625 505.674804688 25.1953125 519.948242188 c 1
 25.1953125 551.901367188 l 1
 177.359375 551.901367188 l 5
 177.2890625 520.018554688 l 5
 177.2890625 520.018554688 131.9375 513.166992188 176.0234375 391.385742188 c 6
 265.3203125 109.893554688 l 1
 268.5390625 109.893554688 l 1
 358.6328125 428.987304688 l 1
 358.6328125 428.987304688 384.3671875 503.143554688 343.234375 518.893554688 c 1
 343.4453125 551.901367188 l 1
EndSplineSet
Validated: 33
EndChar

StartChar: W
Encoding: 87 87 11
Width: 666
VWidth: 0
Flags: W
HStem: -0.200195 23.0078<144.906 149.008 509.77 513.781> 519.628 32.9531<25.7109 47.5716 619.111 640.289>
VStem: 564.844 1.47656<305.729 320.636>
LayerCount: 2
Fore
SplineSet
292.296875 120.104492188 m 1
 292.578125 121.088867188 l 1
 292.4375 121.088867188 l 1
 292.296875 120.104492188 l 1
503.203125 552.581054688 m 1
 640.2890625 552.581054688 l 1
 640.2890625 519.627929688 l 1
 607.875 517.096679688 592.265625 424.635742188 592.265625 424.635742188 c 1
 566.3203125 305.729492188 l 1
 564.84375 320.635742188 l 1
 556.96875 318.315429688 l 1
 556.6171875 312.620117188 l 1
 547.8984375 311.635742188 l 1
 550.359375 307.627929688 l 1
 550.359375 307.627929688 543.328125 306.081054688 540.796875 302.073242188 c 0
 538.265625 298.065429688 535.3125 291.596679688 535.3125 291.596679688 c 1
 542.625 294.620117188 l 1
 546 290.612304688 l 1
 549.234375 295.112304688 l 1
 553.8046875 291.666992188 l 1
 563.6484375 290.963867188 l 1
 518.3515625 107.815429688 l 1
 518.421875 107.815429688 l 1
 518.421875 107.815429688 502.1796875 25.1279296875 513.921875 22.1748046875 c 1
 513.78125 -0.1298828125 l 1
 511.0390625 -0.1298828125 l 1
 428.578125 -0.1298828125 l 1
 428.2265625 -0.1298828125 l 1
 418.515625 23.4404296875 l 1
 387.46875 86.1748046875 l 1
 389.171875 102.237304688 l 1
 387.46875 86.1748046875 l 1
 378.5078125 108.846679688 l 1
 372.640625 123.166992188 l 1
 335.171875 203.049804688 l 1
 299.21875 134.940429688 l 1
 298.1640625 136.627929688 l 1
 296.4765625 136.206054688 l 1
 298.375 146.612304688 l 1
 297.671875 143.729492188 l 1
 296.96875 140.987304688 l 1
 296.96875 140.987304688 295 140.213867188 293.59375 140.213867188 c 0
 292.2578125 140.213867188 296.96875 143.377929688 296.96875 143.377929688 c 1
 294.5078125 143.377929688 l 1
 294.5078125 164.260742188 l 1
 292.3984375 166.510742188 l 1
 295.28125 150.831054688 293.3828125 140.284179688 291.765625 135.010742188 c 1
 285.4375 133.534179688 l 1
 285.4375 131.002929688 l 1
 279.109375 128.471679688 l 1
 280.484375 117.924804688 l 1
 291.875 120.877929688 l 1
 292.3671875 120.104492188 l 1
 237.5234375 22.2451171875 l 1
 227.0234375 -0.2001953125 l 1
 147.6484375 -0.2001953125 l 1
 144.90625 -0.2001953125 l 1
 144.765625 22.8076171875 l 1
 154.75 27.7998046875 145.9609375 86.7919921875 142.9375 105.354492188 c 2
 79.734375 424.635742188 l 1
 79.734375 424.635742188 63.75 510.416992188 25.7109375 519.627929688 c 1
 25.7109375 552.581054688 l 1
 173.8671875 552.581054688 l 1
 173.796875 519.698242188 l 1
 173.796875 519.698242188 153.3359375 512.526367188 164.796875 429.627929688 c 1
 163.6015625 430.190429688 160.71875 431.174804688 157.203125 431.315429688 c 2
 157.203125 431.315429688 141.6640625 440.174804688 148.6953125 426.604492188 c 1
 152.28125 425.760742188 l 1
 153.3359375 422.877929688 l 1
 158.2578125 422.807617188 l 1
 166.765625 416.057617188 l 1
 168.3125 406.424804688 170.28125 394.807617188 172.7421875 383.276367188 c 2
 219.6015625 168.135742188 l 1
 222.34375 168.135742188 l 1
 283.6171875 269.229492188 l 1
 335.1875 354.127929688 l 1
 385.3515625 262.229492188 l 1
 440.625 156.135742188 l 1
 443.3671875 156.135742188 l 1
 502.2578125 383.276367188 l 2
 527.8515625 506.745117188 503.2734375 519.698242188 503.2734375 519.698242188 c 1
 503.203125 552.581054688 l 1
EndSplineSet
Validated: 37
EndChar

StartChar: X
Encoding: 88 88 12
Width: 551
VWidth: 0
Flags: W
HStem: 0.0195312 30.9609<165.923 180.73> 520.941 30.9609<320.309 335.116>
LayerCount: 2
Fore
SplineSet
418.98828125 81.46484375 m 1
 418.98828125 81.46484375 443.61328125 47.78515625 472.44140625 30.62890625 c 1
 472.44140625 -0.05078125 l 1
 315.80859375 -0.05078125 l 1
 315.87890625 30.34765625 l 1
 315.87890625 30.34765625 346.67578125 52.84765625 317.00390625 103.05078125 c 2
 254.11328125 215.62109375 l 1
 252.44140625 215.62109375 l 1
 167.37109375 77.59765625 l 1
 167.37109375 77.59765625 154.15234375 39.48828125 180.94140625 30.98046875 c 1
 180.73046875 0.01953125 l 1
 18.55859375 0.01953125 l 1
 18.55859375 31.54296875 l 1
 18.55859375 31.54296875 42.39453125 36.39453125 67.70703125 79.77734375 c 2
 204.83203125 278.76171875 l 1
 91.98046875 440.59765625 l 1
 91.98046875 440.59765625 55.42578125 504.27734375 26.66796875 521.29296875 c 1
 26.66796875 551.97265625 l 1
 174.30078125 551.97265625 l 1
 174.23046875 521.57421875 l 1
 174.23046875 521.57421875 138.512695312 510.911132812 163.10546875 468.87109375 c 2
 240.99609375 353.30078125 l 5
 252.66796875 353.30078125 l 5
 333.66796875 474.32421875 l 1
 333.66796875 474.32421875 346.88671875 512.43359375 320.09765625 520.94140625 c 1
 320.30859375 551.90234375 l 1
 465.48046875 551.90234375 l 1
 465.48046875 520.44921875 l 1
 465.48046875 520.44921875 441.64453125 515.59765625 416.33203125 472.21484375 c 2
 296.13671875 279.23046875 l 1
 418.98828125 81.46484375 l 1
EndSplineSet
Validated: 33
EndChar

StartChar: Y
Encoding: 89 89 13
Width: 506
VWidth: 0
Flags: W
HStem: -0.191406 35.6094<302.216 318.039> 521.379 30.9453<23.2812 37.2741 357.469 366.4>
VStem: 217.195 78.1328<92.3711 104.957 124.223 218.746>
LayerCount: 2
Fore
SplineSet
357.46875 552.32421875 m 1
 482.71875 552.32421875 l 1
 482.71875 520.46484375 l 1
 482.71875 520.46484375 468.0390625 514.69921875 441.8125 463.30078125 c 2
 295.328125 218.74609375 l 1
 295.328125 92.37109375 l 1
 295.328125 92.37109375 295.328125 41.95703125 318.0390625 35.41796875 c 1
 318.0390625 -0.19140625 l 1
 186.46875 -0.19140625 l 1
 186.46875 32.39453125 l 1
 186.46875 32.39453125 214.9453125 39.91796875 217.4765625 104.95703125 c 1
 227.3203125 112.55078125 l 1
 272.671875 109.03515625 l 1
 274.7109375 114.58984375 l 1
 257.0625 116.13671875 l 1
 252 121.19921875 l 1
 222.75 121.19921875 l 1
 217.1953125 124.22265625 l 1
 217.1953125 220.16796875 l 1
 65.140625 461.26171875 l 1
 65.140625 461.26171875 31 521.37890625 23.28125 521.37890625 c 1
 23.28125 552.32421875 l 1
 171.625 552.32421875 l 1
 171.5546875 521.80078125 l 1
 171.5546875 521.80078125 139.6328125 495.08203125 170.359375 435.59765625 c 2
 256.9921875 300.83984375 l 5
 264.0859375 300.83984375 l 5
 341.3203125 435.83203125 l 1
 341.3203125 435.83203125 384.9609375 510.97265625 357.2578125 521.02734375 c 1
 357.46875 552.32421875 l 1
EndSplineSet
Validated: 33
EndChar

StartChar: H
Encoding: 72 72 14
Width: 508
VWidth: 0
Flags: W
HStem: 0.0195312 35.9609<32.0078 49.7851 339.32 357.098> 230.402 81.625<168.891 339.391> 532.324 20G<32.0078 168.75 339.25 475.992>
VStem: 32.0078 136.812<0.0195312 35.9805 516.926 552.324> 56.7578 85.3438<106.434 229.731 314.121 469.605> 339.32 136.672<0.0195312 35.9805 516.996 552.395> 365.195 84.1484<106.434 229.585 312.92 368.559 389.934 469.605>
LayerCount: 2
Fore
SplineSet
475.9921875 519.59765625 m 1xec
 449.765625 505.32421875 449.34375 469.60546875 449.34375 469.60546875 c 1
 449.34375 107.55859375 l 2xe2
 450.6796875 35.98046875 475.9921875 36.47265625 475.9921875 36.47265625 c 1
 475.9921875 0.01953125 l 1
 339.3203125 0.01953125 l 1
 339.3203125 35.98046875 l 1xe4
 364.6328125 35.98046875 365.1953125 106.43359375 365.1953125 106.43359375 c 1
 365.1953125 186.80859375 l 2
 363.015625 229.27734375 339.390625 230.61328125 339.390625 230.61328125 c 1
 168.9609375 230.40234375 l 2
 149.203125 230.40234375 143.578125 203.96484375 142.171875 182.58984375 c 2
 142.171875 157.48828125 l 2
 142.2421875 156.57421875 142.3125 156.01171875 142.3125 156.01171875 c 1
 142.171875 156.43359375 l 1
 142.171875 107.55859375 l 2
 143.5078125 35.98046875 168.8203125 36.47265625 168.8203125 36.47265625 c 1
 168.8203125 0.01953125 l 1
 32.0078125 0.01953125 l 1
 32.0078125 35.98046875 l 1xf2
 57.3203125 35.98046875 57.8828125 106.43359375 57.8828125 106.43359375 c 1
 56.7578125 475.65234375 l 2xe8
 56.7578125 508.69921875 32.0078125 516.92578125 32.0078125 516.92578125 c 1
 32.0078125 552.32421875 l 1xf0
 168.75 552.32421875 l 1
 168.75 519.52734375 l 1
 142.453125 505.25390625 142.1015625 469.60546875 142.1015625 469.60546875 c 1
 142.1015625 388.45703125 l 1
 142.2421875 388.87890625 l 1
 142.734375 314.27734375 168.890625 312.02734375 168.890625 312.02734375 c 1
 339.3203125 311.95703125 l 2
 361.046875 313.29296875 364.5625 351.75390625 365.125 364.05859375 c 2
 365.125 376.43359375 l 1
 370.75 373.83203125 l 1
 375.25 368.55859375 l 1
 379.3984375 371.16015625 l 1
 384.671875 371.16015625 l 1
 385.0234375 376.78515625 l 1
 382 374.88671875 l 1
 381.6484375 378.26171875 l 1
 379.75 381.28515625 l 1
 371.875 381.28515625 l 1
 371.1015625 385.43359375 l 1
 364 389.93359375 l 1
 364 475.72265625 l 2
 364 508.76953125 339.25 516.99609375 339.25 516.99609375 c 1
 339.25 552.39453125 l 1
 475.9921875 552.39453125 l 1
 475.9921875 519.59765625 l 1xec
EndSplineSet
Validated: 33
EndChar

StartChar: I
Encoding: 73 73 15
Width: 185
VWidth: 0
Flags: W
HStem: -0.0507812 35.9609<142.629 160.406> 532.324 20G<24.5938 160.406>
VStem: 24.5938 135.812<-0.0507812 35.9102 516.926 552.324> 51.2422 83.2891<106.363 366.488 387.863 469.605>
LayerCount: 2
Fore
SplineSet
24.59375 552.32421875 m 5xe0
 160.40625 552.32421875 l 5
 160.40625 516.92578125 l 5xe0
 160.40625 516.92578125 135.65625 508.69921875 135.65625 475.65234375 c 6
 135.65625 387.86328125 l 5
 128.5546875 383.36328125 l 5
 127.78125 379.21484375 l 5
 119.90625 379.21484375 l 5
 118.0078125 376.19140625 l 5
 117.65625 372.81640625 l 5
 114.6328125 374.71484375 l 5
 114.984375 369.08984375 l 5
 120.2578125 369.08984375 l 5
 124.40625 366.48828125 l 5
 128.90625 371.76171875 l 5
 134.53125 374.36328125 l 5
 134.53125 106.36328125 l 5xd0
 134.53125 106.36328125 135.09375 35.91015625 160.40625 35.91015625 c 5
 160.40625 -0.05078125 l 5
 24.59375 -0.05078125 l 5
 24.59375 36.40234375 l 5xe0
 24.59375 36.40234375 49.90625 35.91015625 51.2421875 107.48828125 c 6
 51.2421875 469.60546875 l 5xd0
 51.2421875 469.60546875 50.890625 505.25390625 24.59375 519.52734375 c 5
 24.59375 552.32421875 l 5xe0
160.3359375 35.91015625 m 1028
EndSplineSet
Validated: 33
EndChar

StartChar: J
Encoding: 74 74 16
Width: 343
VWidth: 0
Flags: W
HStem: -20.957 20G<33.016 54.0273> 522.285 30.1094<302.457 315.716>
VStem: 203.301 85.9375<-40.2145 478.973 519.543 522.215 524.113 525.905>
LayerCount: 2
Fore
SplineSet
190.50390625 63.65234375 m 1028
177.49609375 552.32421875 m 1
 177.49609375 552.39453125 l 1
 315.88671875 552.39453125 l 1
 315.88671875 529.45703125 l 1
 312.23046875 527.41796875 309.13671875 524.95703125 306.39453125 522.28515625 c 2
 302.45703125 522.28515625 l 1
 300.06640625 528.40234375 l 1
 290.08203125 526.50390625 l 1
 290.08203125 524.11328125 l 1
 285.08984375 522.21484375 l 1
 285.08984375 519.54296875 l 1
 287.69140625 516.09765625 l 1
 295.07421875 513.98828125 l 1
 296.55078125 518.27734375 l 1
 300.34765625 517.50390625 l 1
 304.00390625 519.82421875 l 1
 289.51953125 503.16015625 289.23828125 478.97265625 289.23828125 478.97265625 c 1
 289.23828125 -17.07421875 l 1
 289.23828125 -122 201.68359375 -146.16796875 201.68359375 -146.16796875 c 1
 201.68359375 -146.16796875 57 -208 17.11328125 -66.26953125 c 5
 40.03515625 -0.95703125 l 1
 54.02734375 -0.95703125 l 1
 54.02734375 -0.95703125 73.78515625 -36.96484375 101.62890625 -53.55859375 c 6
 101.34765625 -53.41796875 l 5
 97.41015625 -57.14453125 l 5
 99.37890625 -59.60546875 l 5
 101.34765625 -57.70703125 l 5
 101.34765625 -59.60546875 l 5
 99.37890625 -61.50390625 l 5
 101.34765625 -63.05078125 l 5
 102.33203125 -64.73828125 l 5
 105.70703125 -65.86328125 l 5
 103.80859375 -63.75390625 l 5
 104.37109375 -61.50390625 l 5
 101.55859375 -61.29296875 l 5
 103.80859375 -59.60546875 l 5
 103.03515625 -57.49609375 l 5
 107.74609375 -57.00390625 l 5
 107.25390625 -56.72265625 l 6
 118.78515625 -62.48828125 131.44140625 -65.51171875 144.51953125 -62.83984375 c 5
 144.51953125 -62.83984375 203.30078125 -58.62109375 203.30078125 30.46484375 c 6
 203.30078125 372.39453125 l 1
 202.17578125 485.01953125 l 2
 202.17578125 518.41796875 177.49609375 527.91015625 177.49609375 527.91015625 c 1
 177.49609375 552.32421875 l 1
EndSplineSet
Validated: 33
EndChar

StartChar: K
Encoding: 75 75 17
Width: 500
VWidth: 0
Flags: W
HStem: 0.0195312 20.9297G<17.918 148.801 321.301 482.082> 524.941 27.3828<17.918 35.3104 463.683 479.512>
VStem: 17.918 130.883<-0.0507812 36.0664 523.113 552.324> 41.6836 87.9219<83.477 188.176 200.902 490.91>
LayerCount: 2
Fore
SplineSet
17.91796875 524.94140625 m 1xe0
 17.91796875 552.32421875 l 1xe0
 153.37109375 552.32421875 l 1
 153.37109375 523.11328125 l 1
 153.37109375 523.11328125 128.83203125 513.90234375 129.60546875 479.30859375 c 0
 130.37890625 444.71484375 129.60546875 83.21484375 129.60546875 83.21484375 c 1xd0
 129.60546875 83.21484375 129.46484375 48.05859375 148.80078125 34.83984375 c 1
 148.80078125 -0.05078125 l 1
 17.91796875 -0.05078125 l 1
 17.91796875 36.06640625 l 1xe0
 17.91796875 36.06640625 41.68359375 46 41.68359375 85.56640625 c 2
 41.68359375 188.17578125 l 1
 58.55859375 185.50390625 l 1
 69.66796875 178.61328125 l 1
 75.22265625 179.73828125 l 1
 77.33203125 173.62109375 l 1
 88.08984375 176.71484375 l 1
 91.95703125 181.70703125 l 1
 91.95703125 185.57421875 l 1
 84.64453125 188.24609375 l 1
 84.64453125 191.69140625 l 1
 70.08984375 194.36328125 l 1
 66.64453125 185.50390625 l 1
 58.55859375 185.50390625 l 1
 41.33203125 200.90234375 l 1
 41.68359375 490.91015625 l 1xd0
 41.68359375 490.91015625 42.45703125 516.50390625 17.91796875 524.94140625 c 1xe0
400.38671875 118.12109375 m 2
 451.50390625 40.63671875 482.08203125 35.76953125 482.08203125 35.83984375 c 2
 482.08203125 0.01953125 l 1
 321.30078125 0.01953125 l 1
 321.30078125 32.35546875 l 1
 344 49 302 92 302 92 c 1
 257.87890625 142.78515625 l 1
 257.87890625 152.48828125 l 1
 290.08203125 152.48828125 l 1
 296.19921875 156.56640625 l 1
 284.45703125 161.62890625 l 1
 281.92578125 163.66796875 l 1
 277.84765625 159.58984375 l 1
 277.84765625 159.58984375 264.55859375 162.12109375 263.01171875 162.12109375 c 0
 261.46484375 162.12109375 263.01171875 167.74609375 263.01171875 167.74609375 c 1
 245.08203125 169.78515625 l 1
 154.50390625 289.42578125 l 1
 319.29296875 473.68359375 l 2
 347.06640625 506.30859375 319.29296875 522.12890625 319.29296875 522.12890625 c 1
 319.29296875 552.32421875 l 1
 479.51171875 552.32421875 l 1
 480.00390625 522.12890625 l 1
 458.27734375 515.94140625 406.05859375 450.59765625 406.05859375 450.59765625 c 1
 260.36328125 289.42578125 l 1
 302.83203125 224.73828125 359.29296875 197.76171875 359.29296875 197.76171875 c 1
 400.38671875 118.12109375 l 2
305.69140625 152.20703125 m 1
 309.98046875 154.24609375 l 1
 307.44921875 156.28515625 l 1
 305.69140625 161.34765625 l 1
 299.29296875 156.28515625 l 1
 305.69140625 152.20703125 l 1
EndSplineSet
Validated: 37
EndChar

StartChar: L
Encoding: 76 76 18
Width: 382
VWidth: 0
Flags: W
HStem: -0.0507812 66.9453<144.483 162.785 162.926 298.348 298.375 331.268> 532.324 20G<19.9727 147.785>
VStem: 40.6211 86.2891<160.848 366.488 387.863 469.605>
LayerCount: 2
Fore
SplineSet
336.77734375 90.43359375 m 1
 368.02734375 90.43359375 l 1
 368.02734375 -0.05078125 l 1
 335.82421875 0.01953125 298.34765625 -0.12109375 298.34765625 -0.12109375 c 1
 162.92578125 0.08984375 l 1
 162.78515625 -0.05078125 l 1
 13.97265625 -0.05078125 l 1
 15.97265625 53.40234375 l 1
 15.97265625 53.40234375 40.62109375 74 40.62109375 167.48828125 c 2
 40.62109375 469.60546875 l 1
 40.62109375 469.60546875 42 508 19.97265625 519.52734375 c 1
 19.97265625 552.32421875 l 1
 147.78515625 552.32421875 l 1
 147.78515625 516.92578125 l 1
 147.78515625 516.92578125 128.03515625 508 128.03515625 465.65234375 c 2
 128.03515625 387.86328125 l 1
 120.93359375 383.36328125 l 1
 120.16015625 379.21484375 l 1
 112.28515625 379.21484375 l 1
 110.38671875 376.19140625 l 1
 110.03515625 372.81640625 l 1
 107.01171875 374.71484375 l 1
 107.36328125 369.08984375 l 1
 112.63671875 369.08984375 l 1
 116.78515625 366.48828125 l 1
 121.28515625 371.76171875 l 1
 126.91015625 374.36328125 l 1
 126.91015625 160.84765625 l 1
 126.91015625 160.84765625 124 66.89453125 184.95703125 66.89453125 c 0
 257 66.89453125 336.77734375 90.43359375 336.77734375 90.43359375 c 1
EndSplineSet
Validated: 33
EndChar

StartChar: M
Encoding: 77 77 19
Width: 645
VWidth: 0
Flags: W
HStem: 0.578125 35.9375<152.479 169.533 594.331 607.295> 515.664 36.5352<45.0098 59.5843 567.982 582.658 585.381 607.162>
VStem: 63.3379 82.4219<97.3438 119.523 139.379 409.562> 491.736 95.1719<91.2344 332.859 361.215 409.098>
LayerCount: 2
Fore
SplineSet
567.982421875 515.6640625 m 1
 567.583984375 511.34765625 l 1
 559.349609375 506.6328125 l 1
 573.560546875 504.7734375 l 1
 576.283203125 508.55859375 l 1
 586.974609375 507.62890625 l 1
 591.556640625 511.87890625 l 1
 589.697265625 502.9140625 l 1
 589.697265625 361.21484375 l 1
 576.416015625 360.28515625 l 1
 572.298828125 356.96484375 l 1
 569.111328125 361.21484375 l 1
 565.923828125 357.4296875 l 1
 559.017578125 360.28515625 l 1
 563.134765625 351.3203125 l 1
 567.716796875 347.53515625 l 1
 573.228515625 345.14453125 l 1
 570.904296875 341.359375 l 1
 579.138671875 340.4296875 l 1
 579.603515625 333.32421875 l 1
 586.908203125 332.859375 l 1
 586.908203125 91.234375 l 1
 586.908203125 91.234375 589.697265625 44.55078125 607.294921875 36.515625 c 1
 607.294921875 0.578125 l 1
 472.013671875 0.578125 l 1
 472.013671875 36.3828125 l 1
 472.013671875 36.3828125 492.666015625 42.29296875 491.736328125 92.62890625 c 2
 491.736328125 409.09765625 l 1
 487.619140625 409.09765625 l 1
 322.533203125 180.87109375 l 1
 150.806640625 409.5625 l 1
 145.759765625 409.5625 l 1
 145.759765625 139.37890625 l 1
 138.853515625 131.34375 l 1
 134.271484375 130.4140625 l 1
 133.806640625 127.55859375 l 1
 130.619140625 126.1640625 l 1
 130.619140625 126.1640625 126.966796875 117.1328125 134.271484375 119.5234375 c 2
 134.271484375 119.5234375 137.990234375 123.30859375 139.318359375 123.30859375 c 0
 140.646484375 123.30859375 146.623046875 126.62890625 146.623046875 126.62890625 c 1
 146.623046875 97.34375 l 1
 146.623046875 97.34375 145.228515625 39.90234375 169.533203125 35.65234375 c 1
 169.533203125 0.578125 l 1
 37.705078125 0.578125 l 1
 37.705078125 35.65234375 l 1
 37.705078125 35.65234375 63.337890625 44.81640625 63.337890625 94.48828125 c 0
 63.337890625 144.16015625 63.337890625 479.2734375 63.337890625 479.2734375 c 1
 63.337890625 479.2734375 61.478515625 510.94921875 45.009765625 515.6640625 c 1
 45.009765625 552.19921875 l 1
 174.513671875 552.19921875 l 1
 326.185546875 333.32421875 l 1
 482.904296875 552.19921875 l 1
 607.162109375 552.19921875 l 1
 607.162109375 519.9140625 l 1
 585.380859375 519.44921875 l 1
 582.658203125 515.6640625 l 1
 567.982421875 515.6640625 l 1
403.681640625 307.93359375 m 1
 407.798828125 314.640625 l 1
 403.216796875 316.765625 l 1
 401.822265625 322.2109375 l 1
 389.005859375 325.53125 l 1
 385.818359375 315.5703125 l 1
 391.794921875 313.1796875 l 1
 391.794921875 310.7890625 l 1
 403.681640625 307.93359375 l 1
EndSplineSet
Validated: 33
EndChar

StartChar: N
Encoding: 78 78 20
Width: 578
VWidth: 0
Flags: W
HStem: -0.191406 35.9609<153.085 169.344 532.691 550.469> 532.184 20.1406G<27.5312 166.906 414.523 550.398>
VStem: 54.1797 89.2891<106.223 266.488 287.863 383.402> 438.656 85.9375<142.715 466.863>
LayerCount: 2
Fore
SplineSet
169.2734375 35.91015625 m 1024
525.6484375 475.65234375 m 2
 524.59375 374.36328125 l 1
 524.59375 106.36328125 l 1
 524.59375 106.36328125 525.15625 35.91015625 550.46875 35.91015625 c 1
 550.46875 -0.05078125 l 1
 437.953125 -0.05078125 l 1
 144.59375 383.40234375 l 1
 144.59375 287.86328125 l 1
 137.4921875 283.36328125 l 1
 136.71875 279.21484375 l 1
 128.84375 279.21484375 l 1
 126.9453125 276.19140625 l 1
 126.59375 272.81640625 l 1
 123.5703125 274.71484375 l 1
 123.921875 269.08984375 l 1
 129.1953125 269.08984375 l 1
 133.34375 266.48828125 l 1
 137.84375 271.76171875 l 1
 143.46875 274.36328125 l 1
 143.46875 106.22265625 l 1
 143.46875 106.22265625 142 46 169.34375 35.76953125 c 1
 169.34375 -0.19140625 l 1
 27.53125 -0.19140625 l 1
 27.53125 36.26171875 l 1
 27.53125 36.26171875 52.84375 35.76953125 54.1796875 107.34765625 c 2
 54.1796875 469.46484375 l 1
 54.1796875 469.46484375 53.828125 505.11328125 27.53125 519.38671875 c 1
 27.53125 552.18359375 l 1
 141.453125 552.18359375 l 1
 166.203125 552.18359375 l 1
 166.90625 550.91796875 l 1
 158.6796875 508.17578125 l 1
 155.4453125 507.96484375 l 1
 155.1640625 502.26953125 l 1
 142.6484375 494.39453125 l 1
 138.921875 498.54296875 l 1
 124.5078125 488.27734375 l 1
 151.71875 476.88671875 l 1
 145.3203125 483.98828125 l 1
 168.875 495.22265625 l 5
 169.2265625 496.69921875 l 5
 438.65625 142.71484375 l 1
 440.9765625 466.86328125 l 1
 440.9765625 466.86328125 439.203125 501.66796875 414.5234375 519.52734375 c 1
 414.5234375 552.32421875 l 1
 550.3984375 552.32421875 l 1
 550.3984375 516.92578125 l 1
 550.3984375 516.92578125 525.6484375 508.69921875 525.6484375 475.65234375 c 2
EndSplineSet
Validated: 33
EndChar

StartChar: O
Encoding: 79 79 21
Width: 595
VWidth: 0
Flags: W
HStem: 0.419922 88.9248<214.456 384.682> 465.892 86.2314<217.404 374.434>
VStem: 25.1484 108.558<173.653 349.744> 459.342 110.51<172.341 369.796>
LayerCount: 2
Fore
SplineSet
297.5 552.123046875 m 0
 447.889648438 552.123046875 569.8515625 425.161132812 569.8515625 274.771484375 c 0
 569.8515625 124.381835938 447.958984375 0.419921875 297.5 0.419921875 c 0
 147.041015625 0.419921875 25.1484375 124.381835938 25.1484375 274.771484375 c 0
 25.1484375 425.161132812 147.110351562 552.123046875 297.5 552.123046875 c 0
299.025390625 89.3447265625 m 0
 408 89.3447265625 459.341796875 169 459.341796875 276.504882812 c 4
 459.341796875 363 408 465.891601562 297.361328125 465.891601562 c 0
 200 465.891601562 142.442382812 382 142.442382812 340.155273438 c 1
 140.778320312 341.75 138.490234375 343.69140625 136.1328125 345.008789062 c 2
 136.1328125 345.008789062 143.444335938 368.65234375 141.918945312 343.899414062 c 1
 126.287109375 339.947265625 l 1
 125.524414062 335.09375 l 1
 132.388671875 331.141601562 l 1
 137.588867188 318.591796875 l 1
 135.0234375 304.5859375 133.706054688 289.956054688 133.706054688 274.702148438 c 0
 133.706054688 159 198 89.3447265625 299.025390625 89.3447265625 c 0
EndSplineSet
Validated: 5
EndChar

StartChar: P
Encoding: 80 80 22
Width: 472
VWidth: 0
Flags: W
HStem: -0.121094 21G<30.0732 164.597> 475.926 76.3984<140.901 233.472>
VStem: 55.8076 85.0938<111.02 309.832 320.379 383.738 416.309 418.051 420.02 475.926> 332.019 79.5703<387.402 441.118>
LayerCount: 2
Fore
SplineSet
235.666992188 236.51171875 m 1
 192.581054688 260.72265625 l 1
 192.581054688 310.77734375 l 5
 196.174804688 310.77734375 l 5
 343 302 332.018554688 387.40234375 332.018554688 387.40234375 c 1
 329 474 244.315429688 475.92578125 244.315429688 475.92578125 c 1
 140.901367188 475.92578125 l 1
 140.901367188 425.08203125 l 1
 140.409179688 420.01953125 l 1
 137.877929688 424.58984375 l 1
 135.346679688 418.05078125 l 1
 134.362304688 397.87109375 l 1
 138.370117188 389.29296875 l 1
 140.901367188 383.73828125 l 1
 140.901367188 320.37890625 l 1
 136.893554688 319.88671875 l 1
 134.854492188 315.87890625 l 1
 141.393554688 309.83203125 l 1
 141.393554688 102.93359375 l 1
 137.877929688 48.01953125 164.596679688 39.44140625 164.596679688 39.44140625 c 1
 164.596679688 -0.12109375 l 1
 30.0732421875 -0.12109375 l 1
 30.0732421875 38.45703125 l 1
 56.6435546875 55 55.8076171875 111.01953125 55.8076171875 111.01953125 c 1
 55.8076171875 386.63671875 l 1
 57.8466796875 396.19921875 l 1
 61.1513671875 404.28515625 l 1
 88.0810546875 404.28515625 l 1
 92.0888671875 409.83984375 l 1
 74.9326171875 412.37109375 l 1
 58.7607421875 416.30859375 l 1
 58.7607421875 427.41796875 l 1
 53.2060546875 427.41796875 l 1
 53.2060546875 479.30859375 l 1
 49.1982421875 482.33203125 l 1
 49.1982421875 497.44921875 l 1
 30.0732421875 517.13671875 l 1
 30.0732421875 547.75390625 l 1
 30.0732421875 552.32421875 l 1
 233.471679688 552.32421875 l 1
 233.471679688 552.32421875 411.588867188 553 411.588867188 386.03515625 c 0
 411.588867188 236 235.666992188 236.51171875 235.666992188 236.51171875 c 1
EndSplineSet
Validated: 33
EndChar

StartChar: Q
Encoding: 81 81 23
Width: 570
VWidth: 0
Flags: W
HStem: 7.54688 84.708<209.757 298.906> 470.678 81.9453<210.233 360.719>
VStem: 32.2559 89.9229<185.96 367.626> 444.268 93.4766<168.603 377.858>
LayerCount: 2
Fore
SplineSet
438.075195312 65.18359375 m 1
 491 -10 522.655273438 -28.0322265625 522.655273438 -28.0322265625 c 2
 524.430664062 -35.501953125 l 1
 470.081054688 -49.16015625 l 2
 435.750976562 -49.6181640625 371.733398438 14.2392578125 371.733398438 14.2392578125 c 1
 369.31640625 17.0595703125 l 1
 339 8 318.333984375 7.546875 285 7.546875 c 0
 145.408203125 7.546875 32.255859375 128.888671875 32.255859375 278.584960938 c 0
 32.255859375 428.28125 145.408203125 552.623046875 285 552.623046875 c 0
 424.592773438 552.623046875 537.744140625 428.28125 537.744140625 278.584960938 c 0
 537.744140625 185.90234375 504.317382812 114.041015625 438.075195312 65.18359375 c 1
76.39453125 391.23828125 m 1
 76.39453125 391.23828125 82.791015625 415.018554688 106.671875 419.744140625 c 1
 91.177734375 419.744140625 l 1
 81.7958984375 410.370117188 l 1
 75.04296875 411.055664062 l 1
 70.9921875 403.12890625 l 1
 60.259765625 402.442382812 l 1
 76.39453125 391.23828125 l 1
286.421875 92.2548828125 m 0
 293 92.2548828125 299.443359375 94.4677734375 299.443359375 94.4677734375 c 1
 251.026367188 154.880859375 l 1
 346.301757812 148.596679688 l 1
 365 116 379 115 379 115 c 2
 383.263671875 119.6328125 l 1
 403.630859375 140 444.267578125 169 444.267578125 280.337890625 c 0
 444.267578125 364 398 470.677734375 284.928710938 470.677734375 c 0
 178 470.677734375 122.178710938 356 122.178710938 278.508789062 c 0
 122.178710938 186 183 92.2548828125 286.421875 92.2548828125 c 0
EndSplineSet
Validated: 33
EndChar

StartChar: R
Encoding: 82 82 24
Width: 495
VWidth: 0
Flags: W
HStem: -0.0507812 38.5078<20.5781 38.9867> 475.277 77.1172<131.633 222.5>
VStem: 46.1016 85.5312<102.371 301.52 311.996 374.652 417.152 475.277> 317.414 81.0078<388.621 450.564>
LayerCount: 2
Fore
SplineSet
327.84375 175.41796875 m 1
 361 42 419.4921875 35.94921875 419.4921875 35.94921875 c 1
 419.4921875 -0.05078125 l 1
 365.9921875 -0.05078125 l 1
 321.4140625 2.76171875 255.8828125 104.80078125 255.8828125 104.80078125 c 1
 195.9609375 210.55078125 l 1
 195.9609375 310.53515625 l 1
 219.2734375 310.53515625 l 5
 320 310.53515625 317.4140625 388.62109375 317.4140625 388.62109375 c 1
 317.4140625 399.17578125 l 1
 317.4140625 476 223.2734375 475.27734375 223.2734375 475.27734375 c 1
 131.6328125 475.27734375 l 1
 131.6328125 415.71484375 l 1
 131.140625 410.72265625 l 1
 128.609375 415.22265625 l 1
 126.078125 408.68359375 l 1
 125.09375 388.64453125 l 1
 129.1015625 380.13671875 l 1
 131.6328125 374.65234375 l 1
 131.6328125 311.99609375 l 1
 127.625 311.50390625 l 1
 125.65625 307.49609375 l 1
 132.1953125 301.51953125 l 1
 132.1953125 100.51171875 l 2
 132.1953125 32.58984375 155.2578125 37.44140625 155.2578125 37.44140625 c 1
 155.2578125 -0.05078125 l 1
 20.578125 -0.05078125 l 1
 20.578125 38.45703125 l 1
 45.1875 38.45703125 46.1015625 102.37109375 46.1015625 102.37109375 c 1
 46.1015625 387.62109375 l 1
 48.0703125 397.11328125 l 1
 51.3046875 405.12890625 l 1
 78.09375 405.12890625 l 1
 82.1015625 410.61328125 l 1
 65.0859375 413.14453125 l 1
 49.0546875 417.15234375 l 1
 49.0546875 428.19140625 l 1
 43.5703125 428.19140625 l 1
 43.5703125 479.73046875 l 1
 39.5625 482.75390625 l 1
 39.5625 497.80078125 l 1
 20.5078125 517.34765625 l 1
 20.5078125 547.89453125 l 1
 20.5078125 552.39453125 l 1
 222.5 552.39453125 l 1
 222.5 552.39453125 398.421875 554 398.421875 391.16015625 c 0
 398.421875 257 274.6953125 254.48046875 274.6953125 254.48046875 c 1
 293.5 211 327.84375 175.41796875 327.84375 175.41796875 c 1
EndSplineSet
Validated: 33
EndChar

StartChar: Z
Encoding: 90 90 25
Width: 512
VWidth: 0
Flags: W
HStem: 0.0195312 80.2188<178.711 247.758 264.703 360.766> 473.176 79.1484<104.641 368.531>
VStem: 426.383 47.5859<79.9713 94.2695>
LayerCount: 2
Fore
SplineSet
473.96875 552.32421875 m 1
 473.96875 483.83203125 l 1
 178.7109375 80.23828125 l 5
 247.7578125 80.23828125 l 5
 251.34375 70.39453125 l 5
 254.578125 69.33984375 l 5
 254.578125 58.51171875 l 5
 256.96875 55.91015625 l 5
 259.640625 55.41796875 l 5
 258.1640625 51.26953125 l 5
 262.59375 51.76171875 l 5
 262.59375 59.00390625 l 5
 264.703125 64.69921875 l 5
 260.5546875 70.88671875 l 5
 258.4453125 78.62109375 l 5
 360.765625 78.62109375 l 5
 360.765625 78.62109375 426.3828125 73 426.3828125 94.26953125 c 5
 473.96875 114.26953125 l 5
 473.96875 0.01953125 l 1
 48.0859375 0.01953125 l 1
 48.0859375 0.01953125 48.0859375 0.01953125 38.03125 0.01953125 c 1
 38.03125 52.16796875 l 5
 38.03125 58.26953125 l 5
 42.390625 62.41796875 l 5
 368.53125 474.30078125 l 1
 104.640625 473.17578125 l 1
 104.640625 473.17578125 69 473 63.0859375 458.08984375 c 1
 38.03125 438.08984375 l 1
 38.03125 552.32421875 l 1
 473.96875 552.32421875 l 1
EndSplineSet
Validated: 33
EndChar

StartChar: backslash
Encoding: 92 92 26
Width: 300
VWidth: 0
Flags: W
HStem: 533.536 20G<37.9824 83.4043>
VStem: 37.9824 222.32
LayerCount: 2
Fore
SplineSet
185.373046875 52.1376953125 m 1
 185.373046875 52.1376953125 128.826171875 461.567382812 37.982421875 553.536132812 c 1
 37.982421875 553.536132812 124.341796875 518.098632812 172.013671875 483.083007812 c 1
 172.013671875 483.083007812 276.544921875 3.6923828125 260.302734375 0.2470703125 c 0
 257.982421875 -0.1748046875 185.373046875 52.1376953125 185.373046875 52.1376953125 c 1
EndSplineSet
Validated: 33
EndChar

StartChar: bracketright
Encoding: 93 93 27
Width: 312
VWidth: 0
Flags: W
HStem: -136.617 65.125<34.8281 198.375>
VStem: 198.375 78.7969<-71.4922 -26.9608>
LayerCount: 2
Fore
SplineSet
277.171875 -136.6171875 m 5
 34.828125 -136.6171875 l 5
 34.828125 -71.4921875 l 5
 198.375 -71.4921875 l 5
 198.375 -7.7890625 101.6953125 6.2265625 101.6953125 6.2265625 c 5
 239.7890625 47.640625 213.828125 487.5703125 213.828125 487.5703125 c 5
 277.171875 576 l 5
 277.171875 -136.6171875 l 5
EndSplineSet
Validated: 33
EndChar

StartChar: bracketleft
Encoding: 91 91 28
Width: 312
VWidth: 0
Flags: W
HStem: 510.875 65.125<113.625 277.172>
VStem: 34.8281 78.7969<466.344 510.875>
LayerCount: 2
Fore
SplineSet
34.828125 576 m 1
 277.171875 576 l 1
 277.171875 510.875 l 1
 113.625 510.875 l 1
 113.625 447.171875 210.3046875 433.15625 210.3046875 433.15625 c 1
 72.2109375 391.7421875 98.171875 -48.1875 98.171875 -48.1875 c 1
 34.828125 -136.6171875 l 1
 34.828125 576 l 1
EndSplineSet
Validated: 33
EndChar

StartChar: parenright
Encoding: 41 41 29
Width: 320
VWidth: 0
Flags: W
HStem: -133.875 65.875<29.8906 68.4916>
LayerCount: 2
Fore
SplineSet
29.890625 -68 m 5
 29.890625 -133.875 l 5
 270.109375 -133.875 l 5
 270.109375 -133.875 202.890625 -86.3671875 202.890625 -57.9609375 c 6
 202.890625 -56.1640625 l 5
 202.890625 -56.1640625 264.7109375 29.125 264.7109375 218.109375 c 5
 264.7109375 218.109375 268 453.125 70.3203125 576 c 5
 70.3203125 576 155.03125 430.4921875 163.1171875 308.21875 c 4
 163.1875 308.1484375 212.0703125 5.96875 29.890625 -68 c 5
EndSplineSet
Validated: 41
EndChar

StartChar: parenleft
Encoding: 40 40 30
Width: 320
VWidth: 0
Flags: W
HStem: 507.2 68.9688<196.352 291.906> 576.169 0<48.0938 127.592>
LayerCount: 2
Fore
SplineSet
48.09375 576.168945312 m 1x40
 291.90625 576.168945312 l 1
 291.90625 507.200195312 l 1
 196.3515625 507.200195312 l 1x80
 195.15625 493.911132812 l 1
 237.34375 460.989257812 l 1
 237.34375 460.989257812 46.591796875 128 246.9765625 -136.588867188 c 1
 246.9765625 -136.588867188 -28 126 113.765625 486.668945312 c 0
 113.802056932 486.761632567 127.591796875 562 48.09375 576.168945312 c 1x40
EndSplineSet
Validated: 33
EndChar

StartChar: dollar
Encoding: 36 36 31
Width: 324
VWidth: 0
Flags: W
HStem: -0.224609 21G<161.227 170.14> 313.057 20G<209.848 219.938> 531.025 20G<198.595 208.331>
VStem: 126.773 0.140625<224.494 249.385>
LayerCount: 2
Fore
SplineSet
96.6796875 255.220703125 m 2
 89.4375 223.259765625 l 1
 117.5625 191.548828125 l 1
 121.921875 195.908203125 l 1
 121.921875 90.197265625 l 1
 15.890625 308.009765625 l 1
 123.609375 549.478515625 l 1
 123.046875 525.431640625 l 1
 130.2890625 513.900390625 132.8203125 507.009765625 132.8203125 507.009765625 c 2
 126.3515625 516.361328125 119.5859375 508.837890625 119.5859375 508.837890625 c 1
 88.90625 396.259765625 l 1
 101.84375 388.947265625 107.71875 369.478515625 108.140625 368.494140625 c 1
 100.8984375 380.728515625 84.6015625 378.025390625 84.6015625 378.025390625 c 1
 74.3203125 327.501953125 l 2
 73.0546875 320.189453125 76.4296875 312.173828125 83.8828125 312.103515625 c 2
 103.0078125 311.892578125 l 1
 132.609375 315.900390625 101.390625 332.494140625 101.390625 332.494140625 c 1
 124.5234375 327.150390625 129.796875 304.298828125 129.796875 304.298828125 c 1
 131.90625 308.587890625 126.3515625 326.166015625 126.2109375 326.658203125 c 1
 135.984375 321.033203125 143.0859375 309.150390625 143.5078125 308.376953125 c 1
 123.328125 344.869140625 130.5703125 364.908203125 130.5703125 364.908203125 c 1
 132 380 161.4375 391.564453125 161.4375 391.564453125 c 1
 183 401 182.59375 415.103515625 182.59375 415.103515625 c 1
 181 432 161.4375 430.462890625 161.4375 430.462890625 c 1
 133.5234375 432.291015625 130.5703125 404.517578125 130.5703125 404.517578125 c 1
 130.5703125 404.517578125 124.984375 417.751953125 124.984375 418.525390625 c 0
 124.984375 419.298828125 129.34375 432.236328125 129.34375 432.236328125 c 1
 128.640625 444.587890625 l 1
 138.5859375 458.001953125 l 1
 133.5234375 481.837890625 144.3515625 491.189453125 144.3515625 491.189453125 c 2
 142.171875 472.416015625 154.296875 462.001953125 154.296875 462.001953125 c 1
 175.953125 454.759765625 189.84375 471.126953125 189.84375 471.126953125 c 1
 190.546875 466.064453125 187.6640625 458.001953125 183.375 455.892578125 c 0
 167.4140625 447.876953125 168.3046875 442.884765625 168.3046875 442.884765625 c 1
 200 436 198.4921875 410.400390625 198.4921875 410.400390625 c 1
 199.1953125 387.337890625 168.1875 375.736328125 161.5078125 372.853515625 c 0
 133.1015625 360.548828125 161.5078125 338.962890625 161.5078125 338.962890625 c 1
 172.8984375 325.251953125 179.71875 303.595703125 179.71875 303.595703125 c 1
 180.421875 317.306640625 196.3125 326.658203125 196.3125 326.658203125 c 2
 184.78125 307.884765625 191.953125 301.416015625 191.953125 301.416015625 c 1
 205.453125 330.244140625 219.9375 333.056640625 219.9375 333.056640625 c 1
 199.7578125 316.462890625 216.4921875 312.244140625 216.4921875 312.244140625 c 1
 235.6171875 312.244140625 l 2
 245.6015625 312.244140625 252.9140625 321.736328125 250.2421875 331.439453125 c 2
 239.1484375 372.736328125 l 2
 233.453125 385.533203125 212.6953125 370.173828125 212.203125 369.611328125 c 1
 222.6796875 390.916015625 231.1953125 399.142578125 231.1953125 399.142578125 c 1
 202.375 509.072265625 l 6
 198.015625 515.541015625 189.84375 505.603515625 189.84375 505.603515625 c 1
 189.84375 515.728515625 198.4921875 526.556640625 198.4921875 526.556640625 c 1
 199.0546875 551.025390625 l 1
 308.109375 305.900390625 l 1
 214.9453125 116.634765625 l 1
 210.5859375 128.869140625 l 1
 206.2265625 125.986328125 l 1
 200.4609375 133.931640625 l 1
 200.4609375 197.947265625 l 1
 208.40625 191.478515625 l 1
 214.171875 196.541015625 l 1
 214.875 202.306640625 l 1
 229.9921875 221.080078125 l 1
 226.40625 232.791015625 l 1
 234.3515625 236.376953125 l 1
 226.40625 247.205078125 l 1
 226.40625 255.150390625 l 1
 202.5703125 250.791015625 196.59375 223.861328125 196.59375 223.861328125 c 1
 196.8046875 247.978515625 l 1
 185.2734375 245.095703125 177.328125 226.322265625 177.328125 226.322265625 c 1
 183.796875 176.541015625 l 1
 163.3125 127.462890625 l 1
 173.2265625 98.634765625 l 1
 151.0078125 63.970703125 l 1
 161.71875 38.603515625 l 1
 183.7265625 50.259765625 l 1
 161.2265625 -0.224609375 l 1
 161.2265625 -0.224609375 132.046875 61.158203125 129.796875 63.970703125 c 0
 131.484375 65.376953125 148.4296875 98.634765625 148.4296875 98.634765625 c 1
 136.1953125 124.580078125 l 1
 151.296875 172.181640625 l 1
 151.2265625 183.009765625 l 2
 152.4921875 229.205078125 126.7734375 249.384765625 126.7734375 249.384765625 c 1
 126.9140625 224.494140625 l 1
 120.65625 254.236328125 97.453125 255.220703125 96.6796875 255.220703125 c 2
EndSplineSet
Validated: 33
EndChar

StartChar: exclam
Encoding: 33 33 32
Width: 160
VWidth: 0
Flags: W
HStem: 0.0332031 102.871<50.5 104.359>
VStem: 28.1484 112.281<427.429 547.609>
LayerCount: 2
Fore
SplineSet
50.5 102.904296875 m 1
 104.359375 102.904296875 l 1
 134.287109375 51.4677734375 l 1
 104.359375 0.033203125 l 1
 50.5 0.033203125 l 1
 19.5703125 52.4677734375 l 1
 50.5 102.904296875 l 1
45.4296875 547 m 6
 140.4296875 560 l 6
 140.4296875 560 132.4296875 531.59765625 131.830078125 525.25 c 6
 131.4296875 521 l 5
 105.546875 174.856445312 l 6
 104.653320312 162.905273438 96.064453125 153.469726562 84.505859375 150.563476562 c 6
 54.4296875 143 l 6
 54.4296875 143 55.5546875 148.158203125 54.4296875 163.342773438 c 6
 28.1484375 523.3046875 l 6
 26.31640625 548.033203125 45.4296875 547 45.4296875 547 c 6
EndSplineSet
Validated: 1
EndChar

StartChar: period
Encoding: 46 46 33
Width: 150
VWidth: 0
Flags: W
HStem: 0.0332031 97.8711<56.0703 99.9307>
VStem: 25.1416 104.717
LayerCount: 2
Fore
SplineSet
56.0703125 97.904296875 m 1
 99.9306640625 97.904296875 l 1
 129.858398438 51.4677734375 l 1
 99.9306640625 0.033203125 l 1
 56.0703125 0.033203125 l 1
 25.1416015625 52.4677734375 l 1
 56.0703125 97.904296875 l 1
EndSplineSet
Validated: 1
EndChar

StartChar: comma
Encoding: 44 44 34
Width: 150
VWidth: 0
Flags: W
HStem: -140 228.82
VStem: 31.0928 98.0459
LayerCount: 2
Fore
SplineSet
81.0537109375 88.8203125 m 1
 81.0537109375 88.8203125 129.138671875 65 129.138671875 13.9736328125 c 0
 129.138671875 -19.2197265625 83.29296875 -81.8525390625 83.29296875 -81.8525390625 c 2
 70.6689453125 -108.239257812 31.0927734375 -140 31.0927734375 -140 c 1
 95.0927734375 -21 36.9833984375 -0.12109375 36.9833984375 -0.12109375 c 1
 30.861328125 58.9814453125 l 1
 81.0537109375 88.8203125 l 1
EndSplineSet
Validated: 33
EndChar

StartChar: slash
Encoding: 47 47 35
Width: 322
VWidth: 0
Flags: W
HStem: 533.536 20G<247.469 292.891>
VStem: 30.5703 262.32
LayerCount: 2
Fore
SplineSet
125.5 52.1376953125 m 1
 125.5 52.1376953125 32.890625 -0.1748046875 30.5703125 0.2470703125 c 0
 14.328125 3.6923828125 138.859375 483.083007812 138.859375 483.083007812 c 1
 186.53125 518.098632812 292.890625 553.536132812 292.890625 553.536132812 c 1
 202.046875 461.567382812 125.5 52.1376953125 125.5 52.1376953125 c 1
EndSplineSet
Validated: 33
EndChar

StartChar: question
Encoding: 63 63 36
Width: 302
VWidth: 0
Flags: W
HStem: 0.0332031 102.871<66.4785 120.339> 487.504 67.5312<102.599 139.278>
VStem: 18.7471 264.008
LayerCount: 2
Fore
SplineSet
66.478515625 102.904296875 m 1
 120.338867188 102.904296875 l 1
 150.266601562 51.4677734375 l 1
 120.338867188 0.033203125 l 1
 66.478515625 0.033203125 l 1
 35.5498046875 52.4677734375 l 1
 66.478515625 102.904296875 l 1
151.372070312 555.32421875 m 1
 270.408203125 554 282.754882812 431.04296875 282.754882812 431.04296875 c 1
 289.408203125 348 228.408203125 305 159.208007812 283.48046875 c 0
 114.3046875 269.516601562 119.408203125 148 119.408203125 148 c 1
 71.408203125 135 68.1376953125 161.15234375 68.1376953125 161.15234375 c 1
 12.408203125 341 119.278320312 349.05078125 119.278320312 349.05078125 c 1
 216.408203125 363 203.090820312 423.71484375 203.090820312 423.71484375 c 1
 198.408203125 489 139.278320312 487.50390625 139.278320312 487.50390625 c 1
 69.408203125 487.50390625 40.3486328125 404.63671875 40.3486328125 404.63671875 c 1
 40.3486328125 404.63671875 18.7470703125 511.93359375 18.7470703125 514.53515625 c 0
 18.7470703125 517.13671875 102.598632812 555.03515625 102.598632812 555.03515625 c 1
 151.372070312 555.32421875 l 1
EndSplineSet
Validated: 33
EndChar

StartChar: asterisk
Encoding: 42 42 37
Width: 185
VWidth: 0
Flags: W
HStem: 410.534 162.712
VStem: 13.1797 156.393
LayerCount: 2
Fore
SplineSet
32.9296875 544.060546875 m 5
 32.9296875 544.060546875 57.09765625 544.5703125 64.943359375 538.873046875 c 4
 80.6796875 527.4453125 97.70703125 491.401367188 97.70703125 491.401367188 c 6
 102.60546875 484.307617188 95.154296875 471.489257812 95.154296875 471.489257812 c 5
 76.904296875 519.350585938 38.875 506.837890625 38.875 506.837890625 c 5
 28.8828125 521.693359375 l 5
 32.9296875 544.060546875 l 5
85.3125 488.229492188 m 1030
13.1796875 474.030273438 m 5
 13.1796875 474.030273438 28.7109375 492.552734375 38.1640625 494.70703125 c 4
 57.126953125 499.024414062 95.466796875 488.102539062 95.466796875 488.102539062 c 6
 104.03125 487.118164062 108.771484375 473.0703125 108.771484375 473.0703125 c 5
 60.732421875 490.8515625 45.107421875 453.994140625 45.107421875 453.994140625 c 5
 27.34765625 456.255859375 l 5
 13.1796875 474.030273438 l 5
89.69140625 476.686523438 m 1030
78.73046875 410.534179688 m 5
 78.73046875 410.534179688 66.095703125 431.141601562 67.056640625 440.790039062 c 4
 68.984375 460.142578125 90.087890625 497.309570312 90.087890625 497.309570312 c 6
 93.7421875 505.116210938 108.568359375 505.153320312 108.568359375 505.153320312 c 5
 76.451171875 465.24609375 107.869140625 434.447265625 107.869140625 434.447265625 c 5
 100.083984375 418.32421875 l 5
 78.73046875 410.534179688 l 5
99.080078125 488.208007812 m 1030
169.572265625 449.313476562 m 5
 169.572265625 449.313476562 148.96484375 436.6796875 139.31640625 437.641601562 c 4
 119.96484375 439.568359375 98.490234375 472.084960938 98.490234375 472.084960938 c 6
 90.68359375 475.73828125 90.646484375 490.564453125 90.646484375 490.564453125 c 5
 130.552734375 458.44921875 145.66015625 478.452148438 145.66015625 478.452148438 c 5
 161.783203125 470.666992188 l 5
 169.572265625 449.313476562 l 5
107.591796875 481.077148438 m 1030
171.8203125 528.669921875 m 5
 171.8203125 528.669921875 165.08203125 505.388671875 157.2734375 499.624023438 c 4
 141.6171875 488.060546875 103.41015625 482.788085938 103.41015625 482.788085938 c 6
 95.146484375 480.270507812 85.091796875 491.317382812 85.091796875 491.317382812 c 5
 136.4140625 494.149414062 135.80078125 534.362304688 135.80078125 534.362304688 c 5
 153.025390625 539.3828125 l 5
 171.8203125 528.669921875 l 5
110.193359375 573.24609375 m 5
 110.193359375 573.24609375 124.560546875 553.727539062 124.380859375 544.024414062 c 4
 124.021484375 524.563476562 104.07421875 495.6171875 104.07421875 495.6171875 c 6
 101.041015625 487.530273438 82.681640625 481.751953125 82.681640625 481.751953125 c 5
 111.681640625 524.190429688 82.880859375 547.006835938 82.880859375 547.006835938 c 5
 89.384765625 563.727539062 l 5
 110.193359375 573.24609375 l 5
EndSplineSet
Validated: 37
EndChar

StartChar: bar
Encoding: 124 124 38
Width: 144
VWidth: 0
Flags: W
VStem: 33 78<251.504 532.617> 47.4141 63.5859<-68.1328 233.653>
LayerCount: 2
Fore
SplineSet
47.4140625 -68.1328125 m 1x40
 33 553.2890625 l 1
 52.546875 572.484375 l 1
 111 532.6171875 l 1x80
 111 -140.484375 l 1
 63.3046875 -111.796875 l 1
 47.4140625 -68.1328125 l 1x40
EndSplineSet
Validated: 1
EndChar

StartChar: percent
Encoding: 37 37 39
Width: 720
VWidth: 0
HStem: 61.8779 52.8359<426.142 523.514> 249.651 51.2891<426.475 523.128> 276.331 52.9062<194.509 296.187> 466.175 49.2188<197.493 373.478> 531.604 20G<531.059 583.547>
VStem: 124.594 52.375<346.518 445.486> 313.391 50.2656<346.391 447.192> 353.992 55.3047<131.475 232.908> 539.719 53.3359<129.542 233.479>
LayerCount: 2
Fore
SplineSet
583.546875 551.604492188 m 1xbe80
 478.5703125 463.151367188 221.40625 10.4169921875 221.40625 10.4169921875 c 1
 221.40625 10.4169921875 150.7109375 -0.5595703125 148.4609375 0.1435546875 c 0
 132.921875 4.8544921875 445.0390625 468.760742188 445.0390625 468.760742188 c 2
 447.7109375 470.448242188 450.5234375 472.065429688 453.3359375 473.752929688 c 1
 444.7578125 471.081054688 439.90625 469.815429688 439.90625 469.815429688 c 2
 389.7734375 455.893554688 361.671875 464.823242188 340.4375 468.057617188 c 1
 354.8515625 452.659179688 356.90625 443.463867188 360.703125 422.229492188 c 0
 362.671875 413.791992188 363.65625 404.932617188 363.65625 395.862304688 c 0
 363.65625 329.838867188 310.1484375 276.331054688 244.125 276.331054688 c 0
 178.1015625 276.331054688 124.59375 329.838867188 124.59375 395.862304688 c 0
 124.59375 461.885742188 178.1015625 515.393554688 244.125 515.393554688 c 0
 249.890625 515.393554688 255.65625 514.971679688 261.2109375 514.198242188 c 0
 270.984375 512.932617188 280.3359375 510.541992188 289.125 507.166992188 c 0
 339.609375 492.260742188 503.8828125 528.190429688 557.8828125 541.268554688 c 0
 573.3515625 547.737304688 583.546875 551.604492188 583.546875 551.604492188 c 1xbe80
244.125 466.174804688 m 0
 206 466.174804688 176.96875 429 176.96875 395.862304688 c 0
 176.96875 365 200 329.237304688 244.828125 329.237304688 c 0
 291 329.237304688 313.390625 364 313.390625 396.706054688 c 0
 313.390625 432 286 466.174804688 244.125 466.174804688 c 0
473.5234375 300.940429688 m 0xdd80
 539.546875 300.940429688 593.0546875 247.432617188 593.0546875 181.409179688 c 0
 593.0546875 115.385742188 539.546875 61.8779296875 473.5234375 61.8779296875 c 0
 407.5 61.8779296875 353.9921875 115.385742188 353.9921875 181.409179688 c 0
 353.9921875 247.432617188 407.5 300.940429688 473.5234375 300.940429688 c 0xdd80
474.15625 114.713867188 m 0
 515 114.713867188 539.71875 143 539.71875 182.182617188 c 0
 539.71875 221 513 249.651367188 473.453125 249.651367188 c 0
 438 249.651367188 409.296875 221 409.296875 181.338867188 c 0
 409.296875 138 442 114.713867188 474.15625 114.713867188 c 0
EndSplineSet
Validated: 33
EndChar

StartChar: hyphen
Encoding: 45 45 40
Width: 440
VWidth: 0
Flags: W
HStem: 219.398 67.2812
LayerCount: 2
Fore
SplineSet
68.4560546875 225.8203125 m 5
 68.4560546875 225.8203125 49.0107421875 277.9765625 48.7998046875 279.8046875 c 4
 47.4638671875 292.6015625 381.760742188 286.6796875 381.760742188 286.6796875 c 5
 397.711914062 261 388.627929688 219.3984375 388.627929688 219.3984375 c 5
 301 243 68.4560546875 225.8203125 68.4560546875 225.8203125 c 5
EndSplineSet
Validated: 33
EndChar

StartChar: quotedbl
Encoding: 34 34 41
Width: 230
VWidth: 0
Flags: W
HStem: 366.4 191.056
VStem: 11.6895 206.621
LayerCount: 2
Fore
SplineSet
59.8427734375 557.456054688 m 1
 59.8427734375 557.456054688 98.310546875 530.400390625 98.310546875 489.579101562 c 0
 98.310546875 463.024414062 61.634765625 412.91796875 61.634765625 412.91796875 c 2
 51.53515625 391.80859375 19.8740234375 366.400390625 19.8740234375 366.400390625 c 1
 71.07421875 461.599609375 16.5869140625 478.302734375 16.5869140625 478.302734375 c 1
 11.689453125 533.584960938 l 1
 59.8427734375 557.456054688 l 1
179.842773438 557.456054688 m 1
 179.842773438 557.456054688 218.310546875 530.400390625 218.310546875 489.579101562 c 0
 218.310546875 463.024414062 181.634765625 412.91796875 181.634765625 412.91796875 c 2
 171.53515625 391.80859375 139.874023438 366.400390625 139.874023438 366.400390625 c 1
 191.07421875 461.599609375 136.586914062 478.302734375 136.586914062 478.302734375 c 1
 131.689453125 533.584960938 l 1
 179.842773438 557.456054688 l 1
EndSplineSet
Validated: 33
EndChar

StartChar: quotesingle
Encoding: 39 39 42
Width: 125
VWidth: 0
Flags: W
HStem: 345 218.82
VStem: 13.5928 98.0459
LayerCount: 2
Fore
SplineSet
63.5537109375 563.8203125 m 1
 63.5537109375 563.8203125 111.638671875 540 111.638671875 488.973632812 c 0
 111.638671875 455.780273438 78.79296875 410.147460938 78.79296875 410.147460938 c 2
 66.1689453125 383.760742188 13.5927734375 345 13.5927734375 345 c 1
 77.5927734375 464 19.4833984375 484.87890625 19.4833984375 484.87890625 c 1
 13.361328125 533.981445312 l 1
 63.5537109375 563.8203125 l 1
EndSplineSet
Validated: 33
EndChar

StartChar: colon
Encoding: 58 58 43
Width: 150
VWidth: 0
Flags: W
HStem: 0.0332031 102.871<48.5703 102.431> 217.033 102.871<48.5703 102.431>
VStem: 17.6416 114.717
LayerCount: 2
Fore
SplineSet
48.5703125 319.904296875 m 5
 102.430664062 319.904296875 l 5
 132.358398438 268.467773438 l 5
 102.430664062 217.033203125 l 5
 48.5703125 217.033203125 l 5
 17.6416015625 269.467773438 l 5
 48.5703125 319.904296875 l 5
48.5703125 102.904296875 m 5
 102.430664062 102.904296875 l 5
 132.358398438 51.4677734375 l 5
 102.430664062 0.033203125 l 5
 48.5703125 0.033203125 l 5
 17.6416015625 52.4677734375 l 5
 48.5703125 102.904296875 l 5
EndSplineSet
Validated: 1
EndChar

StartChar: semicolon
Encoding: 59 59 44
Width: 150
VWidth: 0
Flags: W
HStem: 217.033 102.871<48.5703 102.431>
VStem: 17.7686 114.59
LayerCount: 2
Fore
SplineSet
77.9609375 103.8203125 m 5
 77.9609375 103.8203125 126.045898438 70 126.045898438 18.9736328125 c 4
 126.045898438 -14.2197265625 80.2001953125 -76.8525390625 80.2001953125 -76.8525390625 c 6
 67.576171875 -103.239257812 28 -135 28 -135 c 5
 92 -16 23.890625 4.87890625 23.890625 4.87890625 c 5
 17.7685546875 73.9814453125 l 5
 77.9609375 103.8203125 l 5
48.5703125 319.904296875 m 1
 102.430664062 319.904296875 l 1
 132.358398438 268.467773438 l 1
 102.430664062 217.033203125 l 1
 48.5703125 217.033203125 l 1
 17.6416015625 269.467773438 l 1
 48.5703125 319.904296875 l 1
EndSplineSet
Validated: 33
EndChar

StartChar: one
Encoding: 49 49 45
Width: 215
VWidth: 0
Flags: W
HStem: 0.523438 56.1963<42.0254 75.1786 170.015 201.493> 465.336 45.5615<54.1475 81.1531>
VStem: 86.1973 72.5137<60.9108 463.999>
LayerCount: 2
Fore
SplineSet
37.8779296875 510.897460938 m 2
 39.708984375 510.897460938 l 2
 80.5869140625 510.897460938 95.734375 524.361328125 131.051757812 551.19140625 c 1
 158.7109375 551.19140625 l 1
 158.7109375 151.649414062 l 2
 158.7109375 107.2578125 170 56.7197265625 189.540039062 56.7197265625 c 2
 201.493164062 56.7197265625 l 1
 201.493164062 0.5234375 l 1
 42.025390625 0.5234375 l 1
 42.025390625 56.7197265625 l 1
 54.48828125 56.7197265625 l 2
 76 56.7197265625 86.197265625 107.2578125 86.197265625 151.649414062 c 2
 86.197265625 397.822265625 l 2
 86.197265625 442.797851562 82.1484375 465.3359375 54.1474609375 465.3359375 c 1
 54.1474609375 465.3359375 25.8779296875 464.165039062 25.8779296875 446.603515625 c 2
 25.8779296875 446.603515625 -8.7568359375 510.897460938 37.8779296875 510.897460938 c 2
EndSplineSet
Validated: 33
EndChar

StartChar: two
Encoding: 50 50 46
Width: 410
VWidth: 0
Flags: W
HStem: 0.834961 63.7568<169.13 283.843> 477.038 73.1416<204.606 269.569>
VStem: 48.3359 320.664
LayerCount: 2
Fore
SplineSet
63.4189453125 444.282226562 m 0
 82.607421875 508.715820312 125.360351562 550.1796875 211.334960938 550.1796875 c 0
 254.041015625 550.1796875 300.193359375 530.778320312 331 502 c 0
 375.665039062 460.275390625 376.189391586 379.333995079 369 338 c 0
 358.833007812 279.546875 294.83186125 207.415839708 285 196 c 2
 207.981445312 106.573242188 l 2
 174.75 70.3408203125 193.908203125 92.185546875 169.129882812 64.591796875 c 1
 225.83984375 64.591796875 l 2
 247.802734375 64.591796875 273.654296875 68.5322265625 284.35546875 76.41796875 c 0
 293.927734375 84.302734375 305.439453125 97.5703125 316.984375 124.321289062 c 1
 369.6640625 124.321289062 l 1
 347.522460938 0.8349609375 l 1
 48.3359375 0.8349609375 l 1
 49 60 l 1
 65.330078125 78.3017578125 81.7998046875 94.8037109375 133 146 c 0
 163.03515625 176.033203125 170.58625483 181.720413118 201 215 c 0
 215.923828125 231.330078125 241.273369463 262.315474678 249 274 c 0
 259.969726562 290.588867188 280 313 290 346 c 0
 299.919921875 378.735351562 300 424 274 451 c 0
 258.168945312 467.440429688 244 477.038085938 204.606445312 477.038085938 c 5
 204.606445312 477.038085938 142 476 119.182617188 386.537109375 c 5
 119.182617188 386.537109375 110.548828125 361.05078125 121.998046875 354.010742188 c 0
 128.569335938 350.162109375 41 369 63.4189453125 444.282226562 c 0
EndSplineSet
Validated: 33
EndChar

StartChar: three
Encoding: 51 51 47
Width: 420
VWidth: 0
Flags: W
LayerCount: 2
Fore
SplineSet
119.87109375 306.301757812 m 1
 140.396484375 316.565429688 278.036132812 374.85546875 275.24609375 424.674804688 c 0
 272.456054688 474.495117188 223.931640625 495.056640625 179.890625 473.036132812 c 0
 135.849609375 451.014648438 72.94140625 375.479492188 71.4462890625 362.227539062 c 0
 69.9521484375 348.975585938 43.248046875 420.887695312 43.248046875 451.776367188 c 1
 43.248046875 451.776367188 55.005859375 453.870117188 89.08203125 490.23828125 c 0
 132.42578125 536.272460938 189.021484375 550.91796875 234.556640625 550.91796875 c 0
 280.091796875 550.91796875 353.625976562 524.513671875 358.010742188 456.858398438 c 0
 362.39453125 389.202148438 286.868164062 337.490234375 286.868164062 337.490234375 c 1
 286.868164062 337.490234375 416.798828125 323.04296875 397.666992188 183.4453125 c 0
 378.536132812 43.8505859375 256.676757812 -6.552734375 161.819335938 0.8203125 c 0
 66.9619140625 8.193359375 31.98828125 32.5048828125 21.8251953125 42.669921875 c 0
 11.662109375 52.8330078125 69.5888671875 85.77734375 68.09375 116.565429688 c 1
 68.09375 116.565429688 117.1171875 67.34375 215.860351562 85.37890625 c 0
 265.978515625 94.544921875 323.045898438 149.622070312 323.045898438 199.840820312 c 0
 323.045898438 250.059570312 235.053710938 283.918945312 185.931640625 266.979492188 c 0
 117.379882812 243.366210938 119.87109375 306.301757812 119.87109375 306.301757812 c 1
EndSplineSet
Validated: 33
EndChar

StartChar: four
Encoding: 52 52 48
Width: 435
VWidth: 0
Flags: W
HStem: 0.0703125 38.3408<211.886 246.527 339.995 373.094>
VStem: 258.029 71.5146<229.045 399.442>
LayerCount: 2
Fore
SplineSet
398.126953125 152.947265625 m 0
 409.10546875 114.87890625 364.389648438 152.947265625 329.342773438 152.947265625 c 1
 329.342773438 152.947265625 323 39.4248046875 360.935546875 39.4248046875 c 0
 377.048828125 39.4248046875 375.4375 26.2548828125 375.4375 0.0703125 c 1
 206.524414062 0.0703125 l 1
 206.524414062 0.0703125 203.301757812 38.4111328125 221.4296875 38.4111328125 c 0
 239.557617188 38.4111328125 258.029296875 50.4248046875 258.029296875 152.947265625 c 1
 258.029296875 152.947265625 61.3720703125 152.947265625 37.201171875 152.947265625 c 0
 13.03125 152.947265625 16.052734375 167.249023438 22.0947265625 178.326171875 c 2
 22.0947265625 178.326171875 147.788085938 364.438476562 181.224609375 410.966796875 c 0
 237.62109375 489.520507812 263.927734375 533.732421875 281.955078125 545.91796875 c 0
 305.72265625 561.931640625 327.543945312 558.002929688 327.543945312 558.002929688 c 1
 327.543945312 450.243164062 329.543945312 274.099609375 329.543945312 241.873046875 c 0
 329.543945312 209.646484375 342.63671875 207.631835938 376.87890625 269.065429688 c 1
 417.162109375 269.065429688 l 1
 417.162109375 269.065429688 387.151367188 191.015625 398.126953125 152.947265625 c 0
258.029296875 218.10546875 m 1
 258.029296875 399.442382812 l 1
 140.471679688 218.10546875 l 2
 140.471679688 219.515625 258.029296875 218.10546875 258.029296875 218.10546875 c 1
EndSplineSet
Validated: 37
EndChar

StartChar: five
Encoding: 53 53 49
Width: 452
VWidth: 0
Flags: W
HStem: 466.766 77.125<124.687 411.671>
VStem: 322.607 93.4658<130.225 245.923>
LayerCount: 2
Fore
SplineSet
37.77734375 117.919921875 m 1
 135 72 322.607421875 62 322.607421875 193.44140625 c 0
 322.607421875 322 101.73828125 248.890625 101.73828125 248.890625 c 5
 71.662109375 248.890625 54.203125 273.986328125 54.203125 273.986328125 c 5
 56.1552734375 373.58984375 71.759765625 543.890625 124.686523438 543.890625 c 0
 149.390625 543.890625 241.181640625 543.20703125 304.362304688 543.20703125 c 0
 367.541992188 543.20703125 359.631835938 551.01953125 370.176757812 551.01953125 c 0
 380.723632812 551.01953125 431.990234375 551.01953125 431.990234375 551.01953125 c 1
 431.990234375 551.01953125 411.190429688 460.90625 389.708007812 460.22265625 c 0
 368.224609375 459.637695312 208.9375 466.765625 177.689453125 466.765625 c 0
 146.44140625 466.765625 140.043945312 336.786132812 140.043945312 336.786132812 c 1
 172.549804688 357 263.549804688 347 270.555664062 345.89453125 c 0
 334.216796875 335.849609375 416.073242188 285 416.073242188 196.118164062 c 0
 416.073242188 36.4532412012 269.891601562 8.04296875 240.302734375 4.236328125 c 0
 137.770507812 -8.849609375 22.5439453125 8.1416015625 20.201171875 30.40625 c 0
 17.8564453125 52.669921875 37.77734375 117.919921875 37.77734375 117.919921875 c 1
EndSplineSet
Validated: 33
EndChar

StartChar: six
Encoding: 54 54 50
Width: 370
VWidth: 0
Flags: W
HStem: 0.898438 21G<74.75 268.771>
LayerCount: 2
Fore
SplineSet
349.904296875 237.325195312 m 0
 370 137 357.609375 0.8984375 179.93359375 0.8984375 c 0
 -30.43359375 0.8984375 6.31266552296 269.522148608 44.9013671875 397.46875 c 0
 90 547 208.816753246 544.611573794 227.739257812 544.440429688 c 0
 387 543 323.37109375 403.0625 323.37109375 403.0625 c 1
 323.37109375 403.0625 282.66015625 505.745117188 171 449 c 0
 110 418 105.65625 320.151367188 105.65625 320.151367188 c 1
 244 414 335.444044053 309.516134817 349.904296875 237.325195312 c 0
286.0703125 156.588867188 m 0
 297 286 175 311 100.37890625 216.60546875 c 1
 100.37890625 216.60546875 105.134765625 116.0703125 140.196289062 90.580078125 c 0
 175.163085938 65.08984375 280.254087937 87.7228351612 286.0703125 156.588867188 c 0
EndSplineSet
Validated: 33
EndChar

StartChar: seven
Encoding: 55 55 51
Width: 365
VWidth: 0
Flags: W
HStem: 482.321 68.4893<74.9113 248.186> 539.205 20G<28.5295 66.9893>
VStem: 103.693 82.4219<1.03418 165.974>
LayerCount: 2
Fore
SplineSet
16.3095703125 463.909179688 m 2xa0
 31.775390625 559.205078125 l 1
 61.5322265625 559.205078125 l 1x60
 72.4462890625 553.608398438 90.26171875 550.810546875 115.16796875 550.810546875 c 2
 349.155273438 550.810546875 l 1
 349.155273438 510.771484375 l 1
 340.759765625 498.458007812 330.3125 479.895507812 317.719726562 455.083007812 c 0
 293.932617188 408.443359375 251.412109375 323.4609375 231.357421875 261.522460938 c 0
 201.787109375 170.202148438 186.67578125 70.62109375 186.115234375 1.0341796875 c 1
 103.693359375 1.0341796875 l 1
 103.693359375 16.892578125 l 2
 103.693359375 64.0908203125 123.995117188 180.077148438 148.09375 252.831054688 c 0
 184.916015625 364 213.858398438 430.737304688 251.916015625 487.73046875 c 2
 248.185546875 482.321289062 l 1
 122.723632812 482.321289062 l 2
 100.896484375 482.321289062 83.1728515625 479.616210938 74.498046875 469.354492188 c 0
 53.6025390625 444.35546875 59.3505859375 436.110351562 79.8720703125 423.051757812 c 1
 79.8720703125 423.051757812 9.5 421.186523438 16.3095703125 463.909179688 c 2xa0
EndSplineSet
Validated: 33
EndChar

StartChar: nine
Encoding: 57 57 52
Width: 408
VWidth: 0
Flags: W
LayerCount: 2
Fore
SplineSet
79.6025390625 0.2646484375 m 0
 -44.1003177544 0.578236215181 34.685546875 34.2412109375 23.6640625 75.44140625 c 0
 15.3212890625 106.856445312 61.4658203125 110.8828125 69.705078125 103.259765625 c 0
 77.9453125 95.6376953125 95.9189453125 59.3779296875 169.940429688 92.2421875 c 0
 223.067382812 115.830078125 276.985351562 237.877929688 276.985351562 237.877929688 c 1
 114 159 23.64453125 258.685546875 17.5751953125 316.147460938 c 0
 6.3271484375 422.650390625 79.37109375 532.1171875 177.920898438 541.6328125 c 0
 306 554 396 444 342.595703125 209.717773438 c 0
 298.0234375 14.181640625 184 0 79.6025390625 0.2646484375 c 0
104.193359375 359.807617188 m 0
 98.1952783294 275.992974685 211.400390625 280.120117188 281.955078125 320.290039062 c 1
 281.955078125 320.290039062 283.09765625 435.245117188 221.587890625 459.625 c 0
 150 488 108 413 104.193359375 359.807617188 c 0
EndSplineSet
Validated: 33
EndChar

StartChar: eight
Encoding: 56 56 53
Width: 422
VWidth: 0
Flags: W
HStem: 0.320312 21G<186.964 236.127> 484.729 66.915<142.003 276.127>
VStem: 17.8223 83.2607<115.134 212.189> 39.5723 75.5156<385.485 459.429> 311.084 68.5537<370.721 451.831> 315.583 78.5947<102.48 212.872>
LayerCount: 2
Fore
SplineSet
121.87890625 290.830078125 m 1xe4
 86.7177734375 314.865234375 77.341796875 323.499023438 65.9208984375 338.6953125 c 0
 51.021484375 358.26171875 39.572265625 381.807617188 39.572265625 407.333007812 c 0
 39.572265625 450.337890625 57.84765625 485.696289062 94.3984375 513.504882812 c 0
 128.068359375 538.932617188 167.397460938 551.64453125 212.489257812 551.64453125 c 0
 254.600585938 551.64453125 291.9453125 540.421875 324.422851562 517.875976562 c 0
 361.8671875 492.748046875 379.637695312 459.674804688 379.637695312 418.655273438 c 0xd8
 379.637695312 368.59765625 364 327 294.596679688 298.93359375 c 1
 367 259 394.177734375 222.59765625 394.177734375 155.258789062 c 0
 394.177734375 106.989257812 375.375 68.353515625 337.631835938 39.3525390625 c 0
 303.666015625 13.330078125 261.454101562 0.3203125 210.80078125 0.3203125 c 0
 163.127929688 0.3203125 122.008789062 12.3369140625 87.4453125 36.2734375 c 0
 47.6181640625 63.7841796875 17.822265625 100.235351562 17.822265625 145.525390625 c 0
 17.822265625 190.616210938 39.14453125 237.6953125 81.5546875 266.89453125 c 0
 92.380859375 274.641601562 105.787109375 282.586914062 121.87890625 290.830078125 c 1xe4
190.905273438 262.759765625 m 1
 144.423828125 241.405273438 101.083007812 197.072265625 101.083007812 170.752929688 c 0
 101.083007812 138.573242188 111.21484375 125.165039062 131.375 106.790039062 c 0
 150.942382812 87.7216796875 182.09765625 73.84765625 226.791015625 78.21875 c 0
 254.205078125 80.8984375 269.434570312 85.7802734375 292.4765625 100.578125 c 0
 312.439453125 113.390625 315.583007812 153.5078125 315.583007812 170.98828125 c 0xe4
 315.583007812 201.08203125 298.370117188 215.98046875 243.943359375 241.704101562 c 2
 190.905273438 262.759765625 l 1
230.995117188 329.89453125 m 1
 271.119140625 347.772460938 311.083984375 386.7734375 311.083984375 404.252929688 c 0
 311.083984375 430.573242188 302.044921875 441.598632812 284.068359375 457.290039062 c 0
 266.08984375 472.982421875 233.943359375 484.729492188 207.622070312 484.729492188 c 0
 185.970703125 484.729492188 157.198242188 474.87109375 141.407226562 463.151367188 c 0
 123.829101562 450.537109375 115.087890625 432.163085938 115.087890625 422.131835938 c 0xd8
 115.087890625 406.736328125 127.702148438 389.825195312 152.829101562 373.436523438 c 0
 157.497070312 370.259765625 180.73828125 352.837890625 222.651367188 333.171875 c 2
 230.995117188 329.89453125 l 1
EndSplineSet
Validated: 33
EndChar

StartChar: asciitilde
Encoding: 126 126 54
Width: 648
VWidth: 0
Flags: W
LayerCount: 2
Fore
SplineSet
564.75 312.9296875 m 0
 396.84375 216.390625 396 173 275.296875 234.5859375 c 4
 161.813476562 292.48828125 82.4765625 230.5234375 83.25 230.5234375 c 4
 84.0234375 230.5234375 83.25 289.875 83.25 289.875 c 1
 83.25 289.875 150.084960938 353.900390625 245.296875 315.453125 c 0
 343 276 378.2109375 242.828125 564.75 312.9296875 c 0
EndSplineSet
Validated: 37
EndChar

StartChar: numbersign
Encoding: 35 35 56
Width: 515
VWidth: 0
Flags: W
HStem: 129.928 67.7373<40.9742 90.5273 173.462 291.268 373.452 469.973> 320.819 67.1074<40.9837 121.064 211.374 321.599 411.248 484.235>
VStem: 134.294 77.0801<387.927 421.21>
LayerCount: 2
Fore
SplineSet
382.407226562 524.090820312 m 1
 453.756835938 531.732421875 l 1
 453.756835938 531.732421875 435.353515625 495.857421875 432.83203125 487.51953125 c 2
 431.145507812 481.934570312 l 1
 411.248046875 387.325195312 l 1
 449.420898438 386.99609375 484.260742188 386.6796875 484.260742188 386.6796875 c 1
 500.211914062 361 491.127929688 309.3984375 491.127929688 309.3984375 c 1
 472.627929688 314.380859375 431.875 317.545898438 394.8671875 319.439453125 c 1
 373.452148438 197.6171875 l 1
 432.208984375 197.215820312 474.260742188 196.6796875 474.260742188 196.6796875 c 1
 490.211914062 171 471.127929688 119.3984375 471.127929688 119.3984375 c 1
 446.662109375 125.98828125 410.767578125 129.3984375 357.315429688 130.891601562 c 1
 332.596679688 13.361328125 l 2
 328.165039062 -2.404296875 324.108398438 -12.7158203125 307.840820312 -13.48046875 c 2
 265.512695312 -15.470703125 l 1
 265.512695312 -15.470703125 268.415039062 -8.8671875 271.018554688 11.775390625 c 2
 291.268243721 131.857395056 l 1
 244.950883622 131.868668947 197.809570312 131.004882812 157.112304688 129.927734375 c 1
 132.596679688 13.361328125 l 2
 128.165039062 -2.404296875 114.108398438 -12.7158203125 97.8408203125 -13.48046875 c 2
 65.5126953125 -15.470703125 l 1
 65.5126953125 -15.470703125 68.4150390625 -8.8671875 71.0185546875 11.775390625 c 2
 90.52734375 127.462890625 l 1
 65.9296875 126.530273438 40.9560546875 125.8203125 40.9560546875 125.8203125 c 2
 40.9560546875 125.8203125 21.5107421875 187.9765625 21.2998046875 189.8046875 c 0
 20.9638671875 193.022460938 60.0654296875 195.056640625 103.821289062 196.298828125 c 1
 121.064453125 318.549804688 l 1
 78.86328125 317.142578125 40.9560546875 315.8203125 40.9560546875 315.8203125 c 2
 40.9560546875 315.8203125 21.5107421875 377.9765625 21.2998046875 379.8046875 c 0
 20.8908600682 383.721946485 74.11328125 385.884765625 134.293945312 387.000976562 c 1
 152.848632812 497.033203125 l 2
 157.087890625 530.6484375 182.407226562 524.090820312 182.407226562 524.090820312 c 1
 253.756835938 531.732421875 l 1
 253.756835938 531.732421875 235.353515625 495.857421875 232.83203125 487.51953125 c 2
 231.145507812 481.934570312 l 1
 211.374023438 387.926757812 l 1
 252.3984375 388.12109375 295.215515353 388.061483822 334.443866467 387.891713087 c 1
 352.848632812 497.033203125 l 2
 357.087890625 530.6484375 382.407226562 524.090820312 382.407226562 524.090820312 c 1
195.157226562 320.819335938 m 1
 173.461914062 197.665039062 l 1
 215.233398438 198.053710938 260.92578125 198.108398438 304.107421875 197.997070312 c 1
 321.598632812 321.716796875 l 1
 279.612304688 322.110351562 235.575195312 321.638671875 195.157226562 320.819335938 c 1
EndSplineSet
Validated: 33
EndChar

StartChar: braceleft
Encoding: 123 123 57
Width: 210
VWidth: 0
Flags: W
VStem: 21.8193 166.258
LayerCount: 2
Fore
SplineSet
188.077148438 469.172851562 m 1
 189.459960938 472 176.459960938 480 176.459960938 480 c 0
 173.77734375 481.341796875 145.772460938 373.360351562 145.772460938 373.360351562 c 0
 131.545898438 318.399414062 l 1
 148.459960938 299 148.967773438 275.821289062 149.600585938 274.274414062 c 1
 140.459960938 299 122.256835938 290.204101562 122.256835938 290.204101562 c 1
 98.9521484375 220.219726562 l 2
 97.2646484375 208.758789062 128.499023438 147.508789062 138.342773438 147.368164062 c 1
 138.850585938 83.2978515625 l 1
 165.975585938 23.7275390625 l 1
 186.670898438 38.4775390625 l 1
 166.670898438 -135.327148438 l 1
 21.8193359375 235.383789062 l 1
 176.780273438 575.719726562 l 1
 188.077148438 469.172851562 l 1
EndSplineSet
Validated: 37
EndChar

StartChar: braceright
Encoding: 125 125 58
Width: 210
VWidth: 0
Flags: W
VStem: 21.9229 11.6172<476.801 480>
LayerCount: 2
Fore
SplineSet
21.9228515625 469.172851562 m 1
 20.5400390625 472 33.5400390625 480 33.5400390625 480 c 0
 36.22265625 481.341796875 64.2275390625 373.360351562 64.2275390625 373.360351562 c 0
 78.4541015625 318.399414062 l 1
 61.5400390625 299 61.0322265625 275.821289062 60.3994140625 274.274414062 c 1
 69.5400390625 299 87.7431640625 290.204101562 87.7431640625 290.204101562 c 1
 111.047851562 220.219726562 l 2
 112.735351562 208.758789062 81.5009765625 147.508789062 71.6572265625 147.368164062 c 1
 71.1494140625 83.2978515625 l 1
 44.0244140625 23.7275390625 l 1
 23.3291015625 38.4775390625 l 1
 43.3291015625 -135.327148438 l 1
 188.180664062 235.383789062 l 1
 33.2197265625 575.719726562 l 1
 21.9228515625 469.172851562 l 1
EndSplineSet
Validated: 37
EndChar

StartChar: underscore
Encoding: 95 95 59
Width: 741
VWidth: 0
Flags: W
HStem: -89.9189 88.1328
LayerCount: 2
Fore
SplineSet
102.59765625 -89.9189453125 m 5
 102.59765625 -89.9189453125 12.03515625 -36.8720703125 11.68359375 -33.3564453125 c 0
 8.58984375 -9.3798828125 729.92578125 -1.7861328125 729.92578125 -1.7861328125 c 1
 684.92578125 -75.8251953125 684.92578125 -90.8251953125 684.92578125 -90.8251953125 c 5
 354 -56 102.59765625 -89.9189453125 102.59765625 -89.9189453125 c 5
EndSplineSet
Validated: 33
EndChar

StartChar: asciicircum
Encoding: 94 94 60
Width: 210
VWidth: 0
Flags: W
HStem: 435.545 135.804
VStem: 26.2891 157.393
LayerCount: 2
Fore
SplineSet
135.114257812 448.080078125 m 1
 135.114257812 448.080078125 129.986328125 467.799804688 108.557617188 494.309570312 c 1
 85.5341796875 473.2421875 79.87109375 451.428710938 79.87109375 451.428710938 c 1
 79.87109375 451.428710938 26.9912109375 439.595703125 26.2890625 439.978515625 c 0
 21.7919921875 442.434570312 95.83203125 555.370117188 107.759765625 571.348632812 c 0
 108.174804688 572.178710938 108.58984375 573.0390625 109.036132812 573.96484375 c 2
 109.036132812 573.96484375 188.689453125 437.905273438 183.681640625 435.544921875 c 0
 182.948242188 435.194335938 135.114257812 448.080078125 135.114257812 448.080078125 c 1
EndSplineSet
Validated: 33
EndChar

StartChar: less
Encoding: 60 60 61
Width: 345
VWidth: 0
Flags: W
LayerCount: 2
Fore
SplineSet
301.337890625 161.6953125 m 1
 301.337890625 161.6953125 197 203 138.556640625 250.2421875 c 1
 185 301 293.955078125 343.484375 293.955078125 343.484375 c 1
 293.955078125 343.484375 320.041015625 452.109375 319.197265625 453.65625 c 0
 313.783203125 463.5703125 64.806640625 278.296875 29.580078125 252 c 0
 27.751953125 251.0859375 25.853515625 250.171875 23.814453125 249.1875 c 2
 23.814453125 249.1875 323.767578125 51.5390625 328.970703125 62.578125 c 0
 329.744140625 64.1953125 301.337890625 161.6953125 301.337890625 161.6953125 c 1
EndSplineSet
Validated: 41
EndChar

StartChar: greater
Encoding: 62 62 62
Width: 345
VWidth: 0
Flags: W
VStem: 19.9297 305.156
LayerCount: 2
Fore
SplineSet
47.5625 161.6953125 m 1
 47.5625 161.6953125 151.900390625 203 210.34375 250.2421875 c 5
 163.900390625 301 54.9453125 343.484375 54.9453125 343.484375 c 1
 54.9453125 343.484375 28.859375 452.109375 29.703125 453.65625 c 0
 35.1171875 463.5703125 284.09375 278.296875 319.3203125 252 c 0
 321.1484375 251.0859375 323.046875 250.171875 325.0859375 249.1875 c 2
 325.0859375 249.1875 25.1328125 51.5390625 19.9296875 62.578125 c 0
 19.15625 64.1953125 47.5625 161.6953125 47.5625 161.6953125 c 1
EndSplineSet
Validated: 33
EndChar

StartChar: equal
Encoding: 61 61 63
Width: 490
VWidth: 0
Flags: W
HStem: 137.734 167.609
LayerCount: 2
Fore
SplineSet
380.088867188 209.40625 m 1
 407 210 414.698242188 198.265625 414.748046875 198.3359375 c 1
 422 156 414.587890625 137.734375 414.587890625 137.734375 c 5
 253 179 19.3828125 139.78125 19.3828125 139.78125 c 5
 19.3828125 139.78125 18.5400390625 191.2890625 18.2939453125 194.03125 c 0
 16.5712890625 213.2265625 334 208 334 208 c 2
 334.147460938 207.859375 331.880859375 207.857421875 332.084960938 207.8515625 c 0
 363 207 380.088867188 209.40625 380.088867188 209.40625 c 1
430.088867188 286.40625 m 1
 448.694335938 269.953125 454.698242188 265.265625 454.748046875 265.3359375 c 1
 410 277 414.587890625 234.734375 414.587890625 234.734375 c 1
 253 276 19.3828125 236.78125 19.3828125 236.78125 c 1
 19.3828125 236.78125 18.5400390625 288.2890625 18.2939453125 291.03125 c 0
 16.5712890625 310.2265625 381.641601562 305.34375 381.641601562 305.34375 c 2
 381.7890625 305.203125 381.880859375 304.857421875 382.084960938 304.8515625 c 0
 413 304 430.088867188 286.40625 430.088867188 286.40625 c 1
EndSplineSet
Validated: 37
EndChar

StartChar: plus
Encoding: 43 43 64
Width: 400
VWidth: 0
Flags: W
HStem: 241.914 58<68.4934 172.624 236.622 357.295>
VStem: 172.624 61.6338<105.635 111.239 111.29 241.914 299.933 404.51>
LayerCount: 2
Fore
SplineSet
68.4560546875 235.8203125 m 2
 68.4560546875 235.8203125 29.0107421875 289.9765625 28.7998046875 291.8046875 c 0
 28.2157286151 297.399521457 101.787109375 299.416015625 173.526367188 299.9140625 c 1
 172.599609375 357.870117188 168.8203125 404.543945312 168.8203125 404.543945312 c 1
 168.8203125 404.543945312 230.9765625 443.989257812 232.8046875 444.200195312 c 0
 238.646484375 444.809570312 238.50390625 375.477539062 236.622070312 299.932617188 c 1
 299.629882812 299.603515625 361.760742188 298.6796875 361.760742188 298.6796875 c 0
 377.711914062 273 358.627929688 229.3984375 358.627929688 229.3984375 c 1
 330.569335938 238.431640625 278.106445312 242.0703125 234.2578125 242.936523438 c 1
 232.072265625 181.483398438 229.6796875 111.239257812 229.6796875 111.239257812 c 0
 204 95.2880859375 153.3984375 104.372070312 153.3984375 104.372070312 c 1
 165.110351562 130.732421875 170.53125 195.184570312 172.624023438 241.9140625 c 1
 119.641601562 239.825195312 68.4560546875 235.8203125 68.4560546875 235.8203125 c 2
EndSplineSet
Validated: 33
EndChar

StartChar: ampersand
Encoding: 38 38 65
Width: 508
VWidth: 0
Flags: W
HStem: 490.864 65.3994<200.621 335.812>
VStem: 414.86 31.6953<502.437 523.52>
LayerCount: 2
Fore
SplineSet
446.555664062 525.375976562 m 0
 508 444 470.66796875 359.271484375 407.811523438 315.423828125 c 0
 345.171875 271.50390625 321.059570312 232.3359375 353.962890625 172.791992188 c 0
 386.8671875 113.248046875 371.747070312 15.0400390625 267.780273438 -1.16015625 c 0
 243.01171875 -5.0478515625 218.451171875 -3.8955078125 182.307617188 3.16015625 c 1
 161.715820312 -43.064453125 153.580078125 -59.7119140625 147.747070312 -92.400390625 c 0
 139.611328125 -137.759765625 142.5 -194.280273438 133.067382812 -188.015625 c 0
 123.635742188 -181.751953125 88.84375 -137.904296875 85.67578125 -128.471679688 c 0
 82.580078125 -119.040039062 87.259765625 -77.912109375 107.635742188 -19.9521484375 c 0
 111.595703125 -8.576171875 118.219726562 6.111328125 126.571289062 22.744140625 c 1
 73.0029296875 45.064453125 27.5 82.50390625 19.8671875 138.303710938 c 0
 4.171875 252.711914062 135.451171875 335.82421875 135.451171875 335.82421875 c 1
 124.939453125 350.440429688 106.771484375 382.224609375 103.53125 400.872070312 c 0
 100.291992188 419.51953125 111.66796875 475.984375 127.076171875 493.83984375 c 0
 142.483398438 511.624023438 180.571289062 556.263671875 256.02734375 556.263671875 c 0
 308.731445312 556.263671875 313.483398438 550.888671875 332.923828125 543.616210938 c 0
 352.36328125 536.34375 373 514 385.01171875 491.631835938 c 0
 391.801397756 478.988128813 406.076171875 454.095703125 384.979492188 445.16796875 c 0
 363.883789062 436.240234375 351.931640625 457.599609375 337.315429688 468.111328125 c 0
 322.771484375 478.624023438 311.1796875 490.864257812 262.5078125 490.864257812 c 4
 213.8359375 490.864257812 171.515625 455.17578125 171.515625 412.984375 c 0
 171.515625 370.791992188 256.603515625 309.303710938 278.491210938 307.6484375 c 1
 170 292 100.4609375 246.580078125 96.0673828125 173.80859375 c 0
 93 123 118.947265625 101.16015625 154.731445312 82.728515625 c 1
 186.412109375 137.448242188 232.627929688 204.400390625 253.435546875 233.919921875 c 0
 291.091796875 287.200195312 367.916015625 362.440429688 403.916015625 395.34375 c 0
 439.916015625 428.248046875 418.02734375 495.639648438 414.860351562 501.904296875 c 0
 411.69140625 508.16796875 428.244684051 549.626769699 446.555664062 525.375976562 c 0
221.1875 65.6640625 m 1
 317 48 307.147460938 183.303710938 281.66015625 149.248046875 c 0
 261.643554688 122.536132812 235.01171875 88.1279296875 221.1875 65.6640625 c 1
EndSplineSet
Validated: 33
EndChar

StartChar: grave
Encoding: 96 96 66
Width: 176
VWidth: 0
Flags: W
VStem: 33.875 118.25
LayerCount: 2
Fore
SplineSet
38.228515625 556.203125 m 5
 38.228515625 556.203125 66.052734375 572.413085938 96.44921875 553.655273438 c 0
 116.22265625 541.452148438 136.677734375 491.116210938 136.677734375 491.116210938 c 2
 147.755859375 473.895507812 152.125 438.64453125 152.125 438.64453125 c 1
 104.765625 520.516601562 67.291015625 487.620117188 67.291015625 487.620117188 c 1
 33.875 509.376953125 l 5
 38.228515625 556.203125 l 5
EndSplineSet
Validated: 33
EndChar

StartChar: sterling
Encoding: 163 163 67
Width: 324
VWidth: 0
Flags: W
HStem: -0.224609 21G<161.227 170.14> 313.057 20G<209.848 219.938>
VStem: 126.773 0.140625<224.494 249.385>
LayerCount: 2
Fore
SplineSet
96.6796875 255.220703125 m 2
 89.4375 223.259765625 l 1
 117.5625 191.548828125 l 1
 121.921875 195.908203125 l 1
 121.921875 90.197265625 l 1
 15.890625 308.009765625 l 1
 123.609375 549.478515625 l 1
 123.046875 525.431640625 l 1
 130.2890625 513.900390625 132.8203125 507.009765625 132.8203125 507.009765625 c 2
 126.3515625 516.361328125 119.5859375 508.837890625 119.5859375 508.837890625 c 1
 88.90625 396.259765625 l 1
 101.84375 388.947265625 107.71875 369.478515625 108.140625 368.494140625 c 1
 100.8984375 380.728515625 84.6015625 378.025390625 84.6015625 378.025390625 c 1
 74.3203125 327.501953125 l 2
 73.0546875 320.189453125 76.4296875 312.173828125 83.8828125 312.103515625 c 2
 103.0078125 311.892578125 l 1
 132.609375 315.900390625 101.390625 332.494140625 101.390625 332.494140625 c 1
 124.5234375 327.150390625 129.796875 304.298828125 129.796875 304.298828125 c 1
 131.90625 308.587890625 126.3515625 326.166015625 126.2109375 326.658203125 c 1
 135.984375 321.033203125 143.0859375 309.150390625 143.5078125 308.376953125 c 1
 123.328125 344.869140625 130.5703125 364.908203125 130.5703125 364.908203125 c 1
 132 380 161.4375 391.564453125 161.4375 391.564453125 c 1
 183 401 182.59375 415.103515625 182.59375 415.103515625 c 1
 181 432 161.4375 430.462890625 161.4375 430.462890625 c 1
 133.5234375 432.291015625 130.5703125 404.517578125 130.5703125 404.517578125 c 1
 130.5703125 404.517578125 124.984375 417.751953125 124.984375 418.525390625 c 0
 124.984375 419.298828125 129.34375 432.236328125 129.34375 432.236328125 c 1
 128.640625 444.587890625 l 1
 138.5859375 458.001953125 l 1
 133.5234375 481.837890625 144.3515625 491.189453125 144.3515625 491.189453125 c 2
 142.171875 472.416015625 154.296875 462.001953125 154.296875 462.001953125 c 1
 175.953125 454.759765625 189.84375 471.126953125 189.84375 471.126953125 c 1
 190.546875 466.064453125 187.6640625 458.001953125 183.375 455.892578125 c 0
 167.4140625 447.876953125 168.3046875 442.884765625 168.3046875 442.884765625 c 1
 200 436 198.4921875 410.400390625 198.4921875 410.400390625 c 1
 199.1953125 387.337890625 168.1875 375.736328125 161.5078125 372.853515625 c 0
 133.1015625 360.548828125 161.5078125 338.962890625 161.5078125 338.962890625 c 1
 172.8984375 325.251953125 179.71875 303.595703125 179.71875 303.595703125 c 1
 180.421875 317.306640625 196.3125 326.658203125 196.3125 326.658203125 c 2
 184.78125 307.884765625 191.953125 301.416015625 191.953125 301.416015625 c 1
 205.453125 330.244140625 219.9375 333.056640625 219.9375 333.056640625 c 1
 199.7578125 316.462890625 216.4921875 312.244140625 216.4921875 312.244140625 c 1
 235.6171875 312.244140625 l 2
 245.6015625 312.244140625 252.9140625 321.736328125 250.2421875 331.439453125 c 2
 239.1484375 372.736328125 l 2
 233.453125 385.533203125 212.6953125 370.173828125 212.203125 369.611328125 c 1
 222.6796875 390.916015625 231.1953125 399.142578125 231.1953125 399.142578125 c 1
 202.375 509.072265625 l 6
 198.015625 515.541015625 189.84375 505.603515625 189.84375 505.603515625 c 1
 189.84375 515.728515625 198.4921875 526.556640625 198.4921875 526.556640625 c 1
 199.0546875 551.025390625 l 1
 308.109375 305.900390625 l 1
 214.9453125 116.634765625 l 1
 210.5859375 128.869140625 l 1
 206.2265625 125.986328125 l 1
 200.4609375 133.931640625 l 1
 200.4609375 197.947265625 l 1
 208.40625 191.478515625 l 1
 214.171875 196.541015625 l 1
 214.875 202.306640625 l 1
 229.9921875 221.080078125 l 1
 226.40625 232.791015625 l 1
 234.3515625 236.376953125 l 1
 226.40625 247.205078125 l 1
 226.40625 255.150390625 l 1
 202.5703125 250.791015625 196.59375 223.861328125 196.59375 223.861328125 c 1
 196.8046875 247.978515625 l 1
 185.2734375 245.095703125 177.328125 226.322265625 177.328125 226.322265625 c 1
 183.796875 176.541015625 l 1
 163.3125 127.462890625 l 1
 173.2265625 98.634765625 l 1
 151.0078125 63.970703125 l 1
 161.71875 38.603515625 l 1
 183.7265625 50.259765625 l 1
 161.2265625 -0.224609375 l 1
 161.2265625 -0.224609375 132.046875 61.158203125 129.796875 63.970703125 c 0
 131.484375 65.376953125 148.4296875 98.634765625 148.4296875 98.634765625 c 1
 136.1953125 124.580078125 l 1
 151.296875 172.181640625 l 1
 151.2265625 183.009765625 l 2
 152.4921875 229.205078125 126.7734375 249.384765625 126.7734375 249.384765625 c 1
 126.9140625 224.494140625 l 1
 120.65625 254.236328125 97.453125 255.220703125 96.6796875 255.220703125 c 2
EndSplineSet
Validated: 33
EndChar

StartChar: yen
Encoding: 165 165 68
Width: 324
VWidth: 0
Flags: W
HStem: -0.224609 21G<161.227 170.14> 313.057 20G<209.848 219.938> 531.025 20G<198.595 208.331>
VStem: 126.773 0.140625<224.494 249.385>
LayerCount: 2
Fore
SplineSet
96.6796875 255.220703125 m 2
 89.4375 223.259765625 l 1
 117.5625 191.548828125 l 1
 121.921875 195.908203125 l 1
 121.921875 90.197265625 l 1
 15.890625 308.009765625 l 1
 123.609375 549.478515625 l 1
 123.046875 525.431640625 l 1
 130.2890625 513.900390625 132.8203125 507.009765625 132.8203125 507.009765625 c 2
 126.3515625 516.361328125 119.5859375 508.837890625 119.5859375 508.837890625 c 1
 88.90625 396.259765625 l 1
 101.84375 388.947265625 107.71875 369.478515625 108.140625 368.494140625 c 1
 100.8984375 380.728515625 84.6015625 378.025390625 84.6015625 378.025390625 c 1
 74.3203125 327.501953125 l 2
 73.0546875 320.189453125 76.4296875 312.173828125 83.8828125 312.103515625 c 2
 103.0078125 311.892578125 l 1
 132.609375 315.900390625 101.390625 332.494140625 101.390625 332.494140625 c 1
 124.5234375 327.150390625 129.796875 304.298828125 129.796875 304.298828125 c 1
 131.90625 308.587890625 126.3515625 326.166015625 126.2109375 326.658203125 c 1
 135.984375 321.033203125 143.0859375 309.150390625 143.5078125 308.376953125 c 1
 123.328125 344.869140625 130.5703125 364.908203125 130.5703125 364.908203125 c 1
 132 380 161.4375 391.564453125 161.4375 391.564453125 c 1
 183 401 182.59375 415.103515625 182.59375 415.103515625 c 1
 181 432 161.4375 430.462890625 161.4375 430.462890625 c 1
 133.5234375 432.291015625 130.5703125 404.517578125 130.5703125 404.517578125 c 1
 130.5703125 404.517578125 124.984375 417.751953125 124.984375 418.525390625 c 0
 124.984375 419.298828125 129.34375 432.236328125 129.34375 432.236328125 c 1
 128.640625 444.587890625 l 1
 138.5859375 458.001953125 l 1
 133.5234375 481.837890625 144.3515625 491.189453125 144.3515625 491.189453125 c 2
 142.171875 472.416015625 154.296875 462.001953125 154.296875 462.001953125 c 1
 175.953125 454.759765625 189.84375 471.126953125 189.84375 471.126953125 c 1
 190.546875 466.064453125 187.6640625 458.001953125 183.375 455.892578125 c 0
 167.4140625 447.876953125 168.3046875 442.884765625 168.3046875 442.884765625 c 1
 200 436 198.4921875 410.400390625 198.4921875 410.400390625 c 1
 199.1953125 387.337890625 168.1875 375.736328125 161.5078125 372.853515625 c 0
 133.1015625 360.548828125 161.5078125 338.962890625 161.5078125 338.962890625 c 1
 172.8984375 325.251953125 179.71875 303.595703125 179.71875 303.595703125 c 1
 180.421875 317.306640625 196.3125 326.658203125 196.3125 326.658203125 c 2
 184.78125 307.884765625 191.953125 301.416015625 191.953125 301.416015625 c 1
 205.453125 330.244140625 219.9375 333.056640625 219.9375 333.056640625 c 1
 199.7578125 316.462890625 216.4921875 312.244140625 216.4921875 312.244140625 c 1
 235.6171875 312.244140625 l 2
 245.6015625 312.244140625 252.9140625 321.736328125 250.2421875 331.439453125 c 2
 239.1484375 372.736328125 l 2
 233.453125 385.533203125 212.6953125 370.173828125 212.203125 369.611328125 c 1
 222.6796875 390.916015625 231.1953125 399.142578125 231.1953125 399.142578125 c 1
 202.375 509.072265625 l 2
 198.015625 515.541015625 189.84375 505.603515625 189.84375 505.603515625 c 1
 189.84375 515.728515625 198.4921875 526.556640625 198.4921875 526.556640625 c 1
 199.0546875 551.025390625 l 1
 308.109375 305.900390625 l 1
 214.9453125 116.634765625 l 1
 210.5859375 128.869140625 l 1
 206.2265625 125.986328125 l 1
 200.4609375 133.931640625 l 1
 200.4609375 197.947265625 l 1
 208.40625 191.478515625 l 1
 214.171875 196.541015625 l 1
 214.875 202.306640625 l 1
 229.9921875 221.080078125 l 1
 226.40625 232.791015625 l 1
 234.3515625 236.376953125 l 1
 226.40625 247.205078125 l 1
 226.40625 255.150390625 l 1
 202.5703125 250.791015625 196.59375 223.861328125 196.59375 223.861328125 c 1
 196.8046875 247.978515625 l 1
 185.2734375 245.095703125 177.328125 226.322265625 177.328125 226.322265625 c 1
 183.796875 176.541015625 l 1
 163.3125 127.462890625 l 1
 173.2265625 98.634765625 l 1
 151.0078125 63.970703125 l 1
 161.71875 38.603515625 l 1
 183.7265625 50.259765625 l 1
 161.2265625 -0.224609375 l 1
 161.2265625 -0.224609375 132.046875 61.158203125 129.796875 63.970703125 c 0
 131.484375 65.376953125 148.4296875 98.634765625 148.4296875 98.634765625 c 1
 136.1953125 124.580078125 l 1
 151.296875 172.181640625 l 1
 151.2265625 183.009765625 l 2
 152.4921875 229.205078125 126.7734375 249.384765625 126.7734375 249.384765625 c 1
 126.9140625 224.494140625 l 1
 120.65625 254.236328125 97.453125 255.220703125 96.6796875 255.220703125 c 2
EndSplineSet
Validated: 33
EndChar

StartChar: cent
Encoding: 162 162 69
Width: 324
VWidth: 0
Flags: W
HStem: -0.224609 21G<161.227 170.14> 313.057 20G<209.848 219.938> 531.025 20G<198.595 208.331>
VStem: 126.773 0.140625<224.494 249.385>
LayerCount: 2
Fore
SplineSet
96.6796875 255.220703125 m 2
 89.4375 223.259765625 l 1
 117.5625 191.548828125 l 1
 121.921875 195.908203125 l 1
 121.921875 90.197265625 l 1
 15.890625 308.009765625 l 1
 123.609375 549.478515625 l 1
 123.046875 525.431640625 l 1
 130.2890625 513.900390625 132.8203125 507.009765625 132.8203125 507.009765625 c 2
 126.3515625 516.361328125 119.5859375 508.837890625 119.5859375 508.837890625 c 1
 88.90625 396.259765625 l 1
 101.84375 388.947265625 107.71875 369.478515625 108.140625 368.494140625 c 1
 100.8984375 380.728515625 84.6015625 378.025390625 84.6015625 378.025390625 c 1
 74.3203125 327.501953125 l 2
 73.0546875 320.189453125 76.4296875 312.173828125 83.8828125 312.103515625 c 2
 103.0078125 311.892578125 l 1
 132.609375 315.900390625 101.390625 332.494140625 101.390625 332.494140625 c 1
 124.5234375 327.150390625 129.796875 304.298828125 129.796875 304.298828125 c 1
 131.90625 308.587890625 126.3515625 326.166015625 126.2109375 326.658203125 c 1
 135.984375 321.033203125 143.0859375 309.150390625 143.5078125 308.376953125 c 1
 123.328125 344.869140625 130.5703125 364.908203125 130.5703125 364.908203125 c 1
 132 380 161.4375 391.564453125 161.4375 391.564453125 c 1
 183 401 182.59375 415.103515625 182.59375 415.103515625 c 1
 181 432 161.4375 430.462890625 161.4375 430.462890625 c 1
 133.5234375 432.291015625 130.5703125 404.517578125 130.5703125 404.517578125 c 1
 130.5703125 404.517578125 124.984375 417.751953125 124.984375 418.525390625 c 0
 124.984375 419.298828125 129.34375 432.236328125 129.34375 432.236328125 c 1
 128.640625 444.587890625 l 1
 138.5859375 458.001953125 l 1
 133.5234375 481.837890625 144.3515625 491.189453125 144.3515625 491.189453125 c 2
 142.171875 472.416015625 154.296875 462.001953125 154.296875 462.001953125 c 1
 175.953125 454.759765625 189.84375 471.126953125 189.84375 471.126953125 c 1
 190.546875 466.064453125 187.6640625 458.001953125 183.375 455.892578125 c 0
 167.4140625 447.876953125 168.3046875 442.884765625 168.3046875 442.884765625 c 1
 200 436 198.4921875 410.400390625 198.4921875 410.400390625 c 1
 199.1953125 387.337890625 168.1875 375.736328125 161.5078125 372.853515625 c 0
 133.1015625 360.548828125 161.5078125 338.962890625 161.5078125 338.962890625 c 1
 172.8984375 325.251953125 179.71875 303.595703125 179.71875 303.595703125 c 1
 180.421875 317.306640625 196.3125 326.658203125 196.3125 326.658203125 c 2
 184.78125 307.884765625 191.953125 301.416015625 191.953125 301.416015625 c 1
 205.453125 330.244140625 219.9375 333.056640625 219.9375 333.056640625 c 1
 199.7578125 316.462890625 216.4921875 312.244140625 216.4921875 312.244140625 c 1
 235.6171875 312.244140625 l 2
 245.6015625 312.244140625 252.9140625 321.736328125 250.2421875 331.439453125 c 2
 239.1484375 372.736328125 l 2
 233.453125 385.533203125 212.6953125 370.173828125 212.203125 369.611328125 c 1
 222.6796875 390.916015625 231.1953125 399.142578125 231.1953125 399.142578125 c 1
 202.375 509.072265625 l 6
 198.015625 515.541015625 189.84375 505.603515625 189.84375 505.603515625 c 1
 189.84375 515.728515625 198.4921875 526.556640625 198.4921875 526.556640625 c 1
 199.0546875 551.025390625 l 1
 308.109375 305.900390625 l 1
 214.9453125 116.634765625 l 1
 210.5859375 128.869140625 l 1
 206.2265625 125.986328125 l 1
 200.4609375 133.931640625 l 1
 200.4609375 197.947265625 l 1
 208.40625 191.478515625 l 1
 214.171875 196.541015625 l 1
 214.875 202.306640625 l 1
 229.9921875 221.080078125 l 1
 226.40625 232.791015625 l 1
 234.3515625 236.376953125 l 1
 226.40625 247.205078125 l 1
 226.40625 255.150390625 l 1
 202.5703125 250.791015625 196.59375 223.861328125 196.59375 223.861328125 c 1
 196.8046875 247.978515625 l 1
 185.2734375 245.095703125 177.328125 226.322265625 177.328125 226.322265625 c 1
 183.796875 176.541015625 l 1
 163.3125 127.462890625 l 1
 173.2265625 98.634765625 l 1
 151.0078125 63.970703125 l 1
 161.71875 38.603515625 l 1
 183.7265625 50.259765625 l 1
 161.2265625 -0.224609375 l 1
 161.2265625 -0.224609375 132.046875 61.158203125 129.796875 63.970703125 c 0
 131.484375 65.376953125 148.4296875 98.634765625 148.4296875 98.634765625 c 1
 136.1953125 124.580078125 l 1
 151.296875 172.181640625 l 1
 151.2265625 183.009765625 l 2
 152.4921875 229.205078125 126.7734375 249.384765625 126.7734375 249.384765625 c 1
 126.9140625 224.494140625 l 1
 120.65625 254.236328125 97.453125 255.220703125 96.6796875 255.220703125 c 2
EndSplineSet
Validated: 33
EndChar

StartChar: zero
Encoding: 48 48 70
Width: 422
VWidth: 0
Flags: W
HStem: 1.0957 548.887<47.7021 349.871>
LayerCount: 2
Fore
SplineSet
396.624023438 360.19921875 m 0
 415.602539062 291.6015625 408.090820312 1.095703125 208.2265625 1.095703125 c 0
 8.3623046875 1.095703125 18.54296875 241.98046875 18.54296875 287.251953125 c 0
 18.54296875 332.522460938 47.7021484375 549.982421875 206.841796875 549.982421875 c 0
 349.87109375 549.982421875 377.646484375 428.798828125 396.624023438 360.19921875 c 0
300.069335938 130.9765625 m 0
 339 234 332 331 294.056640625 424.6796875 c 0
 265.238208809 495.830522092 140.10546875 498.505859375 113.89453125 404.614257812 c 0
 95.3857421875 338.313476562 78 202 120.22265625 122.955078125 c 0
 158.780996502 50.7701124324 271.915189653 56.4713620369 300.069335938 130.9765625 c 0
EndSplineSet
Validated: 33
EndChar

StartChar: a
Encoding: 97 97 71
Width: 350
VWidth: 0
Flags: W
HStem: 0.112305 21G<164.515 211.666 234.851 327.351>
VStem: 236.046 66.4453<93.0342 173.956>
LayerCount: 2
Fore
SplineSet
325.733398438 29.9404296875 m 1
 327.350585938 26.9169921875 l 1
 327.350585938 0.1123046875 l 1
 240.967773438 0.1123046875 l 1
 234.850585938 9.9404296875 l 1
 235.131835938 29.5966796875 l 1
 164.514648438 -0.3564453125 l 1
 164.514648438 -0.3564453125 78.2255859375 -31.7392578125 33.6474609375 32.3857421875 c 1
 33.6474609375 32.3857421875 4.4677734375 66.9091796875 41.1708984375 153.041992188 c 0
 50.5927734375 175.260742188 146.655273438 217.229492188 146.655273438 217.229492188 c 1
 236.045898438 232.698242188 l 1
 236.045898438 232.698242188 219 320 105.514648438 238.081054688 c 1
 85.1943359375 220.291992188 l 1
 64.1083984375 217.174804688 l 1
 63.6865234375 295.159179688 l 1
 63.6865234375 295.159179688 208.834960938 389.713867188 290.256835938 280.659179688 c 1
 290.256835938 280.659179688 304 268 302.491210938 196.846679688 c 0
 301.188476562 135.407226562 302.491210938 62.2841796875 302.491210938 62.2841796875 c 1
 302.491210938 62.2841796875 304.274414062 38.18359375 320.069335938 33.3154296875 c 0
 324.336914062 32 325.733398438 29.9404296875 325.733398438 29.9404296875 c 1
235.116210938 93.0341796875 m 1
 235.045898438 93.0341796875 l 1
 236.045898438 173.956054688 l 1
 178.670898438 173.604492188 171.233398438 149.502929688 171.233398438 149.502929688 c 1
 129.467773438 174.956054688 102.936523438 116.588867188 102.936523438 116.588867188 c 1
 80.3369140625 20 180.381835938 70.2607421875 180.381835938 70.2607421875 c 1
 235.116210938 93.0341796875 l 1
EndSplineSet
Validated: 33
EndChar

StartChar: b
Encoding: 98 98 72
Width: 350
VWidth: 0
Flags: W
HStem: -7.83008 66.0703<118.868 240.853> 277.928 68.75<118.311 235.343>
VStem: 15.8398 66.7266<98.1921 240.615 314.162 366.295 387.67 482.779> 268.012 65.8594<87.0075 245.241>
LayerCount: 2
Fore
SplineSet
180.88671875 346.677734375 m 0
 245.100585938 346.677734375 333.87109375 298 333.87109375 175.083984375 c 0
 333.87109375 47 257.39453125 -7.830078125 190.87890625 -7.830078125 c 0
 74.51171875 -7.830078125 15.83984375 42.935546875 15.83984375 42.935546875 c 1
 15.83984375 83.294921875 l 1
 15.83984375 482.779296875 l 1
 15.83984375 482.779296875 14 514 -3.87109375 524.294921875 c 1
 80.24609375 550.029296875 l 1
 101.05859375 550.099609375 l 1
 101.05859375 550.099609375 82.56640625 541.873046875 82.56640625 508.826171875 c 2
 82.56640625 387.669921875 l 1
 77.22265625 383.169921875 l 1
 76.66015625 379.021484375 l 1
 70.75390625 379.021484375 l 1
 69.34765625 375.998046875 l 1
 69.06640625 372.623046875 l 1
 66.81640625 374.521484375 l 1
 67.09765625 368.896484375 l 1
 71.03515625 368.896484375 l 1
 74.12890625 366.294921875 l 1
 77.50390625 371.568359375 l 1
 81.72265625 374.169921875 l 1
 81.72265625 314.162109375 l 1
 107.03515625 338.701171875 145.66015625 346.677734375 180.88671875 346.677734375 c 0
176.88671875 58.240234375 m 0
 252 58.240234375 268.01171875 109 268.01171875 171.083984375 c 0
 268.01171875 221 244 277.927734375 178.29296875 277.927734375 c 0
 114 277.927734375 84.55078125 223 84.55078125 174.458984375 c 0
 84.55078125 115 112 58.240234375 176.88671875 58.240234375 c 0
EndSplineSet
Validated: 1
EndChar

StartChar: c
Encoding: 99 99 73
Width: 325
VWidth: 0
Flags: W
HStem: 0.300781 332.117
VStem: 19.7314 72.1562<94.3246 170.105>
LayerCount: 2
Fore
SplineSet
169.145507812 64.52734375 m 1
 169.145507812 64.52734375 242 57 288.434570312 149.30078125 c 1
 303.129882812 153.51953125 l 1
 305.129882812 71.79296875 l 1
 305.129882812 71.79296875 262.028320312 2.90234375 169.004882812 0.30078125 c 1
 169.004882812 0.30078125 22.3330078125 -6.51953125 19.7314453125 170.10546875 c 1
 19.7314453125 170.10546875 17.6220703125 338.18359375 173.786132812 332.41796875 c 0
 233.762695312 332.41796875 273.700195312 300.95703125 273.700195312 300.95703125 c 1
 295.286132812 271.49609375 305.270507812 282.53515625 305.270507812 282.53515625 c 1
 293.176757812 251.52734375 253.239257812 218.39453125 253.239257812 218.39453125 c 1
 240.418945312 225.10546875 l 1
 240.418945312 275 173.856445312 270.88671875 173.856445312 270.88671875 c 1
 173.856445312 270.88671875 91.8876953125 269 91.8876953125 164.76171875 c 0
 91.8876953125 64 169.145507812 64.52734375 169.145507812 64.52734375 c 1
EndSplineSet
Validated: 33
EndChar

StartChar: d
Encoding: 100 100 74
Width: 350
VWidth: 0
Flags: W
HStem: -7.83008 66.0703<108.147 230.132> 277.928 68.75<113.657 230.689>
VStem: 15.1289 65.8594<87.0075 245.241> 266.434 66.7266<98.1921 240.615>
LayerCount: 2
Fore
SplineSet
168.11328125 346.677734375 m 4
 103.899414062 346.677734375 15.12890625 298 15.12890625 175.083984375 c 4
 15.12890625 47 91.60546875 -7.830078125 158.12109375 -7.830078125 c 4
 274.48828125 -7.830078125 333.16015625 42.935546875 333.16015625 42.935546875 c 5
 333.16015625 83.294921875 l 5
 333.16015625 482.779296875 l 5
 333.16015625 482.779296875 335 514 352.87109375 524.294921875 c 5
 268.75390625 550.029296875 l 5
 247.94140625 550.099609375 l 5
 247.94140625 550.099609375 266.43359375 541.873046875 266.43359375 508.826171875 c 6
 266.43359375 387.669921875 l 5
 271.77734375 383.169921875 l 5
 272.33984375 379.021484375 l 5
 278.24609375 379.021484375 l 5
 279.65234375 375.998046875 l 5
 279.93359375 372.623046875 l 5
 282.18359375 374.521484375 l 5
 281.90234375 368.896484375 l 5
 277.96484375 368.896484375 l 5
 274.87109375 366.294921875 l 5
 271.49609375 371.568359375 l 5
 267.27734375 374.169921875 l 5
 267.27734375 314.162109375 l 5
 241.96484375 338.701171875 203.33984375 346.677734375 168.11328125 346.677734375 c 4
172.11328125 58.240234375 m 4
 97 58.240234375 80.98828125 109 80.98828125 171.083984375 c 4
 80.98828125 221 105 277.927734375 170.70703125 277.927734375 c 4
 235 277.927734375 264.44921875 223 264.44921875 174.458984375 c 4
 264.44921875 115 237 58.240234375 172.11328125 58.240234375 c 4
EndSplineSet
Validated: 9
EndChar

StartChar: j
Encoding: 106 106 75
Width: 178
VWidth: 0
Flags: W
HStem: -183.646 67.375<-0.580078 33.5615> 336.464 2.03906<148.356 159.967>
VStem: 47.2598 82.8711<398.07 445.931> 53.7012 69.2109<1.87793 266.292>
LayerCount: 2
Fore
SplineSet
47.259765625 398.0703125 m 1xe0
 47.259765625 445.930664062 l 1
 88.6962890625 469.858398438 l 1
 130.130859375 445.930664062 l 1
 130.130859375 398.0703125 l 1
 88.6962890625 374.141601562 l 1
 47.259765625 398.0703125 l 1xe0
159.966796875 338.502929688 m 1
 149.419921875 336.463867188 l 1
 142.388671875 330.276367188 123.544921875 309.674804688 122.912109375 265.588867188 c 2
 122.912109375 235.424804688 l 1
 122.912109375 -10.1923828125 l 2
 122.912109375 -116 83.966796875 -183.645507812 1.248046875 -183.645507812 c 0
 -158.033203125 -183.645507812 -99.439453125 -33.0986328125 -99.439453125 -33.0986328125 c 1
 -95.072265625 -22.2158203125 l 1
 -74.408203125 -6.0908203125 l 1
 -75 -124 -0.580078125 -116.270507812 -0.580078125 -116.270507812 c 1
 59 -116.270507812 53.701171875 1.8779296875 53.701171875 1.8779296875 c 1
 53.701171875 266.291992188 l 1xd0
 53.701171875 266.291992188 52 307 29.419921875 327.041992188 c 1
 62.279296875 332.666992188 l 1
 143.373046875 338.502929688 l 1
 151.810546875 338.502929688 l 1
 152.021484375 338.502929688 l 1
 159.966796875 338.502929688 l 1
EndSplineSet
Validated: 33
EndChar

StartChar: g
Encoding: 103 103 76
Width: 382
VWidth: 0
Flags: W
HStem: -197.965 57.4824<107.925 277.828> 35.9473 61.2422<120.615 236.032> 274.004 58.3027<122.557 233.371>
VStem: 22.4287 75.4561<-125.583 -111.421 116.266 233.618> 257.099 70.2012<118.758 250.586> 298.173 67.79<-121.544 -63.3681>
LayerCount: 2
Fore
SplineSet
373.571289062 323.365234375 m 1xf4
 373.571289062 323.365234375 350.271484375 263.883789062 327.916992188 261.18359375 c 1
 293.396484375 271.18359375 l 1
 318.123046875 245.7421875 327.299804688 222.659179688 327.299804688 185.09765625 c 0xf8
 327.299804688 92 271.106445312 35.947265625 189.36328125 35.947265625 c 0
 164.947265625 35.947265625 140.904296875 35.6484375 120.609375 45.7294921875 c 1
 119.360351562 42.7890625 118.736328125 33.1484375 118.736328125 30.80859375 c 0
 118.736328125 27.328125 120.672851562 24.02734375 124.544921875 20.787109375 c 0
 128.477539062 17.5478515625 137.034179688 12.267578125 148.3359375 10.826171875 c 0
 154.893554688 10.046875 171.379882812 9.3271484375 197.73046875 8.7265625 c 0
 246.189453125 7.7060546875 279.600585938 2.2666015625 293.962890625 0.46484375 c 0
 315.819335938 -2.173828125 333.31640625 -12 346.35546875 -27.474609375 c 0
 357.49609375 -40.6962890625 365.962890625 -58.7958984375 365.962890625 -75.357421875 c 0
 365.962890625 -98.2197265625 352.474609375 -148.640625 327.55859375 -168.682617188 c 0
 290.83984375 -198.203125 231.005859375 -197.96484375 171.931640625 -197.96484375 c 0
 126.533203125 -197.96484375 88.19140625 -192.14453125 56.9052734375 -174.563476562 c 0
 39.232421875 -164.422851562 22.4287109375 -136.922851562 22.4287109375 -126.000976562 c 0
 22.4287109375 -121.141601562 23.30078125 -116.9140625 23.30078125 -111.420898438 c 0
 23.30078125 -111.420898438 24.31640625 -94 42.029296875 -68.1572265625 c 0
 43.3994140625 -66.158203125 53.6416015625 -55.4375 75.998046875 -35.39453125 c 1
 37.28125 -20.0947265625 31.4287109375 31.7080078125 31.4287109375 31.7080078125 c 1
 53.9716796875 31.16796875 59.0146484375 44.7880859375 74.001953125 54.1494140625 c 1
 52 69 21.4287109375 122 21.4287109375 185.157226562 c 0
 21.4287109375 289 97.6220703125 332.306640625 179.36328125 332.306640625 c 0
 209.774414062 332.306640625 238.063476562 323.486328125 261.54296875 308.365234375 c 1
 356.024414062 332.125976562 l 1
 373.571289062 323.365234375 l 1xf4
139.418945312 -42.85546875 m 1
 128.365234375 -53.1767578125 113.061523438 -67.658203125 107.377929688 -76.5986328125 c 0
 101.6953125 -85.5380859375 97.884765625 -93.69921875 97.884765625 -101.19921875 c 0
 97.884765625 -110.919921875 98.6826171875 -117.049804688 111.31640625 -126 c 0
 127.265625 -137.298828125 149.879882812 -140.482421875 194.342773438 -140.482421875 c 0
 236.680664062 -140.482421875 266.084960938 -128.657226562 276.01171875 -122.220703125 c 0
 293.31640625 -111 298.172851562 -101.69921875 298.172851562 -87.1181640625 c 0xf4
 298.172851562 -84 301 -69 260.188476562 -57.6767578125 c 0
 247.641667064 -54.1956193823 239.31640625 -51 217.501953125 -49.81640625 c 0
 164.673828125 -46.9501953125 167.89453125 -46.275390625 139.418945312 -42.85546875 c 1
47.21875 219.26171875 m 1
 47.21875 219.26171875 50.966796875 231.681640625 64.9541015625 234.202148438 c 1
 55.8994140625 234.202148438 l 1
 50.4033203125 229.28125 l 1
 46.4697265625 229.641601562 l 1
 44.0966796875 225.500976562 l 1
 37.7900390625 225.141601562 l 1
 47.21875 219.26171875 l 1
182.42578125 97.189453125 m 0
 236 97.189453125 257.098632812 137 257.098632812 181.116210938 c 0xf8
 257.098632812 233 233 274.00390625 180.737304688 274.00390625 c 0
 117 274.00390625 96.376953125 225 96.376953125 195.09765625 c 0
 96.376953125 182 90.9375 136.399414062 116.026367188 116.490234375 c 1
 116.275390625 116.669921875 l 2
 116.275390625 116.669921875 116.151367188 116.55078125 116.026367188 116.490234375 c 1
 142 100 166.190429688 97.189453125 182.42578125 97.189453125 c 0
EndSplineSet
Validated: 37
EndChar

StartChar: h
Encoding: 104 104 77
Width: 315
VWidth: 0
Flags: W
HStem: 0.320312 26.2578<104.268 115.504 289.369 303.988> 286.031 63.1562<107.224 206.603>
VStem: 26.3711 64.7422<101.531 229.062 323.805 387.25 407.148 488.75> 219.668 66.5312<54.4219 215.789>
LayerCount: 2
Fore
SplineSet
286.19921875 54.421875 m 5
 286.19921875 54.421875 287.46484375 26.5078125 303.98828125 26.578125 c 5
 303.98828125 0.3203125 l 5
 202.30078125 0.3203125 l 5
 202.30078125 26.71875 l 5
 202.30078125 26.71875 218.82421875 26.859375 219.66796875 54.7734375 c 6
 219.66796875 70.2421875 l 5
 219.66796875 215.7890625 l 5
 219.66796875 215.7890625 222 286.03125 164.40234375 286.03125 c 4
 92 286.03125 95.04296875 229.0625 95.04296875 229.0625 c 5
 95.04296875 101.53125 l 5
 95.04296875 101.53125 96.44921875 27.0703125 115.50390625 27.0703125 c 5
 115.50390625 0.25 l 5
 6.54296875 0.25 l 5
 6.54296875 26.5078125 l 5
 6.54296875 26.5078125 25.38671875 35.9296875 26.37109375 102.375 c 6
 26.37109375 179.2890625 l 5
 26.37109375 488.75 l 5
 26.37109375 488.75 24.77734375 519.015625 1.01171875 528.71875 c 5
 89.49609375 552.5546875 l 5
 110.23828125 552.625 l 5
 110.23828125 552.625 91.81640625 524.9609375 91.81640625 494.3046875 c 6
 91.81640625 407.1484375 l 5
 86.54296875 403 l 5
 85.98046875 399.1328125 l 5
 80.14453125 399.1328125 l 5
 78.73828125 396.3203125 l 5
 78.45703125 393.15625 l 5
 76.20703125 394.9140625 l 5
 76.48828125 389.7109375 l 5
 80.42578125 389.7109375 l 5
 83.51953125 387.25 l 5
 86.89453125 392.1015625 l 5
 91.11328125 394.5625 l 5
 91.11328125 323.8046875 l 5
 103.400390625 338 133.400390625 349.1875 163.72265625 349.1875 c 4
 250 349.1875 285.89453125 294 286.05859375 233.6484375 c 6
 286.19921875 212.0390625 l 5
 286.19921875 54.421875 l 5
EndSplineSet
Validated: 33
EndChar

StartChar: e
Encoding: 101 101 78
Width: 336
VWidth: 0
Flags: W
HStem: -0.121094 21G<196.461 243.676> 153.941 52.4609<92.2734 241.516>
VStem: 24.9375 66.1406<103.402 153.941>
LayerCount: 2
Fore
SplineSet
176.53125 68.73828125 m 5
 176.53125 68.73828125 265 65 283.71875 115.35546875 c 5
 313.6953125 119.64453125 l 5
 314.6953125 52.56640625 l 5
 314.6953125 52.56640625 290.890625 2.55078125 196.4609375 -0.12109375 c 5
 196.4609375 -0.12109375 28 -2 24.9375 155.21484375 c 5
 24.9375 155.21484375 24.8671875 156.90234375 25.0078125 159.78515625 c 5
 26.0625 159.78515625 l 5
 28.875 159.01171875 l 5
 30.984375 160.91015625 l 5
 34.21875 162.03515625 l 5
 34.8515625 167.87109375 l 5
 30.7734375 165.90234375 l 5
 30.3515625 164.14453125 l 5
 25.8515625 164.14453125 l 5
 24.796875 162.87890625 l 5
 24.5859375 161.40234375 l 5
 22.8984375 162.17578125 l 5
 23.0390625 160.69921875 l 5
 7.640625 162.52734375 15.62890625 181 5.1171875 198.29296875 c 5
 26.1328125 206.70703125 l 5
 30.9140625 250.30078125 75.453125 352.55859375 201.3125 347.91796875 c 5
 201.3125 347.91796875 279.6953125 346.58203125 303.3203125 296.16796875 c 4
 318.71875 263.33203125 330.8828125 284.49609375 330.8828125 284.49609375 c 5
 328.9140625 262.41796875 322.4453125 239.41015625 322.4453125 239.41015625 c 5
 305.78125 187.09765625 l 5
 292 156 241.515625 157.24609375 241.515625 157.24609375 c 5
 137.921875 153.94140625 l 5
 91.078125 153.94140625 l 5
 91.0078125 150.91796875 93.7607421875 147.155273438 94 144 c 4
 99 78 176.53125 68.73828125 176.53125 68.73828125 c 5
191.3125 297.96484375 m 5
 191.3125 297.96484375 120 307 92.2734375 206.40234375 c 5
 152.953125 206.40234375 l 6
 192.46875 208.65234375 255.6484375 223.48828125 255.6484375 223.48828125 c 5
 260 299 191.3125 297.96484375 191.3125 297.96484375 c 5
EndSplineSet
Validated: 33
EndChar

StartChar: f
Encoding: 102 102 79
Width: 365
VWidth: 0
Flags: W
HStem: 0.25 34.9062<168.658 182.074> 279.414 45.2734<53.1211 93.2773>
VStem: 93.2773 68.6875<102.094 277.938 326.164 368.164> 320.582 25.7266<416.383 462.133>
LayerCount: 2
Fore
SplineSet
253.299804688 490 m 1
 158 490 161.89453125 368.1640625 161.89453125 368.1640625 c 2
 161.89453125 326.1640625 l 1
 188.47265625 331.5078125 200.70703125 341.984375 200.70703125 341.984375 c 1
 274 334 287.34765625 352.6015625 287.34765625 352.6015625 c 1
 312.35546875 340.28125 l 1
 292.87890625 315.25 l 2
 262.265625 275.905273438 234.10546875 279.4140625 234.10546875 279.4140625 c 1
 161.96484375 278.5703125 l 1
 161.96484375 102.09375 l 1
 161.96484375 102.09375 163.30078125 35.15625 182.07421875 35.15625 c 1
 182.07421875 0.25 l 1
 73.80078125 0.25 l 1
 73.80078125 35.6484375 l 1
 73.80078125 35.6484375 92.29296875 36 93.27734375 102.9375 c 2
 93.27734375 140.0625 l 1
 93.27734375 277.9375 l 1
 27.98046875 279.4140625 l 1
 29.17578125 298.203125 l 1
 53.12109375 324.6875 l 1
 93.34765625 323.703125 l 1
 93.34765625 388.09375 l 2
 93.34765625 510.296875 172.451074029 548.660535856 224.91015625 555.5546875 c 0
 312 567 343.62890625 508.3984375 343.62890625 508.3984375 c 1
 358.01953125 512.484375 l 1
 346.30859375 416.3671875 l 1
 320.58203125 416.3828125 l 1
 320 493 253.299804688 490 253.299804688 490 c 1
EndSplineSet
Validated: 33
EndChar

StartChar: i
Encoding: 105 105 80
Width: 140
VWidth: 0
Flags: W
HStem: 0.209961 18.5244<110.472 120.394>
VStem: 34.5381 70.4492<56.832 216.936 228.325 317.65 405.07 445.931>
LayerCount: 2
Fore
SplineSet
27.8427734375 405.0703125 m 1
 27.8427734375 445.930664062 l 1
 69.279296875 475.858398438 l 1
 110.713867188 445.930664062 l 1
 110.713867188 405.0703125 l 1
 69.279296875 375.141601562 l 1
 27.8427734375 405.0703125 l 1
104.987304688 56.83203125 m 5
 104.987304688 56.83203125 106.067382812 18.734375 120.393554688 18.734375 c 5
 120.393554688 0.2099609375 l 5
 19.6064453125 0.2099609375 l 5
 19.6064453125 19.0009765625 l 5
 19.6064453125 19.0009765625 33.794921875 19.201171875 34.5380859375 57.296875 c 6
 34.5380859375 78.4775390625 l 5
 34.5380859375 317.650390625 l 5
 34.5380859375 317.650390625 34.5498046875 328 21.70703125 330.274414062 c 5
 103.905273438 342.759765625 l 5
 119.514648438 342.827148438 l 5
 119.514648438 342.827148438 105.663085938 338.430664062 105.663085938 320.84765625 c 6
 105.663085938 228.325195312 l 5
 101.67578125 225.927734375 l 5
 98.390625 223.729492188 l 5
 96.87890625 223.729492188 l 5
 95.7978515625 222.130859375 l 5
 93.5947265625 220.333007812 l 5
 91.9052734375 221.33203125 l 5
 92.1083984375 218.334960938 l 5
 97.0126953125 218.334960938 l 5
 99.3115234375 216.935546875 l 5
 101.811523438 219.732421875 l 5
 104.987304688 221.131835938 l 5
 104.987304688 56.83203125 l 5
EndSplineSet
Validated: 1
EndChar

StartChar: k
Encoding: 107 107 81
Width: 370
VWidth: 0
Flags: W
HStem: 0.25 34.8359<118.458 131.844 314.548 352.5> 321.773 26.1875<306.78 333.906>
VStem: 39.5391 72.1953<101.531 378.25 398.148 478.75>
LayerCount: 2
Fore
SplineSet
111.734375 101.53125 m 1
 111.734375 101.53125 113.140625 35.0859375 131.84375 35.0859375 c 1
 131.84375 0.25 l 1
 20.203125 0.25 l 1
 20.203125 35.578125 l 1
 20.203125 35.578125 38.5546875 35.9296875 39.5390625 102.375 c 2
 39.5390625 129.2890625 l 1
 39.5390625 478.75 l 1
 39.5390625 478.75 39.30078125 514 17.5 528.71875 c 1
 110.328125 552.5546875 l 1
 123.578125 552.625 l 1
 123.578125 552.625 112.578125 544.9609375 112.578125 514.3046875 c 2
 112.578125 398.1484375 l 1
 107.375 394 l 1
 106.8125 390.1328125 l 1
 101.1171875 390.1328125 l 1
 99.78125 387.3203125 l 1
 99.5 384.15625 l 1
 97.3203125 385.9140625 l 1
 97.6015625 380.7109375 l 1
 101.3984375 380.7109375 l 1
 104.421875 378.25 l 1
 107.65625 383.1015625 l 1
 111.734375 385.5625 l 1
 111.734375 101.53125 l 1
295.3359375 73.181640625 m 2
 332.8828125 26.212890625 352.4296875 29.306640625 352.5 29.306640625 c 2
 352.5 -0.255859375 l 1
 260.3046875 -0.255859375 l 1
 230.3046875 31.486328125 l 1
 235.9296875 37.673828125 228.0546875 47.869140625 228.0546875 47.869140625 c 1
 183.7578125 97.734375 l 1
 183.7578125 103.5703125 l 1
 207.3828125 103.5703125 l 1
 211.8828125 106.03125 l 1
 203.234375 109.125 l 1
 201.3359375 110.390625 l 1
 198.3125 107.9296875 l 1
 198.3125 107.9296875 188.5390625 109.4765625 187.4140625 109.4765625 c 0
 186.2890625 109.4765625 187.4140625 112.8515625 187.4140625 112.8515625 c 1
 174.265625 114.1171875 l 1
 128.6953125 178.703125 l 1
 217.0625 292.453125 l 2
 237.453125 312.2109375 217.0625 321.7734375 217.0625 321.7734375 c 1
 217.0625 347.9609375 l 1
 333.90625 347.9609375 l 1
 334.2578125 321.7734375 l 1
 309 314 300.984375 303.84375 300.984375 303.84375 c 1
 197.890625 178.703125 l 1
 229.0390625 139.5390625 248.0625 141.3671875 248.0625 141.3671875 c 1
 295.3359375 73.181640625 l 2
218.7734375 103.4296875 m 1
 232.0078125 104.625 l 1
 220.109375 105.890625 l 1
 218.7734375 108.984375 l 1
 214.0625 105.890625 l 1
 218.7734375 103.4296875 l 1
EndSplineSet
Validated: 33
EndChar

StartChar: l
Encoding: 108 108 82
Width: 155
VWidth: 0
Flags: W
HStem: 0.25 34.8359<121.435 134.82>
VStem: 39.5156 75.1953<101.531 378.25 398.148 478.75>
LayerCount: 2
Fore
SplineSet
114.7109375 101.53125 m 1
 114.7109375 101.53125 116.1171875 35.0859375 134.8203125 35.0859375 c 1
 134.8203125 0.25 l 1
 20.1796875 0.25 l 1
 20.1796875 35.578125 l 1
 20.1796875 35.578125 38.53125 35.9296875 39.515625 102.375 c 2
 39.515625 139.2890625 l 1
 39.515625 478.75 l 1
 39.515625 478.75 35.423828125 511 23.02734375 528.71875 c 1
 113.3046875 552.5546875 l 1
 133.5546875 552.625 l 1
 133.5546875 552.625 115.5546875 534.9609375 115.5546875 504.3046875 c 2
 115.5546875 398.1484375 l 1
 110.3515625 394 l 1
 109.7890625 390.1328125 l 1
 104.09375 390.1328125 l 1
 102.7578125 387.3203125 l 1
 102.4765625 384.15625 l 1
 100.296875 385.9140625 l 1
 100.578125 380.7109375 l 1
 104.375 380.7109375 l 1
 107.3984375 378.25 l 1
 110.6328125 383.1015625 l 1
 114.7109375 385.5625 l 1
 114.7109375 101.53125 l 1
EndSplineSet
Validated: 1
EndChar

StartChar: m
Encoding: 109 109 83
Width: 500
VWidth: 0
Flags: W
HStem: -0.0478516 26.4688<116.53 131.984 289.382 304.719 463.517 478.914> 264.194 63.6328<123.592 201.269 304.151 377.554>
VStem: 41.6875 68.9922<70.4365 156.827> 219.375 66.7109<55.46 155.14> 396.57 63.6406<55.46 155.069>
LayerCount: 2
Fore
SplineSet
460.2109375 55.4599609375 m 1
 460.2109375 55.4599609375 461.4765625 26.4208984375 478.9140625 26.4208984375 c 1
 478.9140625 -0.0478515625 l 1
 378.5 -0.0478515625 l 1
 378.5 26.6318359375 l 1
 378.5 26.6318359375 395.65625 26.7724609375 396.5703125 55.8115234375 c 2
 396.5703125 71.9130859375 l 1
 396.5703125 155.069335938 l 1
 396.5703125 155.069335938 402 264.124023438 340.3515625 264.124023438 c 4
 285.828125 264.124023438 286.15625 174.897460938 285.875 160.272460938 c 0
 285.875 158.514648438 285.9453125 156.756835938 285.9453125 154.999023438 c 2
 286.0859375 117.280273438 l 1
 286.0859375 55.4599609375 l 1
 286.0859375 55.4599609375 287.3515625 26.4208984375 304.71875 26.4208984375 c 1
 304.71875 -0.0478515625 l 1
 201.3046875 -0.0478515625 l 1
 201.3046875 26.6318359375 l 1
 201.3046875 26.6318359375 218.4609375 26.7724609375 219.375 55.8115234375 c 2
 219.375 71.9130859375 l 1
 219.375 155.139648438 l 1
 219.375 155.139648438 226 264.194335938 163.15625 264.194335938 c 4
 96 264.194335938 110.75 156.616210938 110.75 156.616210938 c 1
 110.6796875 156.827148438 l 1
 110.6796875 70.4365234375 l 1
 110.6796875 70.4365234375 112.15625 24.1708984375 131.984375 24.1708984375 c 1
 131.984375 -0.0478515625 l 1
 21.0859375 -0.0478515625 l 1
 21.0859375 23.8193359375 l 1
 21.0859375 23.8193359375 40.6328125 29.6552734375 41.6875 70.9287109375 c 2
 41.6875 93.8505859375 l 1
 41.6875 281.725585938 l 1
 41.6875 281.725585938 38.828125 316 25.7421875 324.100585938 c 1
 89.1328125 338.866210938 l 1
 122.71875 338.936523438 l 1
 122.71875 338.936523438 111.5234375 334.155273438 111.5234375 315.100585938 c 2
 111.5234375 300.647460938 l 1
 115.028320312 312 127.84375 327.827148438 164.828125 327.827148438 c 0
 192.0390625 327.827148438 224.59375 326.811523438 249.5546875 277.592773438 c 1
 263.40625 310.920898438 305.546875 327.827148438 351.953125 327.827148438 c 0
 386.8984375 327.827148438 460.0703125 314.608398438 460.0703125 217.999023438 c 2
 460.2109375 164.280273438 l 1
 460.2109375 55.4599609375 l 1
102.8046875 167.655273438 m 1
 104.2109375 168.991210938 l 1
 101.046875 175.038085938 l 1
 99.2890625 175.038085938 l 1
 97.8125 193.280273438 l 1
 97.53125 191.311523438 l 1
 95.2109375 192.366210938 l 1
 95.4921875 189.131835938 l 1
 99.5703125 169.131835938 l 1
 102.8046875 167.655273438 l 1
EndSplineSet
Validated: 33
EndChar

StartChar: n
Encoding: 110 110 84
Width: 340
VWidth: 0
Flags: W
HStem: -0.0478516 26.5283<112.067 127.117 310.161 320.781> 262.194 65.6328<126.709 221.505>
VStem: 39.8203 65.9922<70.4365 162.827> 239.508 67.7109<56.46 171.14>
LayerCount: 2
Fore
SplineSet
307.21875 56.4599609375 m 1
 307.21875 56.4599609375 309 26.4912109375 320.78125 26.4912109375 c 1
 320.78125 0.0224609375 l 1
 221.4375 0.0224609375 l 1
 221.4375 6.7021484375 l 1
 221.4375 6.7021484375 238.59375 26.8427734375 239.5078125 55.8818359375 c 2
 239.5078125 71.9833984375 l 1
 239.5078125 171.139648438 l 1
 239.5078125 171.139648438 249.2265625 262.194335938 173.2890625 262.194335938 c 0
 100.092773438 262.194335938 105.8828125 162.616210938 105.8828125 162.616210938 c 1
 105.8125 162.827148438 l 1
 105.8125 70.4365234375 l 1
 105.8125 70.4365234375 107.2890625 26.48046875 127.1171875 26.48046875 c 1
 127.1171875 -0.0478515625 l 1
 19.21875 -0.0478515625 l 1
 19.21875 25.759765625 l 1
 19.21875 25.759765625 39.8203125 29.6552734375 39.8203125 70.9287109375 c 2
 39.8203125 83.8505859375 l 1
 39.8203125 281.655273438 l 1
 39.8203125 281.655273438 39.0927734375 314 23.8046875 324.100585938 c 1
 99.1953125 338.866210938 l 1
 120.78125 338.936523438 l 1
 120.78125 338.936523438 102.65625 334.155273438 102.65625 315.100585938 c 2
 102.65625 303.647460938 l 1
 122.8359375 326.639648438 147.9765625 327.827148438 184.9609375 327.827148438 c 0
 259 327.827148438 306.928710938 276 307.078125 218.999023438 c 6
 307.21875 175.280273438 l 1
 307.21875 56.4599609375 l 1
98.0078125 173.655273438 m 1
 99.4140625 175.061523438 l 1
 96.25 181.108398438 l 1
 94.4921875 181.108398438 l 1
 93.015625 179.350585938 l 1
 92.734375 177.381835938 l 1
 90.4140625 178.436523438 l 1
 90.6953125 175.202148438 l 1
 94.84375 175.202148438 l 1
 98.0078125 173.655273438 l 1
EndSplineSet
Validated: 33
EndChar

StartChar: o
Encoding: 111 111 85
Width: 390
VWidth: 0
Flags: W
HStem: 0.179688 65.6328<135.118 258.037> 268.531 63.3828<139.863 253.994>
VStem: 19.1328 81.1484<100.017 228.45> 292.602 78.2656<101.892 229.989>
LayerCount: 2
Fore
SplineSet
195 331.9140625 m 4
 286.6171875 331.9140625 370.8671875 273 370.8671875 166.046875 c 4
 370.8671875 48 286.6171875 0.1796875 195 0.1796875 c 4
 103.3828125 0.1796875 19.1328125 60 19.1328125 166.046875 c 4
 19.1328125 271 103.3828125 331.9140625 195 331.9140625 c 4
195.9140625 65.8125 m 4
 257 65.8125 292.6015625 112 292.6015625 167.171875 c 4
 292.6015625 221 252 268.53125 195 268.53125 c 4
 140 268.53125 100.28125 216 100.28125 166.046875 c 4
 100.28125 116 131 65.8125 195.9140625 65.8125 c 4
EndSplineSet
Validated: 1
EndChar

StartChar: p
Encoding: 112 112 86
Width: 365
VWidth: 0
Flags: W
HStem: 268.334 59.2656<133.464 245.834>
VStem: 33.6758 67.875<-118.59 -60.5049 -39.2705 28.4746 97.033 235.436> 281.371 65.0469<97.7165 232.247>
LayerCount: 2
Fore
SplineSet
195.16015625 327.599609375 m 0
 284.299804688 327.599609375 346.34765625 267.833984375 346.41796875 158.990234375 c 0
 346.41796875 59.708984375 285.5 -7 181.87109375 0.294921875 c 0
 154.727539062 2.2060546875 126.86328125 4.216796875 101.55078125 28.474609375 c 1
 101.55078125 -47.0751953125 l 1
 97.61328125 -44.4736328125 l 1
 94.51953125 -39.2705078125 l 1
 91.63671875 -41.8720703125 l 1
 87.98046875 -41.8720703125 l 1
 87.69921875 -47.4970703125 l 1
 89.80859375 -45.5986328125 l 1
 90.08984375 -48.9736328125 l 1
 91.42578125 -51.9267578125 l 1
 96.91015625 -51.9267578125 l 1
 97.40234375 -56.0048828125 l 1
 102.32421875 -60.5048828125 l 1
 102.32421875 -124.49609375 l 2
 102.32421875 -157.2421875 119.48046875 -195.55859375 119.48046875 -195.55859375 c 1
 100.14453125 -195.48828125 l 1
 15.18359375 -169.96484375 l 1
 33.39453125 -155.76171875 33.67578125 -118.58984375 33.67578125 -118.58984375 c 1
 33.67578125 230.060546875 l 1
 33.67578125 270.138671875 l 1
 33.67578125 270.138671875 33.81640625 270.208984375 33.95703125 270.419921875 c 2
 33.32421875 270.138671875 l 1
 33.32421875 270.138671875 30.58203125 296.240234375 18.13671875 294.060546875 c 1
 12.58203125 298.349609375 l 1
 59.46484375 330.552734375 l 1
 98.73828125 330.552734375 l 1
 98.73828125 305.849609375 l 1
 125.5 321 149.45703125 327.599609375 191.15234375 327.599609375 c 1
 191.15234375 327.529296875 l 2
 192.48828125 327.599609375 193.82421875 327.599609375 195.16015625 327.599609375 c 0
189.74609375 61.818359375 m 0
 244 61.818359375 281.37109375 108 281.37109375 158.990234375 c 0
 281.37109375 226 245.5 268.333984375 182.14453125 268.333984375 c 0
 143.299804688 268.333984375 102.12109375 231 102.12109375 159.990234375 c 0
 102.12109375 123 127 61.818359375 189.74609375 61.818359375 c 0
EndSplineSet
Validated: 33
EndChar

StartChar: q
Encoding: 113 113 87
Width: 362
VWidth: 0
Flags: W
HStem: 0.222656 66.4531<127.214 241.089> 267.277 59.125<123.451 242.067>
VStem: 22.2891 66.6953<102.911 231.365> 265.469 70.4375<-113.922 -63.1367 -41.9727 25.332 91.3524 245.209>
LayerCount: 2
Fore
SplineSet
413.4609375 -101.078125 m 1
 415.7109375 -101.5 l 1
 411.140625 -115.703125 l 2
 404.032226562 -137.79296875 380.4140625 -159.7734375 380.4140625 -159.7734375 c 1
 332.3359375 -188.5859375 l 1
 295.2109375 -196.609375 l 1
 295.140625 -196.46875 l 1
 294.578125 -196.6796875 l 1
 258.3125 -196.75 l 1
 258.3125 -196.75 265.46875 -171.5234375 265.46875 -138.828125 c 2
 265.46875 -63.13671875 l 1
 270.390625 -58.70703125 l 1
 270.8828125 -54.62890625 l 1
 276.3671875 -54.62890625 l 1
 277.6328125 -51.67578125 l 1
 277.9140625 -48.30078125 l 1
 280.0234375 -50.12890625 l 1
 279.7421875 -44.57421875 l 1
 276.0859375 -44.57421875 l 1
 273.203125 -41.97265625 l 1
 270.109375 -47.17578125 l 1
 266.2421875 -49.77734375 l 1
 266.2421875 25.33203125 l 1
 245 7 213.34375 0.279296875 186.2734375 0.22265625 c 0
 79 0 22.2890625 59.42578125 22.2890625 158.42578125 c 0
 22.2890625 266.84765625 84 326.40234375 172.984375 326.40234375 c 0
 174.25 326.40234375 175.5859375 326.33203125 176.921875 326.33203125 c 2
 176.921875 326.40234375 l 1
 255 326.40234375 268.984375 300.72265625 268.984375 300.72265625 c 1
 268.984375 329.42578125 l 1
 293.1875 329.42578125 l 1
 346.9296875 297.29296875 l 1
 341.375 293.00390625 l 1
 336 288 336.2578125 269.15234375 336.2578125 269.15234375 c 1
 335.625 269.43359375 l 2
 335.8359375 269.29296875 335.90625 269.15234375 335.90625 269.15234375 c 1
 335.90625 229.21484375 l 1
 335.90625 -113.921875 l 1
 335.90625 -113.921875 336.046875 -118.3515625 344.90625 -127.0703125 c 1
 354.75 -120.8828125 358.125 -115.046875 358.125 -115.046875 c 1
 414.375 -100.140625 413.4609375 -101.078125 413.4609375 -101.078125 c 1
178.328125 66.67578125 m 0
 234 66.67578125 271.671875 105 271.671875 161.42578125 c 0
 271.671875 231 237 267.27734375 186.9296875 267.27734375 c 0
 113 267.27734375 88.984375 209 88.984375 162.42578125 c 0
 88.984375 108 137 66.67578125 178.328125 66.67578125 c 0
EndSplineSet
Validated: 33
EndChar

StartChar: r
Encoding: 114 114 88
Width: 280
VWidth: 0
Flags: W
HStem: -0.0136719 29<105.684 117.588> 278.854 55.5938<111.045 164.588>
VStem: 36.4551 63.6719<69.2051 196.502 208.525 267.578> 227.76 31.3281<225.928 245.297>
LayerCount: 2
Fore
SplineSet
223.806640625 310.689453125 m 1
 223.806640625 310.689453125 261.602539062 281.439453125 260.142578125 250.759765625 c 2
 260.142578125 250.759765625 260.142578125 236.056640625 259.087890625 233.595703125 c 0
 258.033203125 231.134765625 227.759765625 199.392578125 227.759765625 199.392578125 c 1
 218.81640625 274 164.587890625 278.853515625 164.587890625 278.853515625 c 1
 106.81640625 278.853515625 100.830078125 240 100.830078125 223.783203125 c 1
 100.830078125 208.525390625 l 1
 95.556640625 205.994140625 l 1
 94.994140625 203.673828125 l 1
 89.158203125 203.673828125 l 1
 87.751953125 201.986328125 l 1
 87.470703125 200.087890625 l 1
 85.220703125 201.142578125 l 1
 85.501953125 197.978515625 l 1
 89.439453125 197.978515625 l 1
 92.533203125 196.501953125 l 1
 95.908203125 199.455078125 l 1
 100.126953125 200.931640625 l 1
 100.126953125 69.205078125 l 1
 100.126953125 69.205078125 103.81640625 29 117.587890625 28.986328125 c 1
 117.587890625 -0.013671875 l 1
 20.626953125 -0.013671875 l 1
 20.626953125 29.267578125 l 1
 20.626953125 29.267578125 35.470703125 29.408203125 36.455078125 69.626953125 c 2
 36.455078125 91.916015625 l 1
 36.455078125 307.392578125 l 1
 36.455078125 307.392578125 36.81640625 327 19.81640625 332.486328125 c 1
 75.580078125 343.830078125 l 1
 119.322265625 343.900390625 l 1
 119.322265625 343.900390625 100.900390625 332.259765625 100.900390625 313.697265625 c 2
 100.900390625 309.189453125 l 1
 118.830078125 329.369140625 147.81640625 334.447265625 163.751953125 334.447265625 c 0
 195.955078125 334.447265625 223.806640625 310.689453125 223.806640625 310.689453125 c 1
EndSplineSet
Validated: 33
EndChar

StartChar: s
Encoding: 115 115 89
Width: 259
VWidth: 0
Flags: W
HStem: 267.555 45.6875<193.237 223.823>
VStem: 19.3623 219.922
LayerCount: 2
Fore
SplineSet
239.284179688 103.4921875 m 1
 239.284179688 103.4921875 244.489257812 76 214.979492188 33.9765625 c 1
 214.979492188 33.9765625 189.276367188 -2.4921875 122.127929688 0.4609375 c 1
 122.127929688 0.4609375 41.9326171875 0.5 19.3623046875 45.4296875 c 1
 19.3623046875 97.140625 l 1
 51.0263671875 97.140625 l 1
 51.0263671875 97.140625 63.4892578125 61 119.760742188 57.828125 c 1
 119.760742188 57.828125 182.604492188 58 182.604492188 99.4296875 c 1
 182.604492188 99.4296875 189.84765625 132 96.4482421875 147.78125 c 1
 96.4482421875 147.78125 100.456054688 157.34375 116.487304688 165.359375 c 1
 106.291992188 165.359375 l 1
 100.034179688 159.59375 l 1
 95.6044921875 160.015625 l 1
 92.9326171875 155.09375 l 1
 85.8310546875 154.671875 l 1
 85.8310546875 154.671875 27.0185546875 180 27.0185546875 247.2890625 c 1
 27.0185546875 247.2890625 28.6826171875 308.078125 86.9716796875 326.78125 c 1
 86.9716796875 326.78125 150.416992188 351.0703125 223.823242188 313.2421875 c 1
 223.823242188 267.5546875 l 1
 193.237304688 267.5546875 l 1
 193.237304688 267.5546875 109.84765625 308 85.84765625 248 c 1
 85.84765625 248 73.83984375 214.46484375 131.174804688 191.375 c 2
 131.174804688 191.375 140 188 191.323242188 176.125 c 1
 191.323242188 176.125 237.84765625 165 239.284179688 103.4921875 c 1
EndSplineSet
Validated: 33
EndChar

StartChar: t
Encoding: 116 116 90
Width: 293
VWidth: 0
Flags: W
HStem: -0.188477 25.75<164.721 174.094> 292.327 51.0234<31.7344 92.5703 164.438 196.578>
VStem: 93.2188 61.6406<106.015 292.749 344.444 381.999>
LayerCount: 2
Fore
SplineSet
253.3203125 351.686523438 m 2
 253.0390625 351.897460938 252.7578125 351.967773438 252.7578125 351.967773438 c 1
 253.3203125 351.686523438 l 2
253.3203125 351.686523438 m 2
 256.6953125 349.999023438 l 1
 241.578125 314.639648438 l 1
 230.700195312 296 196.578125 294.702148438 196.578125 294.702148438 c 1
 155.0703125 294.436523438 l 1
 154.859375 106.014648438 l 1
 154.859375 106.014648438 159 25.5615234375 174.09375 25.5615234375 c 1
 174.09375 -0.1884765625 l 1
 72.6875 -0.1884765625 l 1
 72.6875 24.0537109375 l 1
 72.6875 24.0537109375 93.21875 28 93.21875 106.928710938 c 2
 93.21875 146.022460938 l 1
 93.5 292.749023438 l 1
 77.75 292.327148438 l 1
 9.3046875 292.327148438 l 1
 9.3046875 311.061523438 l 1
 31.734375 343.350585938 l 1
 92.5703125 343.350585938 l 1
 92.5703125 381.999023438 l 1
 92.5703125 381.999023438 134.3984375 404 134.3984375 428.170898438 c 1
 156.2109375 399.272460938 l 1
 156.140625 344.444335938 l 1
 161.8359375 347.467773438 164.4375 349.928710938 164.4375 349.928710938 c 1
 264.140625 344.584960938 255.7109375 350.280273438 253.3203125 351.686523438 c 2
EndSplineSet
Validated: 37
EndChar

StartChar: u
Encoding: 117 117 91
Width: 310
VWidth: 0
Flags: W
HStem: 0.25 59.3047<153.082 199.811> 307.844 19.7734G<18.8164 104.473 206.754 291.184>
VStem: 30.9805 61.2578<110.821 289.359> 218.988 59.9609<113.453 117.531 117.636 289.586>
LayerCount: 2
Fore
SplineSet
206.75390625 327.84375 m 1
 291.18359375 327.6875 l 1
 291.18359375 308.2734375 l 1
 291.18359375 308.2734375 278.52734375 302.859375 278.94921875 282.6796875 c 0
 279.37109375 262.5 278.66796875 117.53125 278.66796875 117.53125 c 1
 278.66796875 113.453125 l 1
 275.57421875 107.7578125 l 1
 278.66796875 106.7734375 l 1
 278.66796875 106.7734375 275 0.5224609375 149.42578125 0.25 c 0
 34 0 30.98046875 110.7109375 30.98046875 110.7109375 c 1
 30.98046875 110.7109375 30.62890625 262.4296875 31.05078125 282.609375 c 0
 31.47265625 302.7890625 18.81640625 308.203125 18.81640625 308.203125 c 1
 18.81640625 327.6171875 l 1
 104.47265625 327.6171875 l 1
 104.47265625 309.2578125 l 1
 91.81640625 304.3359375 92.23828125 289.359375 92.23828125 289.359375 c 1
 92.23828125 139.921875 l 2
 92.23828125 58.921875 153.08203125 59.5546875 153.08203125 59.5546875 c 1
 206.37890625 59.5546875 215.33203125 100.125 218.28515625 124.03125 c 0
 218.49609375 128.8828125 218.70703125 133.9453125 218.98828125 139.21875 c 2
 218.77734375 146.6015625 l 1
 218.98828125 289.5859375 l 1
 218.98828125 289.5859375 219.41015625 304.5625 206.75390625 309.484375 c 1
 206.75390625 327.84375 l 1
EndSplineSet
Validated: 33
EndChar

StartChar: v
Encoding: 118 118 92
Width: 370
VWidth: 0
Flags: W
HStem: 0.25 21G<157.491 217.251> 314.406 20.0703G<25.8164 135.223 234.637 234.777>
VStem: 25.8164 318.367
LayerCount: 2
Fore
SplineSet
234.77734375 334.40625 m 1
 234.77734375 334.3359375 l 1
 344.18359375 334.3359375 l 1
 344.18359375 318.8984375 l 1
 344.18359375 318.8984375 325.26953125 298.484375 305.23046875 249.6875 c 2
 284.13671875 201.2421875 l 1
 286.45703125 209.1875 l 1
 283.92578125 208.765625 l 1
 285.89453125 210.8046875 l 1
 287.72265625 217.203125 l 1
 287.01953125 215.4453125 l 1
 286.38671875 213.7578125 l 1
 286.38671875 213.7578125 284.55859375 213.3359375 283.22265625 213.3359375 c 0
 281.88671875 213.3359375 286.38671875 215.234375 286.38671875 215.234375 c 1
 284.06640625 215.234375 l 1
 284.06640625 227.890625 l 1
 282.02734375 229.2265625 l 1
 286.10546875 215.09375 279.98828125 207.8515625 279.98828125 207.8515625 c 1
 281.81640625 205.6015625 l 1
 281.81640625 203.3515625 l 1
 283.99609375 201.3125 l 1
 209.87890625 0.25 l 1
 165.87890625 0.25 l 1
 62.02734375 247.859375 l 1
 62.02734375 247.859375 38.19140625 311.65625 25.81640625 320.234375 c 1
 25.81640625 334.4765625 l 1
 135.22265625 334.4765625 l 1
 135.15234375 320.3046875 l 1
 135.15234375 320.3046875 103.37109375 296.9375 134.23828125 223.53125 c 2
 185.74609375 88.71875 l 1
 189.02734375 88.71875 l 1
 245.39453125 252.1484375 l 1
 245.39453125 252.1484375 263.46484375 310.0390625 234.63671875 319.53125 c 1
 234.77734375 334.40625 l 1
EndSplineSet
Validated: 37
EndChar

StartChar: w
Encoding: 119 119 93
Width: 460
VWidth: 0
Flags: W
HStem: 0.179688 21G<126.708 174.239 288.94 332.756> 255.375 17.875<177.609 188.359 272.435 282.18> 314.25 20G<13.0156 112.172 347.617 446.984>
VStem: 177.469 104.852<202.881 273.25>
LayerCount: 2
Fore
SplineSet
347.6171875 334.25 m 1
 446.984375 334.25 l 1
 446.984375 317.0078125 l 1
 436.859375 308.359375 417.453125 258.4921875 417.453125 258.4921875 c 1
 325.6484375 0.1796875 l 1
 297.265625 0.1796875 l 1
 250.796875 111.8046875 l 1
 252.5546875 113.84375 l 1
 252.5546875 116.09375 l 1
 254.03125 118.34375 l 1
 254.03125 118.34375 249.0390625 125.65625 252.4140625 139.7890625 c 1
 250.796875 138.453125 l 1
 250.796875 125.796875 l 1
 248.8984375 125.796875 l 1
 248.8984375 125.796875 252.5546875 123.8984375 251.5 123.8984375 c 0
 250.375 123.8984375 248.8984375 124.3203125 248.8984375 124.3203125 c 1
 248.40625 126.0078125 l 1
 247.84375 127.765625 l 1
 249.3203125 121.3671875 l 1
 250.9375 119.328125 l 1
 248.8984375 119.75 l 1
 250.796875 111.734375 l 1
 232 157.9453125 l 1
 213.203125 111.734375 l 1
 215.1015625 119.75 l 1
 213.0625 119.328125 l 1
 214.6796875 121.3671875 l 1
 216.15625 127.765625 l 1
 215.59375 126.0078125 l 1
 215.1015625 124.3203125 l 1
 215.1015625 124.3203125 213.5546875 123.8984375 212.5 123.8984375 c 0
 211.4453125 123.8984375 215.1015625 125.796875 215.1015625 125.796875 c 1
 213.203125 125.796875 l 1
 213.203125 138.453125 l 1
 211.5859375 139.7890625 l 1
 214.9609375 125.65625 209.96875 118.34375 209.96875 118.34375 c 1
 211.4453125 116.09375 l 1
 211.4453125 113.84375 l 1
 213.203125 111.8046875 l 1
 165.734375 0.1796875 l 1
 133.3515625 0.1796875 l 1
 47.546875 258.4921875 l 1
 47.546875 258.4921875 31 304 13.015625 317.0078125 c 1
 13.015625 334.25 l 1
 112.171875 334.25 l 1
 112.1015625 317.078125 l 1
 112.1015625 317.078125 86.2265625 307.7109375 111.3984375 234.09375 c 2
 149.4453125 122.9296875 l 1
 157.0390625 122.9296875 l 1
 186.2578125 202.8515625 l 1
 186.2578125 202.8515625 206.314453125 244 177.46875 255.375 c 1
 177.609375 273.25 l 1
 179.71875 273.25 l 1
 280.0703125 273.25 l 1
 282.1796875 273.25 l 1
 282.3203125 255.375 l 1
 256.314453125 243 273.53125 202.8515625 273.53125 202.8515625 c 1
 303.8203125 124.9296875 l 1
 311.4140625 124.9296875 l 1
 348.390625 234.09375 l 2
 373.6328125 307.7109375 347.6875 317.078125 347.6875 317.078125 c 1
 347.6171875 334.25 l 1
EndSplineSet
Validated: 33
EndChar

StartChar: x
Encoding: 120 120 94
Width: 344
VWidth: 0
Flags: W
HStem: 0.179688 16.1484<118.052 129.309 308.759 323.113> 315.867 16.1484<17.0898 31.4219 223.035 236.018>
VStem: 19.3633 307.547
LayerCount: 2
Fore
SplineSet
289.71484375 46.5625 m 1
 289.71484375 46.5625 308.201171875 17 323.11328125 18.1875 c 1
 323.11328125 0.1796875 l 1
 215.41796875 0.1796875 l 1
 215.48828125 16.9765625 l 1
 215.48828125 16.9765625 239.32421875 29.4765625 216.40234375 59.4296875 c 2
 177.51171875 116.40625 l 1
 170.51171875 116.40625 l 1
 118.97265625 44.171875 l 1
 118.97265625 44.171875 104.201171875 27 129.44921875 16.328125 c 1
 129.30859375 0.1796875 l 1
 19.36328125 0.1796875 l 1
 19.36328125 17.6796875 l 1
 19.36328125 17.6796875 27.78515625 19.5625 47.33203125 45.5078125 c 2
 133.59765625 163.234375 l 1
 52.55859375 285.703125 l 1
 52.55859375 285.703125 29.201171875 316 17.08984375 316.0078125 c 1
 17.08984375 332.015625 l 1
 120.78515625 332.015625 l 1
 120.71484375 316.21875 l 1
 120.71484375 316.21875 96.87890625 319.71875 119.80078125 289.765625 c 2
 166.70703125 207.0546875 l 1
 160.62109375 206.9140625 l 1
 157.38671875 204.5234375 l 1
 145.92578125 204.5234375 l 1
 145.50390625 201.8515625 l 1
 138.54296875 198.828125 l 1
 150.56640625 197.6328125 l 1
 152.88671875 200.0234375 l 1
 161.81640625 199.390625 l 1
 165.68359375 202.0625 l 1
 164.13671875 196.3671875 l 1
 176.44140625 216.7890625 l 1
 178.83203125 216.7890625 l 1
 233.37109375 288.0234375 l 1
 233.37109375 288.0234375 251.201171875 307 222.89453125 315.8671875 c 1
 223.03515625 332.015625 l 1
 326.91015625 332.015625 l 1
 326.91015625 315.515625 l 1
 326.91015625 315.515625 313.48828125 312.6328125 293.94140625 286.6875 c 2
 207.67578125 166.03125 l 1
 289.71484375 46.5625 l 1
EndSplineSet
Validated: 33
EndChar

StartChar: y
Encoding: 121 121 95
Width: 415
VWidth: 0
Flags: W
HStem: 313.551 20.0703G<22.4824 146.889 277.443 277.584>
VStem: 19.541 45.8789<-109.706 -78.2402>
LayerCount: 2
Fore
SplineSet
277.583984375 333.55078125 m 1
 277.583984375 333.48046875 l 1
 392.060546875 333.48046875 l 1
 392.060546875 315.04296875 l 1
 392.060546875 315.04296875 373.146484375 291.62890625 353.037109375 242.83203125 c 2
 331.943359375 199.31640625 l 1
 334.263671875 207.26171875 l 1
 331.732421875 206.83984375 l 1
 333.701171875 208.87890625 l 1
 335.529296875 215.27734375 l 1
 334.826171875 213.51953125 l 1
 334.193359375 211.83203125 l 1
 334.193359375 211.83203125 332.365234375 211.41015625 331.029296875 211.41015625 c 0
 329.693359375 211.41015625 334.193359375 213.30859375 334.193359375 213.30859375 c 1
 331.873046875 213.30859375 l 1
 331.873046875 225.96484375 l 1
 329.833984375 227.30078125 l 1
 333.912109375 213.23828125 327.794921875 205.92578125 327.794921875 205.92578125 c 1
 329.623046875 203.67578125 l 1
 329.623046875 201.42578125 l 1
 331.802734375 199.38671875 l 1
 196.271484375 -96 l 2
 112.64453125 -299.443359375 16.373046875 -120.193359375 12.939453125 -136.559570312 c 1
 19.541015625 -78.240234375 l 1
 65.419921875 -57.6796875 l 1
 90 -213 200.271484375 0 168.287109375 49.54296875 c 1
 68.693359375 241.00390625 l 1
 68.693359375 241.00390625 34.927734375 307.80078125 22.482421875 316.37890625 c 1
 22.482421875 333.62109375 l 1
 146.888671875 333.62109375 l 1
 146.818359375 316.44921875 l 1
 146.818359375 316.44921875 115.037109375 305.08203125 145.904296875 231.60546875 c 2
 212.482421875 103.72265625 l 1
 217.763671875 103.72265625 l 1
 288.201171875 245.22265625 l 1
 288.201171875 245.22265625 314 300 277.443359375 315.67578125 c 1
 277.583984375 333.55078125 l 1
EndSplineSet
Validated: 37
EndChar

StartChar: z
Encoding: 122 122 96
Width: 344
VWidth: 0
Flags: W
HStem: 0.245117 65.082<114.18 152.164 163.673 246.492> 269.979 62.3799<86.2812 247.446>
VStem: 294.194 28.543<69.3524 81.6553>
LayerCount: 2
Fore
SplineSet
322.737304688 332.358398438 m 1
 322.666992188 332.358398438 l 1
 322.666992188 260.55078125 l 1
 114.1796875 66.2333984375 l 1
 152.1640625 66.2333984375 l 1
 154.564453125 60.3779296875 l 1
 156.752929688 59.75 l 1
 156.752929688 53.2685546875 l 1
 158.375976562 51.734375 l 1
 160.211914062 51.4560546875 l 1
 159.223632812 49.015625 l 1
 162.259765625 49.294921875 l 1
 162.259765625 53.6162109375 l 1
 163.672851562 57.0322265625 l 1
 160.84765625 60.7265625 l 1
 159.436523438 65.3271484375 l 1
 246.4921875 65.3271484375 l 1
 246.4921875 65.3271484375 293.465820312 64 294.194335938 81.6552734375 c 1
 322.737304688 86.6552734375 l 1
 322.737304688 0.2451171875 l 1
 28.111328125 0.2451171875 l 1
 28.111328125 0.2451171875 28.111328125 0.2451171875 21.2626953125 0.2451171875 c 1
 21.2626953125 53.0263671875 l 1
 21.2626953125 73.44921875 l 1
 24.228515625 75.888671875 l 1
 247.446289062 270.67578125 l 1
 86.28125 269.978515625 l 1
 86.28125 269.978515625 52.771484375 269.212890625 48.111328125 256.666015625 c 1
 21.2626953125 252.622070312 l 1
 21.2626953125 324.760742188 l 1
 21.2626953125 332.358398438 l 1
 314.194335938 332.358398438 l 1
 322.737304688 332.358398438 l 1
EndSplineSet
Validated: 37
EndChar

StartChar: at
Encoding: 64 64 97
Width: 666
VWidth: 0
Flags: W
HStem: 0.112305 21G<333.138 366.935 383.474 495.819>
VStem: 389.669 61.4453<103.034 182.956>
LayerCount: 2
Fore
SplineSet
465.973632812 0.1123046875 m 2
 437.876953125 62.47265625 l 1
 498.623046875 62.47265625 530.166015625 122.782226562 495.94921875 243.9921875 c 0
 468 343 383.213867188 380.896484375 295.94921875 357.063476562 c 0
 208.685546875 333.232421875 164 276 147.436523438 194.608398438 c 0
 125.547851562 87.0478515625 149.165039062 -68.2880859375 343.565429688 -57.34375 c 0
 370.205078125 -55.83203125 365.380859375 -47.408203125 368.333007812 -52.3759765625 c 0
 371.28515625 -57.34375 362.4453125 -92.3681640625 353.516601562 -99.2802734375 c 0
 344.588867188 -106.263671875 303.420898438 -120.783203125 230.053710938 -94 c 0
 156.685546875 -67.2158203125 93.5654296875 3.84765625 87.2294921875 88.3037109375 c 0
 76.3564453125 234.103515625 113 303 198.749023438 368.536132812 c 0
 266.573242188 420.373046875 367 433 450.63671875 392.34375 c 0
 509.047262634 363.95007662 533 307 547.325195312 256.807617188 c 0
 607.4921875 45.99609375 505 0 470.149414062 0.0400390625 c 0
 468.636719433 0.0417769636911 467.413085938 0.1123046875 465.973632812 0.1123046875 c 2
504.356445312 29.9404296875 m 1
 505.973632812 26.9169921875 l 1
 465.973632812 0.1123046875 l 1
 389.590820312 0.1123046875 l 1
 383.473632812 9.9404296875 l 1
 383.754882812 29.5966796875 l 1
 333.137695312 -0.3564453125 l 1
 333.137695312 -0.3564453125 267 -32 218.270507812 23.3857421875 c 1
 218.270507812 23.3857421875 179.930664062 67.4130859375 217.793945312 153.041992188 c 0
 239 201 315.278320312 217.229492188 315.278320312 217.229492188 c 1
 391.668945312 222.698242188 l 1
 391.668945312 222.698242188 402 298 282.137695312 246.081054688 c 1
 261.817382812 228.291992188 l 1
 240.731445312 225.174804688 l 1
 240.309570312 285.159179688 l 1
 240.309570312 285.159179688 387 376 448.879882812 254.659179688 c 1
 448.879882812 254.659179688 451.114257812 258.299804688 451.114257812 196.846679688 c 0
 451.114257812 135.393554688 451.114257812 52.2841796875 451.114257812 52.2841796875 c 1
 451.114257812 52.2841796875 452.897460938 38.18359375 468.692382812 33.3154296875 c 0
 472.959960938 32 504.356445312 29.9404296875 504.356445312 29.9404296875 c 1
363.739257812 103.034179688 m 1
 389.668945312 103.034179688 l 1
 390.668945312 182.956054688 l 1
 333.293945312 182.604492188 349.856445312 159.502929688 349.856445312 159.502929688 c 1
 308.090820312 184.956054688 267.559570312 129.588867188 267.559570312 129.588867188 c 1
 250 13 332.004882812 75.2607421875 332.004882812 75.2607421875 c 1
 363.739257812 103.034179688 l 1
EndSplineSet
Validated: 37
EndChar

StartChar: Edieresis
Encoding: 203 203 98
Width: 399
VWidth: 0
Flags: W
HStem: 0.511719 74.7344<162.047 281.73 281.775 342.712> 251.168 65.1875<189.293 211.887> 251.285 49.3281<140.285 189.286> 450.309 102.016<312.244 373.629> 480.652 71.6719<201.246 244.191>
VStem: 51.1055 89.3906<96.8464 251.285 300.613 373.699 394.793 474.441> 102.852 76.2969<615.455 658.544> 218.852 76.2969<615.455 658.544>
LayerCount: 2
Fore
SplineSet
295.1484375 658.543945312 m 1x81
 295.1484375 615.455078125 l 1
 256.999023438 594.513671875 l 1
 218.8515625 615.455078125 l 1
 218.8515625 658.543945312 l 1
 257.798828125 680.287109375 l 1
 295.1484375 658.543945312 l 1x81
179.1484375 658.543945312 m 1x83
 179.1484375 615.455078125 l 1
 140.999023438 594.513671875 l 1
 102.8515625 615.455078125 l 1
 102.8515625 658.543945312 l 1
 141.798828125 680.287109375 l 1
 179.1484375 658.543945312 l 1x83
373.62890625 450.73046875 m 1
 348.56640625 450.30859375 l 1x95
 331 481 244.19140625 480.65234375 244.19140625 480.65234375 c 1
 201.24609375 480.65234375 l 1
 201.24609375 480.65234375 147.87890625 484.23828125 141.12890625 451.61328125 c 1
 141.12890625 394.79296875 l 1
 134.23828125 390.29296875 l 1
 133.53515625 386.14453125 l 1
 125.87109375 386.14453125 l 1
 124.04296875 383.12109375 l 1
 123.69140625 379.74609375 l 1
 120.80859375 381.64453125 l 1
 121.16015625 376.01953125 l 1
 126.22265625 376.01953125 l 1
 129.80859375 373.69921875 l 1
 131.56640625 374.96484375 l 1
 134.66015625 378.62109375 l 1
 140.14453125 381.22265625 l 1
 140.21484375 300.61328125 l 1xad
 180.5 300.61328125 189.29296875 316.35546875 189.29296875 316.35546875 c 1
 301.5 310 329.10546875 321.34765625 329.10546875 321.34765625 c 1
 321.5 297 l 1
 313.00390625 276.91015625 l 2
 301.119140625 251.606445312 211.88671875 251.16796875 211.88671875 251.16796875 c 1xc5
 140.28515625 251.28515625 l 1
 140.49609375 151.39453125 l 2
 142.25390625 131.35546875 152.764648438 75.24609375 215.80078125 75.24609375 c 0
 317.5 75.24609375 342.73046875 96.88671875 342.73046875 96.88671875 c 1
 373.62890625 96.88671875 l 1
 373.62890625 0.37109375 l 1
 342.41015625 0.44140625 281.73046875 0.30078125 281.73046875 0.30078125 c 1
 145.38671875 0.51171875 l 1
 145.24609375 0.37109375 l 1
 25.37109375 0.37109375 l 1
 25.37109375 58.82421875 l 1
 25.37109375 58.82421875 48.99609375 58.33203125 51.10546875 125.62109375 c 2
 51.24609375 414.17578125 l 1
 51.24609375 439.69921875 l 2
 50.33203125 451.86328125 48.01171875 466.27734375 42.38671875 477.73828125 c 0
 38.58984375 484.48828125 33.17578125 490.81640625 25.37109375 495.17578125 c 1
 25.37109375 495.59765625 l 1
 25.37109375 551.90234375 l 1
 25.37109375 552.32421875 l 1
 63.48046875 552.32421875 l 1
 166.39453125 552.32421875 l 1xad
 373.62890625 552.32421875 l 1x95
 373.62890625 450.73046875 l 1
EndSplineSet
Validated: 33
EndChar

StartChar: AE
Encoding: 198 198 99
Width: 797
VWidth: 0
Flags: W
HStem: 0.511719 74.7344<562.999 682.683 682.727 743.664> 128.119 86.8945<271.991 313.002> 251.168 65.1875<590.245 612.839> 251.285 49.3281<541.237 590.239> 450.309 102.016<713.196 774.581> 480.652 71.6719<602.198 645.144>
VStem: 452.09 89.3584<192.554 251.285 300.613 373.699 394.793 474.441>
LayerCount: 2
Fore
SplineSet
366.168945312 211.41015625 m 1xc2
 372.376953125 215.4296875 l 2
 368.997070312 216.966796875 367.715820312 218.432617188 367.465820312 219.681640625 c 2
 362.170898438 211.41015625 l 1
 366.168945312 211.41015625 l 1xc2
774.581054688 450.73046875 m 1
 749.518554688 450.30859375 l 1xca
 731.952148438 481 645.143554688 480.65234375 645.143554688 480.65234375 c 1
 602.198242188 480.65234375 l 1
 602.198242188 480.65234375 548.831054688 484.23828125 542.081054688 451.61328125 c 1
 542.081054688 394.79296875 l 1
 535.190429688 390.29296875 l 1
 534.487304688 386.14453125 l 1
 526.823242188 386.14453125 l 1
 524.995117188 383.12109375 l 1
 524.643554688 379.74609375 l 1
 521.760742188 381.64453125 l 1
 522.112304688 376.01953125 l 1
 527.174804688 376.01953125 l 1
 530.760742188 373.69921875 l 1
 532.518554688 374.96484375 l 1
 535.612304688 378.62109375 l 1
 541.096679688 381.22265625 l 1
 541.166992188 300.61328125 l 1xd6
 581.452148438 300.61328125 590.245117188 316.35546875 590.245117188 316.35546875 c 1
 702.452148438 310 730.057617188 321.34765625 730.057617188 321.34765625 c 1
 722.452148438 297 l 1
 713.956054688 276.91015625 l 2
 702.071289062 251.606445312 612.838867188 251.16796875 612.838867188 251.16796875 c 1xe2
 541.237304688 251.28515625 l 1
 541.448242188 151.39453125 l 2
 543.206054688 131.35546875 553.716796875 75.24609375 616.752929688 75.24609375 c 0
 718.452148438 75.24609375 743.682617188 96.88671875 743.682617188 96.88671875 c 1
 774.581054688 96.88671875 l 1
 774.581054688 0.37109375 l 1
 743.362304688 0.44140625 682.682617188 0.30078125 682.682617188 0.30078125 c 1
 546.338867188 0.51171875 l 1
 546.198242188 0.37109375 l 1
 426.323242188 0.37109375 l 1
 426.323242188 0.6435546875 l 1
 422.162109375 0.6435546875 l 1
 422.162109375 32.8427734375 l 1
 422.162109375 32.8427734375 436.69140625 60.4443359375 406.073242188 97.322265625 c 2
 378.751953125 134.842773438 l 1
 348.909179688 126.456054688 313.001953125 128.119140625 313.001953125 128.119140625 c 1
 168.3671875 124.376953125 l 1
 135.4140625 56.2001953125 l 1
 129.69921875 34.783203125 137.743164062 32.8427734375 137.743164062 32.8427734375 c 1
 137.743164062 0.6435546875 l 1
 119.399414062 0.6435546875 l 1
 22.4189453125 0.6435546875 l 1
 22.4189453125 33.60546875 l 1
 27.076171875 37.5556640625 33.7783203125 48.5771484375 40.33984375 60.9130859375 c 2
 274.690429688 554.051757812 l 1
 452.08984375 192.553710938 l 1
 452.198242188 414.17578125 l 1
 452.198242188 439.69921875 l 2
 451.284179688 451.86328125 448.963867188 466.27734375 443.338867188 477.73828125 c 0
 439.541992188 484.48828125 434.127929688 490.81640625 426.323242188 495.17578125 c 1
 426.323242188 495.59765625 l 1
 426.323242188 551.90234375 l 1
 426.323242188 552.32421875 l 1
 464.432617188 552.32421875 l 1
 567.346679688 552.32421875 l 1xd6
 774.581054688 552.32421875 l 1xca
 774.581054688 450.73046875 l 1
355.682617188 211.41015625 m 1
 357.006835938 220.974609375 l 1
 357.006835938 226.51953125 l 1
 345.578125 227.767578125 l 1
 277.325195312 382.354492188 l 1
 251.592773438 319.55859375 l 2
 250.60546875 320.807617188 248.982421875 322.748046875 247.147460938 324.133789062 c 0
 244.255859375 326.3515625 241.010742188 339.243164062 237.412109375 325.174804688 c 1
 239.880859375 322.470703125 l 1
 239.104492188 319.55859375 l 1
 243.125976562 316.716796875 l 1
 245.948242188 307.22265625 l 1
 195.749023438 184.03125 l 1
 245.629882812 190.893554688 270.018554688 217.85546875 270.018554688 217.85546875 c 1
 313.0546875 215.637695312 293.874023438 214.875 317.506835938 215.013671875 c 1
 333.857421875 201.844726562 l 1
 339.857421875 211.41015625 l 1
 355.682617188 211.41015625 l 1
EndSplineSet
Validated: 33
EndChar

StartChar: Ecircumflex
Encoding: 202 202 100
Width: 399
VWidth: 0
Flags: W
HStem: 0.511719 74.7344<162.047 281.73 281.775 342.712> 251.168 65.1875<189.293 211.887> 251.285 49.3281<140.285 189.286> 450.309 102.016<312.244 373.629> 480.652 71.6719<201.246 244.191>
VStem: 51.1055 89.3906<96.8464 251.285 300.613 373.699 394.793 474.441>
LayerCount: 2
Fore
SplineSet
233.615234375 616.080078125 m 5x84
 233.615234375 616.080078125 228.487304688 635.799804688 207.05859375 662.309570312 c 5
 184.03515625 641.2421875 178.372070312 619.428710938 178.372070312 619.428710938 c 5
 178.372070312 619.428710938 125.4921875 607.595703125 124.790039062 607.978515625 c 4
 120.29296875 610.434570312 194.333007812 713.370117188 206.260742188 729.348632812 c 4
 206.67578125 730.178710938 207.090820312 731.0390625 207.537109375 731.96484375 c 6
 207.537109375 731.96484375 287.190429688 605.905273438 282.182617188 603.544921875 c 4
 281.44921875 603.194335938 233.615234375 616.080078125 233.615234375 616.080078125 c 5x84
373.62890625 450.73046875 m 1
 348.56640625 450.30859375 l 1x94
 331 481 244.19140625 480.65234375 244.19140625 480.65234375 c 1
 201.24609375 480.65234375 l 1
 201.24609375 480.65234375 147.87890625 484.23828125 141.12890625 451.61328125 c 1
 141.12890625 394.79296875 l 1
 134.23828125 390.29296875 l 1
 133.53515625 386.14453125 l 1
 125.87109375 386.14453125 l 1
 124.04296875 383.12109375 l 1
 123.69140625 379.74609375 l 1
 120.80859375 381.64453125 l 1
 121.16015625 376.01953125 l 1
 126.22265625 376.01953125 l 1
 129.80859375 373.69921875 l 1
 131.56640625 374.96484375 l 1
 134.66015625 378.62109375 l 1
 140.14453125 381.22265625 l 1
 140.21484375 300.61328125 l 1xac
 180.5 300.61328125 189.29296875 316.35546875 189.29296875 316.35546875 c 1
 301.5 310 329.10546875 321.34765625 329.10546875 321.34765625 c 1
 321.5 297 l 1
 313.00390625 276.91015625 l 2
 301.119140625 251.606445312 211.88671875 251.16796875 211.88671875 251.16796875 c 1xc4
 140.28515625 251.28515625 l 1
 140.49609375 151.39453125 l 2
 142.25390625 131.35546875 152.764648438 75.24609375 215.80078125 75.24609375 c 0
 317.5 75.24609375 342.73046875 96.88671875 342.73046875 96.88671875 c 1
 373.62890625 96.88671875 l 1
 373.62890625 0.37109375 l 1
 342.41015625 0.44140625 281.73046875 0.30078125 281.73046875 0.30078125 c 1
 145.38671875 0.51171875 l 1
 145.24609375 0.37109375 l 1
 25.37109375 0.37109375 l 1
 25.37109375 58.82421875 l 1
 25.37109375 58.82421875 48.99609375 58.33203125 51.10546875 125.62109375 c 2
 51.24609375 414.17578125 l 1
 51.24609375 439.69921875 l 2
 50.33203125 451.86328125 48.01171875 466.27734375 42.38671875 477.73828125 c 0
 38.58984375 484.48828125 33.17578125 490.81640625 25.37109375 495.17578125 c 1
 25.37109375 495.59765625 l 1
 25.37109375 551.90234375 l 1
 25.37109375 552.32421875 l 1
 63.48046875 552.32421875 l 1
 166.39453125 552.32421875 l 1xac
 373.62890625 552.32421875 l 1x94
 373.62890625 450.73046875 l 1
EndSplineSet
Validated: 33
EndChar

StartChar: Eacute
Encoding: 201 201 101
Width: 399
VWidth: 0
Flags: W
HStem: 0.511719 74.7344<162.047 281.73 281.775 342.712> 251.168 65.1875<189.293 211.887> 251.285 49.3281<140.285 189.286> 450.309 102.016<312.244 373.629> 480.652 71.6719<201.246 244.191>
VStem: 51.1055 89.3906<96.8464 251.285 300.613 373.699 394.793 474.441>
LayerCount: 2
Fore
SplineSet
257.203125 719.771484375 m 1x84
 257.203125 719.771484375 266.770507812 695.151367188 254.655273438 661.55078125 c 0
 244 632 212.116210938 621.322265625 212.116210938 621.322265625 c 2
 194.895507812 610.244140625 149.64453125 605.875 149.64453125 605.875 c 1
 231.516601562 653.234375 198.620117188 690.708984375 198.620117188 690.708984375 c 1
 210.376953125 724.125 l 1
 257.203125 719.771484375 l 1x84
373.62890625 450.73046875 m 1
 348.56640625 450.30859375 l 1x94
 331 481 244.19140625 480.65234375 244.19140625 480.65234375 c 1
 201.24609375 480.65234375 l 1
 201.24609375 480.65234375 147.87890625 484.23828125 141.12890625 451.61328125 c 1
 141.12890625 394.79296875 l 1
 134.23828125 390.29296875 l 1
 133.53515625 386.14453125 l 1
 125.87109375 386.14453125 l 1
 124.04296875 383.12109375 l 1
 123.69140625 379.74609375 l 1
 120.80859375 381.64453125 l 1
 121.16015625 376.01953125 l 1
 126.22265625 376.01953125 l 1
 129.80859375 373.69921875 l 1
 131.56640625 374.96484375 l 1
 134.66015625 378.62109375 l 1
 140.14453125 381.22265625 l 1
 140.21484375 300.61328125 l 1xac
 180.5 300.61328125 189.29296875 316.35546875 189.29296875 316.35546875 c 1
 301.5 310 329.10546875 321.34765625 329.10546875 321.34765625 c 1
 321.5 297 l 1
 313.00390625 276.91015625 l 2
 301.119140625 251.606445312 211.88671875 251.16796875 211.88671875 251.16796875 c 1xc4
 140.28515625 251.28515625 l 1
 140.49609375 151.39453125 l 2
 142.25390625 131.35546875 152.764648438 75.24609375 215.80078125 75.24609375 c 0
 317.5 75.24609375 342.73046875 96.88671875 342.73046875 96.88671875 c 1
 373.62890625 96.88671875 l 1
 373.62890625 0.37109375 l 1
 342.41015625 0.44140625 281.73046875 0.30078125 281.73046875 0.30078125 c 1
 145.38671875 0.51171875 l 1
 145.24609375 0.37109375 l 1
 25.37109375 0.37109375 l 1
 25.37109375 58.82421875 l 1
 25.37109375 58.82421875 48.99609375 58.33203125 51.10546875 125.62109375 c 2
 51.24609375 414.17578125 l 1
 51.24609375 439.69921875 l 2
 50.33203125 451.86328125 48.01171875 466.27734375 42.38671875 477.73828125 c 0
 38.58984375 484.48828125 33.17578125 490.81640625 25.37109375 495.17578125 c 1
 25.37109375 495.59765625 l 1
 25.37109375 551.90234375 l 1
 25.37109375 552.32421875 l 1
 63.48046875 552.32421875 l 1
 166.39453125 552.32421875 l 1xac
 373.62890625 552.32421875 l 1x94
 373.62890625 450.73046875 l 1
EndSplineSet
Validated: 33
EndChar

StartChar: Egrave
Encoding: 200 200 102
Width: 399
VWidth: 0
Flags: W
HStem: 0.511719 74.7344<162.047 281.73 281.775 342.712> 251.168 65.1875<189.293 211.887> 251.285 49.3281<140.285 189.286> 450.309 102.016<312.244 373.629> 480.652 71.6719<201.246 244.191>
VStem: 51.1055 89.3906<96.8464 251.285 300.613 373.699 394.793 474.441>
LayerCount: 2
Fore
SplineSet
160.796875 719.771484375 m 1x84
 160.796875 719.771484375 151.229492188 695.151367188 163.344726562 661.55078125 c 0
 174 632 205.883789062 621.322265625 205.883789062 621.322265625 c 2
 223.104492188 610.244140625 268.35546875 605.875 268.35546875 605.875 c 1
 186.483398438 653.234375 219.379882812 690.708984375 219.379882812 690.708984375 c 1
 207.623046875 724.125 l 1
 160.796875 719.771484375 l 1x84
373.62890625 450.73046875 m 1
 348.56640625 450.30859375 l 1x94
 331 481 244.19140625 480.65234375 244.19140625 480.65234375 c 1
 201.24609375 480.65234375 l 1
 201.24609375 480.65234375 147.87890625 484.23828125 141.12890625 451.61328125 c 1
 141.12890625 394.79296875 l 1
 134.23828125 390.29296875 l 1
 133.53515625 386.14453125 l 1
 125.87109375 386.14453125 l 1
 124.04296875 383.12109375 l 1
 123.69140625 379.74609375 l 1
 120.80859375 381.64453125 l 1
 121.16015625 376.01953125 l 1
 126.22265625 376.01953125 l 1
 129.80859375 373.69921875 l 1
 131.56640625 374.96484375 l 1
 134.66015625 378.62109375 l 1
 140.14453125 381.22265625 l 1
 140.21484375 300.61328125 l 1xac
 180.5 300.61328125 189.29296875 316.35546875 189.29296875 316.35546875 c 1
 301.5 310 329.10546875 321.34765625 329.10546875 321.34765625 c 1
 321.5 297 l 1
 313.00390625 276.91015625 l 2
 301.119140625 251.606445312 211.88671875 251.16796875 211.88671875 251.16796875 c 1xc4
 140.28515625 251.28515625 l 1
 140.49609375 151.39453125 l 2
 142.25390625 131.35546875 152.764648438 75.24609375 215.80078125 75.24609375 c 0
 317.5 75.24609375 342.73046875 96.88671875 342.73046875 96.88671875 c 1
 373.62890625 96.88671875 l 1
 373.62890625 0.37109375 l 1
 342.41015625 0.44140625 281.73046875 0.30078125 281.73046875 0.30078125 c 1
 145.38671875 0.51171875 l 1
 145.24609375 0.37109375 l 1
 25.37109375 0.37109375 l 1
 25.37109375 58.82421875 l 1
 25.37109375 58.82421875 48.99609375 58.33203125 51.10546875 125.62109375 c 2
 51.24609375 414.17578125 l 1
 51.24609375 439.69921875 l 2
 50.33203125 451.86328125 48.01171875 466.27734375 42.38671875 477.73828125 c 0
 38.58984375 484.48828125 33.17578125 490.81640625 25.37109375 495.17578125 c 1
 25.37109375 495.59765625 l 1
 25.37109375 551.90234375 l 1
 25.37109375 552.32421875 l 1
 63.48046875 552.32421875 l 1
 166.39453125 552.32421875 l 1xac
 373.62890625 552.32421875 l 1x94
 373.62890625 450.73046875 l 1
EndSplineSet
Validated: 41
EndChar

StartChar: Adieresis
Encoding: 196 196 103
Width: 577
VWidth: 0
Flags: W
HStem: 0.643555 21G<31.4668 146.791 431.21 545.533> 128.119 86.8945<281.039 322.05> 534.052 20G<274.234 293.553>
VStem: 191.227 76.2969<615.455 658.544> 307.227 76.2969<615.455 658.544>
LayerCount: 2
Fore
SplineSet
383.5234375 658.543945312 m 5
 383.5234375 615.455078125 l 5
 345.374023438 594.513671875 l 5
 307.2265625 615.455078125 l 5
 307.2265625 658.543945312 l 5
 346.173828125 680.287109375 l 5
 383.5234375 658.543945312 l 5
267.5234375 658.543945312 m 5
 267.5234375 615.455078125 l 5
 229.374023438 594.513671875 l 5
 191.2265625 615.455078125 l 5
 191.2265625 658.543945312 l 5
 230.173828125 680.287109375 l 5
 267.5234375 658.543945312 l 5
518.640625 79.716796875 m 2
 527.319335938 62.0419921875 538.900390625 39.21875 545.533203125 33.60546875 c 1
 545.533203125 0.6435546875 l 1
 453.645507812 0.6435546875 l 1
 431.209960938 0.6435546875 l 1
 431.209960938 32.8427734375 l 1
 431.209960938 32.8427734375 445.739257812 60.4443359375 415.12109375 97.322265625 c 2
 387.799804688 134.842773438 l 1
 357.95703125 126.456054688 322.049804688 128.119140625 322.049804688 128.119140625 c 1
 177.415039062 124.376953125 l 1
 144.461914062 56.2001953125 l 1
 138.747070312 34.783203125 146.791015625 32.8427734375 146.791015625 32.8427734375 c 1
 146.791015625 0.6435546875 l 1
 128.447265625 0.6435546875 l 1
 31.466796875 0.6435546875 l 1
 31.466796875 33.60546875 l 1
 36.1240234375 37.5556640625 42.826171875 48.5771484375 49.3876953125 60.9130859375 c 2
 283.73828125 554.051757812 l 1
 502.390625 108.491210938 l 1
 518.640625 79.716796875 l 2
375.216796875 211.41015625 m 1
 381.424804688 215.4296875 l 1
 371.971679688 219.727539062 378.938476562 223.469726562 378.938476562 223.469726562 c 1
 362.940429688 198.479492188 l 1
 366.0546875 220.974609375 l 1
 366.0546875 226.51953125 l 1
 354.625976562 227.767578125 l 1
 286.373046875 382.354492188 l 1
 260.640625 319.55859375 l 2
 259.653320312 320.807617188 258.030273438 322.748046875 256.1953125 324.133789062 c 0
 253.303710938 326.3515625 250.05859375 339.243164062 246.459960938 325.174804688 c 1
 248.928710938 322.470703125 l 1
 248.15234375 319.55859375 l 1
 252.173828125 316.716796875 l 1
 254.99609375 307.22265625 l 1
 204.796875 184.03125 l 1
 254.677734375 190.893554688 279.06640625 217.85546875 279.06640625 217.85546875 c 1
 322.102539062 215.637695312 302.921875 214.875 326.5546875 215.013671875 c 1
 342.905273438 201.844726562 l 1
 348.905273438 211.41015625 l 1
 375.216796875 211.41015625 l 1
EndSplineSet
Validated: 37
EndChar

StartChar: Acircumflex
Encoding: 194 194 104
Width: 577
VWidth: 0
Flags: W
HStem: 0.643555 21G<31.4668 146.791 431.21 545.533> 128.119 86.8945<281.039 322.05> 534.052 20G<274.234 293.553>
LayerCount: 2
Fore
SplineSet
317.615234375 616.080078125 m 5
 317.615234375 616.080078125 312.487304688 635.799804688 291.05859375 662.309570312 c 5
 268.03515625 641.2421875 262.372070312 619.428710938 262.372070312 619.428710938 c 5
 262.372070312 619.428710938 209.4921875 607.595703125 208.790039062 607.978515625 c 4
 204.29296875 610.434570312 278.333007812 713.370117188 290.260742188 729.348632812 c 4
 290.67578125 730.178710938 291.090820312 731.0390625 291.537109375 731.96484375 c 6
 291.537109375 731.96484375 371.190429688 605.905273438 366.182617188 603.544921875 c 4
 365.44921875 603.194335938 317.615234375 616.080078125 317.615234375 616.080078125 c 5
518.640625 79.716796875 m 2
 527.319335938 62.0419921875 538.900390625 39.21875 545.533203125 33.60546875 c 1
 545.533203125 0.6435546875 l 1
 453.645507812 0.6435546875 l 1
 431.209960938 0.6435546875 l 1
 431.209960938 32.8427734375 l 1
 431.209960938 32.8427734375 445.739257812 60.4443359375 415.12109375 97.322265625 c 2
 387.799804688 134.842773438 l 1
 357.95703125 126.456054688 322.049804688 128.119140625 322.049804688 128.119140625 c 1
 177.415039062 124.376953125 l 1
 144.461914062 56.2001953125 l 1
 138.747070312 34.783203125 146.791015625 32.8427734375 146.791015625 32.8427734375 c 1
 146.791015625 0.6435546875 l 1
 128.447265625 0.6435546875 l 1
 31.466796875 0.6435546875 l 1
 31.466796875 33.60546875 l 1
 36.1240234375 37.5556640625 42.826171875 48.5771484375 49.3876953125 60.9130859375 c 2
 283.73828125 554.051757812 l 1
 502.390625 108.491210938 l 1
 518.640625 79.716796875 l 2
375.216796875 211.41015625 m 1
 381.424804688 215.4296875 l 1
 371.971679688 219.727539062 378.938476562 223.469726562 378.938476562 223.469726562 c 1
 362.940429688 198.479492188 l 1
 366.0546875 220.974609375 l 1
 366.0546875 226.51953125 l 1
 354.625976562 227.767578125 l 1
 286.373046875 382.354492188 l 1
 260.640625 319.55859375 l 2
 259.653320312 320.807617188 258.030273438 322.748046875 256.1953125 324.133789062 c 0
 253.303710938 326.3515625 250.05859375 339.243164062 246.459960938 325.174804688 c 1
 248.928710938 322.470703125 l 1
 248.15234375 319.55859375 l 1
 252.173828125 316.716796875 l 1
 254.99609375 307.22265625 l 1
 204.796875 184.03125 l 1
 254.677734375 190.893554688 279.06640625 217.85546875 279.06640625 217.85546875 c 1
 322.102539062 215.637695312 302.921875 214.875 326.5546875 215.013671875 c 1
 342.905273438 201.844726562 l 1
 348.905273438 211.41015625 l 1
 375.216796875 211.41015625 l 1
EndSplineSet
Validated: 37
EndChar

StartChar: Agrave
Encoding: 192 192 105
Width: 577
VWidth: 0
Flags: W
HStem: 0.643555 21G<31.4668 146.791 431.21 545.533> 128.119 86.8945<281.039 322.05> 534.052 20G<274.234 293.553>
LayerCount: 2
Fore
SplineSet
250.796875 719.771484375 m 1
 250.796875 719.771484375 241.229492188 695.151367188 253.344726562 661.55078125 c 0
 264 632 295.883789062 621.322265625 295.883789062 621.322265625 c 2
 313.104492188 610.244140625 358.35546875 605.875 358.35546875 605.875 c 1
 276.483398438 653.234375 309.379882812 690.708984375 309.379882812 690.708984375 c 1
 297.623046875 724.125 l 1
 250.796875 719.771484375 l 1
518.640625 79.716796875 m 2
 527.319335938 62.0419921875 538.900390625 39.21875 545.533203125 33.60546875 c 1
 545.533203125 0.6435546875 l 1
 453.645507812 0.6435546875 l 1
 431.209960938 0.6435546875 l 1
 431.209960938 32.8427734375 l 1
 431.209960938 32.8427734375 445.739257812 60.4443359375 415.12109375 97.322265625 c 2
 387.799804688 134.842773438 l 1
 357.95703125 126.456054688 322.049804688 128.119140625 322.049804688 128.119140625 c 1
 177.415039062 124.376953125 l 1
 144.461914062 56.2001953125 l 1
 138.747070312 34.783203125 146.791015625 32.8427734375 146.791015625 32.8427734375 c 1
 146.791015625 0.6435546875 l 1
 128.447265625 0.6435546875 l 1
 31.466796875 0.6435546875 l 1
 31.466796875 33.60546875 l 1
 36.1240234375 37.5556640625 42.826171875 48.5771484375 49.3876953125 60.9130859375 c 2
 283.73828125 554.051757812 l 1
 502.390625 108.491210938 l 1
 518.640625 79.716796875 l 2
375.216796875 211.41015625 m 1
 381.424804688 215.4296875 l 1
 371.971679688 219.727539062 378.938476562 223.469726562 378.938476562 223.469726562 c 1
 362.940429688 198.479492188 l 1
 366.0546875 220.974609375 l 1
 366.0546875 226.51953125 l 1
 354.625976562 227.767578125 l 1
 286.373046875 382.354492188 l 1
 260.640625 319.55859375 l 2
 259.653320312 320.807617188 258.030273438 322.748046875 256.1953125 324.133789062 c 0
 253.303710938 326.3515625 250.05859375 339.243164062 246.459960938 325.174804688 c 1
 248.928710938 322.470703125 l 1
 248.15234375 319.55859375 l 1
 252.173828125 316.716796875 l 1
 254.99609375 307.22265625 l 1
 204.796875 184.03125 l 1
 254.677734375 190.893554688 279.06640625 217.85546875 279.06640625 217.85546875 c 1
 322.102539062 215.637695312 302.921875 214.875 326.5546875 215.013671875 c 1
 342.905273438 201.844726562 l 1
 348.905273438 211.41015625 l 1
 375.216796875 211.41015625 l 1
EndSplineSet
Validated: 37
EndChar

StartChar: Aacute
Encoding: 193 193 106
Width: 577
VWidth: 0
Flags: W
HStem: 0.643555 21G<31.4668 146.791 431.21 545.533> 128.119 86.8945<281.039 322.05> 534.052 20G<274.234 293.553>
LayerCount: 2
Fore
SplineSet
347.203125 719.771484375 m 1
 347.203125 719.771484375 356.770507812 695.151367188 344.655273438 661.55078125 c 0
 334 632 302.116210938 621.322265625 302.116210938 621.322265625 c 2
 284.895507812 610.244140625 239.64453125 605.875 239.64453125 605.875 c 1
 321.516601562 653.234375 288.620117188 690.708984375 288.620117188 690.708984375 c 1
 300.376953125 724.125 l 1
 347.203125 719.771484375 l 1
518.640625 79.716796875 m 2
 527.319335938 62.0419921875 538.900390625 39.21875 545.533203125 33.60546875 c 1
 545.533203125 0.6435546875 l 1
 453.645507812 0.6435546875 l 1
 431.209960938 0.6435546875 l 1
 431.209960938 32.8427734375 l 1
 431.209960938 32.8427734375 445.739257812 60.4443359375 415.12109375 97.322265625 c 2
 387.799804688 134.842773438 l 1
 357.95703125 126.456054688 322.049804688 128.119140625 322.049804688 128.119140625 c 1
 177.415039062 124.376953125 l 1
 144.461914062 56.2001953125 l 1
 138.747070312 34.783203125 146.791015625 32.8427734375 146.791015625 32.8427734375 c 1
 146.791015625 0.6435546875 l 1
 128.447265625 0.6435546875 l 1
 31.466796875 0.6435546875 l 1
 31.466796875 33.60546875 l 1
 36.1240234375 37.5556640625 42.826171875 48.5771484375 49.3876953125 60.9130859375 c 2
 283.73828125 554.051757812 l 1
 502.390625 108.491210938 l 1
 518.640625 79.716796875 l 2
375.216796875 211.41015625 m 1
 381.424804688 215.4296875 l 1
 371.971679688 219.727539062 378.938476562 223.469726562 378.938476562 223.469726562 c 1
 362.940429688 198.479492188 l 1
 366.0546875 220.974609375 l 1
 366.0546875 226.51953125 l 1
 354.625976562 227.767578125 l 1
 286.373046875 382.354492188 l 1
 260.640625 319.55859375 l 2
 259.653320312 320.807617188 258.030273438 322.748046875 256.1953125 324.133789062 c 0
 253.303710938 326.3515625 250.05859375 339.243164062 246.459960938 325.174804688 c 1
 248.928710938 322.470703125 l 1
 248.15234375 319.55859375 l 1
 252.173828125 316.716796875 l 1
 254.99609375 307.22265625 l 1
 204.796875 184.03125 l 1
 254.677734375 190.893554688 279.06640625 217.85546875 279.06640625 217.85546875 c 1
 322.102539062 215.637695312 302.921875 214.875 326.5546875 215.013671875 c 1
 342.905273438 201.844726562 l 1
 348.905273438 211.41015625 l 1
 375.216796875 211.41015625 l 1
EndSplineSet
Validated: 37
EndChar

StartChar: Atilde
Encoding: 195 195 107
Width: 577
VWidth: 0
Flags: W
HStem: 0.643555 21G<31.4668 146.791 431.21 545.533> 128.119 86.8945<281.039 322.05> 534.052 20G<274.234 293.553>
LayerCount: 2
Fore
SplineSet
445.96484375 669.662109375 m 4
 355.295898438 617.53125 364.83984375 583.299804688 299.66015625 616.556640625 c 4
 238.37890625 647.823242188 195.537109375 614.362304688 195.955078125 614.362304688 c 4
 196.373046875 614.362304688 195.955078125 657.212890625 195.955078125 657.212890625 c 5
 195.955078125 657.212890625 232.045898438 691.786132812 283.459960938 671.024414062 c 4
 336.219726562 649.719726562 345.234375 631.807617188 445.96484375 669.662109375 c 4
518.640625 79.716796875 m 2
 527.319335938 62.0419921875 538.900390625 39.21875 545.533203125 33.60546875 c 1
 545.533203125 0.6435546875 l 1
 453.645507812 0.6435546875 l 1
 431.209960938 0.6435546875 l 1
 431.209960938 32.8427734375 l 1
 431.209960938 32.8427734375 445.739257812 60.4443359375 415.12109375 97.322265625 c 2
 387.799804688 134.842773438 l 1
 357.95703125 126.456054688 322.049804688 128.119140625 322.049804688 128.119140625 c 1
 177.415039062 124.376953125 l 1
 144.461914062 56.2001953125 l 1
 138.747070312 34.783203125 146.791015625 32.8427734375 146.791015625 32.8427734375 c 1
 146.791015625 0.6435546875 l 1
 128.447265625 0.6435546875 l 1
 31.466796875 0.6435546875 l 1
 31.466796875 33.60546875 l 1
 36.1240234375 37.5556640625 42.826171875 48.5771484375 49.3876953125 60.9130859375 c 2
 283.73828125 554.051757812 l 1
 502.390625 108.491210938 l 1
 518.640625 79.716796875 l 2
375.216796875 211.41015625 m 1
 381.424804688 215.4296875 l 1
 371.971679688 219.727539062 378.938476562 223.469726562 378.938476562 223.469726562 c 1
 362.940429688 198.479492188 l 1
 366.0546875 220.974609375 l 1
 366.0546875 226.51953125 l 1
 354.625976562 227.767578125 l 1
 286.373046875 382.354492188 l 1
 260.640625 319.55859375 l 2
 259.653320312 320.807617188 258.030273438 322.748046875 256.1953125 324.133789062 c 0
 253.303710938 326.3515625 250.05859375 339.243164062 246.459960938 325.174804688 c 1
 248.928710938 322.470703125 l 1
 248.15234375 319.55859375 l 1
 252.173828125 316.716796875 l 1
 254.99609375 307.22265625 l 1
 204.796875 184.03125 l 1
 254.677734375 190.893554688 279.06640625 217.85546875 279.06640625 217.85546875 c 1
 322.102539062 215.637695312 302.921875 214.875 326.5546875 215.013671875 c 1
 342.905273438 201.844726562 l 1
 348.905273438 211.41015625 l 1
 375.216796875 211.41015625 l 1
EndSplineSet
Validated: 37
EndChar

StartChar: questiondown
Encoding: 191 191 108
Width: 302
VWidth: 0
Flags: W
HStem: 0.675781 67.8203<162.224 198.903> 453.096 102.871<181.163 235.023>
VStem: 18.7471 264.008
LayerCount: 2
Fore
SplineSet
235.0234375 453.095703125 m 1
 181.163085938 453.095703125 l 1
 151.235351562 504.532226562 l 1
 181.163085938 555.966796875 l 1
 235.0234375 555.966796875 l 1
 265.952148438 503.532226562 l 1
 235.0234375 453.095703125 l 1
150.129882812 0.67578125 m 1
 31.09375 2 18.7470703125 124.95703125 18.7470703125 124.95703125 c 1
 12.09375 208 73.09375 251 142.293945312 272.51953125 c 0
 187.197265625 286.483398438 182.09375 408 182.09375 408 c 1
 230.09375 421 233.364257812 394.84765625 233.364257812 394.84765625 c 1
 289.09375 215 182.223632812 206.94921875 182.223632812 206.94921875 c 1
 85.09375 193 98.4111328125 132.28515625 98.4111328125 132.28515625 c 1
 103.09375 67 162.223632812 68.49609375 162.223632812 68.49609375 c 1
 232.09375 68.49609375 261.153320312 151.36328125 261.153320312 151.36328125 c 1
 261.153320312 151.36328125 282.754882812 44.06640625 282.754882812 41.46484375 c 0
 282.754882812 38.86328125 198.903320312 0.96484375 198.903320312 0.96484375 c 1
 150.129882812 0.67578125 l 1
EndSplineSet
Validated: 33
EndChar

StartChar: exclamdown
Encoding: 161 161 109
Width: 160
VWidth: 0
Flags: W
LayerCount: 2
Fore
SplineSet
50.5 445.095703125 m 1
 104.359375 445.095703125 l 1
 134.287109375 496.532226562 l 1
 104.359375 547.966796875 l 1
 50.5 547.966796875 l 1
 19.5703125 495.532226562 l 1
 50.5 445.095703125 l 1
45.4296875 1 m 2
 140.4296875 -12 l 2
 140.4296875 -12 132.4296875 16.40234375 131.830078125 22.75 c 2
 131.4296875 27 l 1
 105.546875 373.143554688 l 2
 104.653320312 385.094726562 96.064453125 394.530273438 84.505859375 397.436523438 c 2
 54.4296875 405 l 2
 54.4296875 405 55.5546875 399.841796875 54.4296875 384.657226562 c 2
 28.1484375 24.6953125 l 2
 26.31640625 -0.033203125 45.4296875 1 45.4296875 1 c 2
EndSplineSet
Validated: 9
EndChar

StartChar: currency
Encoding: 164 164 110
Width: 324
VWidth: 0
Flags: W
HStem: -0.224609 21G<161.227 170.14> 313.057 20G<209.848 219.938> 531.025 20G<198.595 208.331>
VStem: 126.773 0.140625<224.494 249.385>
LayerCount: 2
Fore
SplineSet
96.6796875 255.220703125 m 2
 89.4375 203.259765625 l 1
 117.5625 171.548828125 l 1
 121.921875 175.908203125 l 1
 121.921875 90.197265625 l 1
 15.890625 318.009765625 l 1
 123.609375 549.478515625 l 1
 123.046875 525.431640625 l 1
 130.2890625 513.900390625 132.8203125 507.009765625 132.8203125 507.009765625 c 2
 126.3515625 516.361328125 120.5859375 517.837890625 120.5859375 517.837890625 c 1
 86.90625 392.259765625 l 1
 99.84375 384.947265625 107.71875 369.478515625 108.140625 368.494140625 c 1
 100.8984375 380.728515625 83.6015625 380.025390625 83.6015625 380.025390625 c 1
 74.3203125 327.501953125 l 2
 73.0546875 320.189453125 76.4296875 312.173828125 83.8828125 312.103515625 c 2
 103.0078125 311.892578125 l 1
 132.609375 315.900390625 101.390625 332.494140625 101.390625 332.494140625 c 1
 124.5234375 327.150390625 129.796875 304.298828125 129.796875 304.298828125 c 1
 131.90625 308.587890625 126.3515625 326.166015625 126.2109375 326.658203125 c 1
 135.984375 321.033203125 143.0859375 309.150390625 143.5078125 308.376953125 c 1
 123.328125 344.869140625 130.5703125 364.908203125 130.5703125 364.908203125 c 1
 133.453125 376.439453125 161.4375 386.564453125 161.4375 386.564453125 c 1
 189.421875 391.626953125 187.59375 411.103515625 187.59375 411.103515625 c 1
 186.1171875 432.759765625 161.4375 433.462890625 161.4375 433.462890625 c 1
 133.5234375 435.291015625 130.5703125 407.517578125 130.5703125 407.517578125 c 1
 130.5703125 407.517578125 126.984375 419.751953125 126.984375 420.525390625 c 0
 126.984375 421.298828125 131.34375 434.236328125 131.34375 434.236328125 c 1
 130.640625 443.587890625 l 1
 138.5859375 458.001953125 l 1
 133.5234375 481.837890625 144.3515625 491.189453125 144.3515625 491.189453125 c 2
 142.171875 472.416015625 152.296875 458.001953125 152.296875 458.001953125 c 1
 173.953125 450.759765625 189.84375 468.126953125 189.84375 468.126953125 c 1
 190.546875 463.064453125 187.6640625 458.001953125 183.375 455.892578125 c 0
 167.4140625 447.876953125 165.3046875 442.884765625 165.3046875 442.884765625 c 1
 202.078125 434.939453125 198.4921875 410.400390625 198.4921875 410.400390625 c 1
 199.1953125 387.337890625 168.1875 375.736328125 161.5078125 372.853515625 c 0
 133.1015625 360.548828125 161.5078125 338.962890625 161.5078125 338.962890625 c 1
 172.8984375 325.251953125 179.71875 303.595703125 179.71875 303.595703125 c 1
 180.421875 317.306640625 196.3125 326.658203125 196.3125 326.658203125 c 2
 184.78125 307.884765625 191.953125 301.416015625 191.953125 301.416015625 c 1
 205.453125 330.244140625 219.9375 333.056640625 219.9375 333.056640625 c 1
 199.7578125 316.462890625 216.4921875 312.244140625 216.4921875 312.244140625 c 1
 235.6171875 312.244140625 l 2
 245.6015625 312.244140625 252.9140625 321.736328125 250.2421875 331.439453125 c 2
 238.1484375 375.736328125 l 2
 232.453125 388.533203125 212.6953125 366.173828125 212.203125 365.611328125 c 1
 222.6796875 386.916015625 235.1953125 395.142578125 235.1953125 395.142578125 c 1
 201.375 512.072265625 l 2
 197.015625 518.541015625 189.84375 505.603515625 189.84375 505.603515625 c 1
 189.84375 515.728515625 198.4921875 526.556640625 198.4921875 526.556640625 c 1
 199.0546875 551.025390625 l 1
 308.109375 315.900390625 l 1
 214.9453125 116.634765625 l 1
 210.5859375 128.869140625 l 1
 206.2265625 125.986328125 l 1
 200.4609375 133.931640625 l 1
 200.4609375 177.947265625 l 1
 208.40625 171.478515625 l 1
 214.171875 176.541015625 l 1
 214.875 182.306640625 l 1
 229.9921875 201.080078125 l 1
 226.40625 232.791015625 l 1
 234.3515625 236.376953125 l 1
 226.40625 247.205078125 l 1
 226.40625 255.150390625 l 1
 202.5703125 250.791015625 196.59375 223.861328125 196.59375 223.861328125 c 1
 196.8046875 247.978515625 l 1
 185.2734375 245.095703125 177.328125 226.322265625 177.328125 226.322265625 c 1
 183.796875 176.541015625 l 1
 151.3125 127.462890625 l 1
 161.2265625 98.634765625 l 1
 139.0078125 63.970703125 l 1
 161.71875 28.603515625 l 1
 183.7265625 50.259765625 l 1
 161.2265625 -0.224609375 l 1
 161.2265625 -0.224609375 132.046875 61.158203125 129.796875 63.970703125 c 0
 131.484375 65.376953125 148.4296875 98.634765625 148.4296875 98.634765625 c 1
 136.1953125 124.580078125 l 1
 161.296875 172.181640625 l 1
 161.2265625 183.009765625 l 2
 162.4921875 229.205078125 126.7734375 249.384765625 126.7734375 249.384765625 c 1
 126.9140625 224.494140625 l 1
 120.65625 254.236328125 97.453125 255.220703125 96.6796875 255.220703125 c 2
EndSplineSet
Validated: 33
EndChar

StartChar: Ograve
Encoding: 210 210 111
Width: 595
VWidth: 0
Flags: W
HStem: 0.419922 88.9248<214.456 384.682> 465.892 86.2314<217.404 374.434>
VStem: 25.1484 108.558<173.653 349.744> 459.342 110.51<172.341 369.796>
LayerCount: 2
Fore
SplineSet
297.5 552.123046875 m 0
 447.889648438 552.123046875 569.8515625 425.161132812 569.8515625 274.771484375 c 0
 569.8515625 124.381835938 447.958984375 0.419921875 297.5 0.419921875 c 0
 147.041015625 0.419921875 25.1484375 124.381835938 25.1484375 274.771484375 c 0
 25.1484375 425.161132812 147.110351562 552.123046875 297.5 552.123046875 c 0
299.025390625 89.3447265625 m 0
 408 89.3447265625 459.341796875 169 459.341796875 276.504882812 c 0
 459.341796875 363 408 465.891601562 297.361328125 465.891601562 c 0
 200 465.891601562 142.442382812 382 142.442382812 340.155273438 c 1
 140.778320312 341.75 138.490234375 343.69140625 136.1328125 345.008789062 c 2
 136.1328125 345.008789062 143.444335938 368.65234375 141.918945312 343.899414062 c 1
 126.287109375 339.947265625 l 1
 125.524414062 335.09375 l 1
 132.388671875 331.141601562 l 1
 137.588867188 318.591796875 l 1
 135.0234375 304.5859375 133.706054688 289.956054688 133.706054688 274.702148438 c 0
 133.706054688 159 198 89.3447265625 299.025390625 89.3447265625 c 0
260.796875 719.771484375 m 5
 260.796875 719.771484375 251.229117311 695.151581904 263.344726562 661.55078125 c 4
 274 632 305.883789062 621.322265625 305.883789062 621.322265625 c 6
 323.104492188 610.244140625 368.35546875 605.875 368.35546875 605.875 c 5
 286.483398438 653.234375 319.379882812 690.708984375 319.379882812 690.708984375 c 5
 307.623046875 724.125 l 5
 260.796875 719.771484375 l 5
EndSplineSet
Validated: 37
EndChar

StartChar: Oacute
Encoding: 211 211 112
Width: 595
VWidth: 0
Flags: W
HStem: 0.419922 88.9248<214.456 384.682> 465.892 86.2314<217.404 374.434>
VStem: 25.1484 108.558<173.653 349.744> 459.342 110.51<172.341 369.796>
LayerCount: 2
Fore
SplineSet
297.5 552.123046875 m 0
 447.889648438 552.123046875 569.8515625 425.161132812 569.8515625 274.771484375 c 0
 569.8515625 124.381835938 447.958984375 0.419921875 297.5 0.419921875 c 0
 147.041015625 0.419921875 25.1484375 124.381835938 25.1484375 274.771484375 c 0
 25.1484375 425.161132812 147.110351562 552.123046875 297.5 552.123046875 c 0
299.025390625 89.3447265625 m 0
 408 89.3447265625 459.341796875 169 459.341796875 276.504882812 c 0
 459.341796875 363 408 465.891601562 297.361328125 465.891601562 c 0
 200 465.891601562 142.442382812 382 142.442382812 340.155273438 c 1
 140.778320312 341.75 138.490234375 343.69140625 136.1328125 345.008789062 c 2
 136.1328125 345.008789062 143.444335938 368.65234375 141.918945312 343.899414062 c 1
 126.287109375 339.947265625 l 1
 125.524414062 335.09375 l 1
 132.388671875 331.141601562 l 1
 137.588867188 318.591796875 l 1
 135.0234375 304.5859375 133.706054688 289.956054688 133.706054688 274.702148438 c 0
 133.706054688 159 198 89.3447265625 299.025390625 89.3447265625 c 0
367.203125 719.771484375 m 5
 367.203125 719.771484375 376.770507812 695.151367188 364.655273438 661.55078125 c 4
 354 632 322.116210938 621.322265625 322.116210938 621.322265625 c 6
 304.895507812 610.244140625 259.64453125 605.875 259.64453125 605.875 c 5
 341.516601562 653.234375 308.620117188 690.708984375 308.620117188 690.708984375 c 5
 320.376953125 724.125 l 5
 367.203125 719.771484375 l 5
EndSplineSet
Validated: 37
EndChar

